SplineFontDB: 3.2
FontName: Tecnica-53
FullName: Tecnica 53
FamilyName: Tecnica
Weight: Condensed
Copyright: Copyright (c) 2024 by Davide Piscitelli (https://github.com/Davide-dotzero/Tecnica-Typeface.git).
Version: 1.000;hotconv 1.0.109;makeotfexe 2.5.65596
ItalicAngle: 0
UnderlinePosition: -100
UnderlineWidth: 50
Ascent: 800
Descent: 200
InvalidEm: 0
sfntRevision: 0x00010000
LayerCount: 2
Layer: 0 1 "Sfondo" 1
Layer: 1 1 "Fore" 0
XUID: [1021 377 1849096109 13968605]
StyleMap: 0x0040
FSType: 0
OS2Version: 4
OS2_WeightWidthSlopeOnly: 0
OS2_UseTypoMetrics: 1
CreationTime: 1732805427
ModificationTime: 1732870693
PfmFamily: 81
TTFWeight: 400
TTFWidth: 3
LineGap: 0
VLineGap: 0
Panose: 0 0 5 0 0 0 0 0 0 0
OS2TypoAscent: 1000
OS2TypoAOffset: 0
OS2TypoDescent: -300
OS2TypoDOffset: 0
OS2TypoLinegap: 0
OS2WinAscent: 1000
OS2WinAOffset: 0
OS2WinDescent: 300
OS2WinDOffset: 0
HheadAscent: 1000
HheadAOffset: 0
HheadDescent: -300
HheadDOffset: 0
OS2SubXSize: 650
OS2SubYSize: 600
OS2SubXOff: 0
OS2SubYOff: 75
OS2SupXSize: 650
OS2SupYSize: 600
OS2SupXOff: 0
OS2SupYOff: 350
OS2StrikeYSize: 50
OS2StrikeYPos: 330
OS2CapHeight: 700
OS2XHeight: 550
OS2FamilyClass: 2058
OS2Vendor: 'DAPI'
OS2CodePages: 20000093.00000000
OS2UnicodeRanges: 00000007.00000001.00000000.00000000
Lookup: 1 0 0 "'rtla' Alternative da destra a sinistra lookup 0" { "'rtla' Alternative da destra a sinistra lookup 0 subtable"  } ['rtla' ('DFLT' <'dflt' > ) ]
Lookup: 1 0 0 "<11,2> Diagonal Fractions lookup 1" { "<11,2> Diagonal Fractions lookup 1 subtable"  } [<11,2> ('DFLT' <'dflt' > ) 'frac' ('DFLT' <'dflt' > ) ]
Lookup: 1 0 0 "<11,2> Diagonal Fractions lookup 2" { "<11,2> Diagonal Fractions lookup 2 subtable"  } [<11,2> ('DFLT' <'dflt' > ) 'frac' ('DFLT' <'dflt' > ) ]
Lookup: 254 0 0 "<11,2> Diagonal Fractions lookup 3" { "<11,2> Diagonal Fractions lookup 3 subtable"  } [<11,2> ('DFLT' <'dflt' > ) ]

StartChar: .notdef
Encoding: 65536 -1 0
Width: 400
GlyphClass: 1
Flags: W
LayerCount: 2
Fore
SplineSet
100 600 m 128,-1,1
 79 600 79 600 64.5 614.5 c 128,-1,2
 50 629 50 629 50 650 c 128,-1,3
 50 671 50 671 64.5 685.5 c 128,-1,4
 79 700 79 700 100 700 c 128,-1,5
 121 700 121 700 135.5 685.5 c 128,-1,6
 150 671 150 671 150 650 c 128,-1,7
 150 629 150 629 135.5 614.5 c 128,-1,0
 121 600 121 600 100 600 c 128,-1,1
200 600 m 128,-1,9
 179 600 179 600 164.5 614.5 c 128,-1,10
 150 629 150 629 150 650 c 128,-1,11
 150 671 150 671 164.5 685.5 c 128,-1,12
 179 700 179 700 200 700 c 128,-1,13
 221 700 221 700 235.5 685.5 c 128,-1,14
 250 671 250 671 250 650 c 128,-1,15
 250 629 250 629 235.5 614.5 c 128,-1,8
 221 600 221 600 200 600 c 128,-1,9
300 600 m 128,-1,17
 279 600 279 600 264.5 614.5 c 128,-1,18
 250 629 250 629 250 650 c 128,-1,19
 250 671 250 671 264.5 685.5 c 128,-1,20
 279 700 279 700 300 700 c 128,-1,21
 321 700 321 700 335.5 685.5 c 128,-1,22
 350 671 350 671 350 650 c 128,-1,23
 350 629 350 629 335.5 614.5 c 128,-1,16
 321 600 321 600 300 600 c 128,-1,17
100 450 m 128,-1,25
 79 450 79 450 64.5 464.5 c 128,-1,26
 50 479 50 479 50 500 c 128,-1,27
 50 521 50 521 64.5 535.5 c 128,-1,28
 79 550 79 550 100 550 c 128,-1,29
 121 550 121 550 135.5 535.5 c 128,-1,30
 150 521 150 521 150 500 c 128,-1,31
 150 479 150 479 135.5 464.5 c 128,-1,24
 121 450 121 450 100 450 c 128,-1,25
200 450 m 128,-1,33
 179 450 179 450 164.5 464.5 c 128,-1,34
 150 479 150 479 150 500 c 128,-1,35
 150 521 150 521 164.5 535.5 c 128,-1,36
 179 550 179 550 200 550 c 128,-1,37
 221 550 221 550 235.5 535.5 c 128,-1,38
 250 521 250 521 250 500 c 128,-1,39
 250 479 250 479 235.5 464.5 c 128,-1,32
 221 450 221 450 200 450 c 128,-1,33
300 450 m 128,-1,41
 279 450 279 450 264.5 464.5 c 128,-1,42
 250 479 250 479 250 500 c 128,-1,43
 250 521 250 521 264.5 535.5 c 128,-1,44
 279 550 279 550 300 550 c 128,-1,45
 321 550 321 550 335.5 535.5 c 128,-1,46
 350 521 350 521 350 500 c 128,-1,47
 350 479 350 479 335.5 464.5 c 128,-1,40
 321 450 321 450 300 450 c 128,-1,41
100 300 m 128,-1,49
 79 300 79 300 64.5 314.5 c 128,-1,50
 50 329 50 329 50 350 c 128,-1,51
 50 371 50 371 64.5 385.5 c 128,-1,52
 79 400 79 400 100 400 c 128,-1,53
 121 400 121 400 135.5 385.5 c 128,-1,54
 150 371 150 371 150 350 c 128,-1,55
 150 329 150 329 135.5 314.5 c 128,-1,48
 121 300 121 300 100 300 c 128,-1,49
200 300 m 128,-1,57
 179 300 179 300 164.5 314.5 c 128,-1,58
 150 329 150 329 150 350 c 128,-1,59
 150 371 150 371 164.5 385.5 c 128,-1,60
 179 400 179 400 200 400 c 128,-1,61
 221 400 221 400 235.5 385.5 c 128,-1,62
 250 371 250 371 250 350 c 128,-1,63
 250 329 250 329 235.5 314.5 c 128,-1,56
 221 300 221 300 200 300 c 128,-1,57
300 300 m 128,-1,65
 279 300 279 300 264.5 314.5 c 128,-1,66
 250 329 250 329 250 350 c 128,-1,67
 250 371 250 371 264.5 385.5 c 128,-1,68
 279 400 279 400 300 400 c 128,-1,69
 321 400 321 400 335.5 385.5 c 128,-1,70
 350 371 350 371 350 350 c 128,-1,71
 350 329 350 329 335.5 314.5 c 128,-1,64
 321 300 321 300 300 300 c 128,-1,65
100 150 m 128,-1,73
 79 150 79 150 64.5 164.5 c 128,-1,74
 50 179 50 179 50 200 c 128,-1,75
 50 221 50 221 64.5 235.5 c 128,-1,76
 79 250 79 250 100 250 c 128,-1,77
 121 250 121 250 135.5 235.5 c 128,-1,78
 150 221 150 221 150 200 c 128,-1,79
 150 179 150 179 135.5 164.5 c 128,-1,72
 121 150 121 150 100 150 c 128,-1,73
200 150 m 128,-1,81
 179 150 179 150 164.5 164.5 c 128,-1,82
 150 179 150 179 150 200 c 128,-1,83
 150 221 150 221 164.5 235.5 c 128,-1,84
 179 250 179 250 200 250 c 128,-1,85
 221 250 221 250 235.5 235.5 c 128,-1,86
 250 221 250 221 250 200 c 128,-1,87
 250 179 250 179 235.5 164.5 c 128,-1,80
 221 150 221 150 200 150 c 128,-1,81
300 150 m 128,-1,89
 279 150 279 150 264.5 164.5 c 128,-1,90
 250 179 250 179 250 200 c 128,-1,91
 250 221 250 221 264.5 235.5 c 128,-1,92
 279 250 279 250 300 250 c 128,-1,93
 321 250 321 250 335.5 235.5 c 128,-1,94
 350 221 350 221 350 200 c 128,-1,95
 350 179 350 179 335.5 164.5 c 128,-1,88
 321 150 321 150 300 150 c 128,-1,89
100 0 m 128,-1,97
 79 0 79 0 64.5 14.5 c 128,-1,98
 50 29 50 29 50 50 c 128,-1,99
 50 71 50 71 64.5 85.5 c 128,-1,100
 79 100 79 100 100 100 c 128,-1,101
 121 100 121 100 135.5 85.5 c 128,-1,102
 150 71 150 71 150 50 c 128,-1,103
 150 29 150 29 135.5 14.5 c 128,-1,96
 121 0 121 0 100 0 c 128,-1,97
200 0 m 128,-1,105
 179 0 179 0 164.5 14.5 c 128,-1,106
 150 29 150 29 150 50 c 128,-1,107
 150 71 150 71 164.5 85.5 c 128,-1,108
 179 100 179 100 200 100 c 128,-1,109
 221 100 221 100 235.5 85.5 c 128,-1,110
 250 71 250 71 250 50 c 128,-1,111
 250 29 250 29 235.5 14.5 c 128,-1,104
 221 0 221 0 200 0 c 128,-1,105
300 0 m 128,-1,113
 279 0 279 0 264.5 14.5 c 128,-1,114
 250 29 250 29 250 50 c 128,-1,115
 250 71 250 71 264.5 85.5 c 128,-1,116
 279 100 279 100 300 100 c 128,-1,117
 321 100 321 100 335.5 85.5 c 128,-1,118
 350 71 350 71 350 50 c 128,-1,119
 350 29 350 29 335.5 14.5 c 128,-1,112
 321 0 321 0 300 0 c 128,-1,113
EndSplineSet
EndChar

StartChar: exclam
Encoding: 33 33 4
Width: 200
GlyphClass: 1
Flags: W
LayerCount: 2
Fore
SplineSet
100 600 m 128,-1,1
 79 600 79 600 64.5 614.5 c 128,-1,2
 50 629 50 629 50 650 c 128,-1,3
 50 671 50 671 64.5 685.5 c 128,-1,4
 79 700 79 700 100 700 c 128,-1,5
 121 700 121 700 135.5 685.5 c 128,-1,6
 150 671 150 671 150 650 c 128,-1,7
 150 629 150 629 135.5 614.5 c 128,-1,0
 121 600 121 600 100 600 c 128,-1,1
100 450 m 128,-1,9
 79 450 79 450 64.5 464.5 c 128,-1,10
 50 479 50 479 50 500 c 128,-1,11
 50 521 50 521 64.5 535.5 c 128,-1,12
 79 550 79 550 100 550 c 128,-1,13
 121 550 121 550 135.5 535.5 c 128,-1,14
 150 521 150 521 150 500 c 128,-1,15
 150 479 150 479 135.5 464.5 c 128,-1,8
 121 450 121 450 100 450 c 128,-1,9
100 300 m 128,-1,17
 79 300 79 300 64.5 314.5 c 128,-1,18
 50 329 50 329 50 350 c 128,-1,19
 50 371 50 371 64.5 385.5 c 128,-1,20
 79 400 79 400 100 400 c 128,-1,21
 121 400 121 400 135.5 385.5 c 128,-1,22
 150 371 150 371 150 350 c 128,-1,23
 150 329 150 329 135.5 314.5 c 128,-1,16
 121 300 121 300 100 300 c 128,-1,17
100 0 m 128,-1,25
 79 0 79 0 64.5 14.5 c 128,-1,26
 50 29 50 29 50 50 c 128,-1,27
 50 71 50 71 64.5 85.5 c 128,-1,28
 79 100 79 100 100 100 c 128,-1,29
 121 100 121 100 135.5 85.5 c 128,-1,30
 150 71 150 71 150 50 c 128,-1,31
 150 29 150 29 135.5 14.5 c 128,-1,24
 121 0 121 0 100 0 c 128,-1,25
EndSplineSet
EndChar

StartChar: quotedbl
Encoding: 34 34 5
Width: 400
GlyphClass: 1
Flags: W
LayerCount: 2
Fore
SplineSet
100 600 m 128,-1,1
 79 600 79 600 64.5 614.5 c 128,-1,2
 50 629 50 629 50 650 c 128,-1,3
 50 671 50 671 64.5 685.5 c 128,-1,4
 79 700 79 700 100 700 c 128,-1,5
 121 700 121 700 135.5 685.5 c 128,-1,6
 150 671 150 671 150 650 c 128,-1,7
 150 629 150 629 135.5 614.5 c 128,-1,0
 121 600 121 600 100 600 c 128,-1,1
300 600 m 128,-1,9
 279 600 279 600 264.5 614.5 c 128,-1,10
 250 629 250 629 250 650 c 128,-1,11
 250 671 250 671 264.5 685.5 c 128,-1,12
 279 700 279 700 300 700 c 128,-1,13
 321 700 321 700 335.5 685.5 c 128,-1,14
 350 671 350 671 350 650 c 128,-1,15
 350 629 350 629 335.5 614.5 c 128,-1,8
 321 600 321 600 300 600 c 128,-1,9
100 450 m 128,-1,17
 79 450 79 450 64.5 464.5 c 128,-1,18
 50 479 50 479 50 500 c 128,-1,19
 50 521 50 521 64.5 535.5 c 128,-1,20
 79 550 79 550 100 550 c 128,-1,21
 121 550 121 550 135.5 535.5 c 128,-1,22
 150 521 150 521 150 500 c 128,-1,23
 150 479 150 479 135.5 464.5 c 128,-1,16
 121 450 121 450 100 450 c 128,-1,17
300 450 m 128,-1,25
 279 450 279 450 264.5 464.5 c 128,-1,26
 250 479 250 479 250 500 c 128,-1,27
 250 521 250 521 264.5 535.5 c 128,-1,28
 279 550 279 550 300 550 c 128,-1,29
 321 550 321 550 335.5 535.5 c 128,-1,30
 350 521 350 521 350 500 c 128,-1,31
 350 479 350 479 335.5 464.5 c 128,-1,24
 321 450 321 450 300 450 c 128,-1,25
100 300 m 128,-1,33
 79 300 79 300 64.5 314.5 c 128,-1,34
 50 329 50 329 50 350 c 128,-1,35
 50 371 50 371 64.5 385.5 c 128,-1,36
 79 400 79 400 100 400 c 128,-1,37
 121 400 121 400 135.5 385.5 c 128,-1,38
 150 371 150 371 150 350 c 128,-1,39
 150 329 150 329 135.5 314.5 c 128,-1,32
 121 300 121 300 100 300 c 128,-1,33
300 300 m 128,-1,41
 279 300 279 300 264.5 314.5 c 128,-1,42
 250 329 250 329 250 350 c 128,-1,43
 250 371 250 371 264.5 385.5 c 128,-1,44
 279 400 279 400 300 400 c 128,-1,45
 321 400 321 400 335.5 385.5 c 128,-1,46
 350 371 350 371 350 350 c 128,-1,47
 350 329 350 329 335.5 314.5 c 128,-1,40
 321 300 321 300 300 300 c 128,-1,41
EndSplineSet
EndChar

StartChar: numbersign
Encoding: 35 35 6
Width: 400
GlyphClass: 1
Flags: W
LayerCount: 2
Fore
SplineSet
100 600 m 128,-1,1
 79 600 79 600 64.5 614.5 c 128,-1,2
 50 629 50 629 50 650 c 128,-1,3
 50 671 50 671 64.5 685.5 c 128,-1,4
 79 700 79 700 100 700 c 128,-1,5
 121 700 121 700 135.5 685.5 c 128,-1,6
 150 671 150 671 150 650 c 128,-1,7
 150 629 150 629 135.5 614.5 c 128,-1,0
 121 600 121 600 100 600 c 128,-1,1
300 600 m 128,-1,9
 279 600 279 600 264.5 614.5 c 128,-1,10
 250 629 250 629 250 650 c 128,-1,11
 250 671 250 671 264.5 685.5 c 128,-1,12
 279 700 279 700 300 700 c 128,-1,13
 321 700 321 700 335.5 685.5 c 128,-1,14
 350 671 350 671 350 650 c 128,-1,15
 350 629 350 629 335.5 614.5 c 128,-1,8
 321 600 321 600 300 600 c 128,-1,9
100 450 m 128,-1,17
 79 450 79 450 64.5 464.5 c 128,-1,18
 50 479 50 479 50 500 c 128,-1,19
 50 521 50 521 64.5 535.5 c 128,-1,20
 79 550 79 550 100 550 c 128,-1,21
 121 550 121 550 135.5 535.5 c 128,-1,22
 150 521 150 521 150 500 c 128,-1,23
 150 479 150 479 135.5 464.5 c 128,-1,16
 121 450 121 450 100 450 c 128,-1,17
200 450 m 128,-1,25
 179 450 179 450 164.5 464.5 c 128,-1,26
 150 479 150 479 150 500 c 128,-1,27
 150 521 150 521 164.5 535.5 c 128,-1,28
 179 550 179 550 200 550 c 128,-1,29
 221 550 221 550 235.5 535.5 c 128,-1,30
 250 521 250 521 250 500 c 128,-1,31
 250 479 250 479 235.5 464.5 c 128,-1,24
 221 450 221 450 200 450 c 128,-1,25
300 450 m 128,-1,33
 279 450 279 450 264.5 464.5 c 128,-1,34
 250 479 250 479 250 500 c 128,-1,35
 250 521 250 521 264.5 535.5 c 128,-1,36
 279 550 279 550 300 550 c 128,-1,37
 321 550 321 550 335.5 535.5 c 128,-1,38
 350 521 350 521 350 500 c 128,-1,39
 350 479 350 479 335.5 464.5 c 128,-1,32
 321 450 321 450 300 450 c 128,-1,33
100 300 m 128,-1,41
 79 300 79 300 64.5 314.5 c 128,-1,42
 50 329 50 329 50 350 c 128,-1,43
 50 371 50 371 64.5 385.5 c 128,-1,44
 79 400 79 400 100 400 c 128,-1,45
 121 400 121 400 135.5 385.5 c 128,-1,46
 150 371 150 371 150 350 c 128,-1,47
 150 329 150 329 135.5 314.5 c 128,-1,40
 121 300 121 300 100 300 c 128,-1,41
300 300 m 128,-1,49
 279 300 279 300 264.5 314.5 c 128,-1,50
 250 329 250 329 250 350 c 128,-1,51
 250 371 250 371 264.5 385.5 c 128,-1,52
 279 400 279 400 300 400 c 128,-1,53
 321 400 321 400 335.5 385.5 c 128,-1,54
 350 371 350 371 350 350 c 128,-1,55
 350 329 350 329 335.5 314.5 c 128,-1,48
 321 300 321 300 300 300 c 128,-1,49
100 150 m 128,-1,57
 79 150 79 150 64.5 164.5 c 128,-1,58
 50 179 50 179 50 200 c 128,-1,59
 50 221 50 221 64.5 235.5 c 128,-1,60
 79 250 79 250 100 250 c 128,-1,61
 121 250 121 250 135.5 235.5 c 128,-1,62
 150 221 150 221 150 200 c 128,-1,63
 150 179 150 179 135.5 164.5 c 128,-1,56
 121 150 121 150 100 150 c 128,-1,57
200 150 m 128,-1,65
 179 150 179 150 164.5 164.5 c 128,-1,66
 150 179 150 179 150 200 c 128,-1,67
 150 221 150 221 164.5 235.5 c 128,-1,68
 179 250 179 250 200 250 c 128,-1,69
 221 250 221 250 235.5 235.5 c 128,-1,70
 250 221 250 221 250 200 c 128,-1,71
 250 179 250 179 235.5 164.5 c 128,-1,64
 221 150 221 150 200 150 c 128,-1,65
300 150 m 128,-1,73
 279 150 279 150 264.5 164.5 c 128,-1,74
 250 179 250 179 250 200 c 128,-1,75
 250 221 250 221 264.5 235.5 c 128,-1,76
 279 250 279 250 300 250 c 128,-1,77
 321 250 321 250 335.5 235.5 c 128,-1,78
 350 221 350 221 350 200 c 128,-1,79
 350 179 350 179 335.5 164.5 c 128,-1,72
 321 150 321 150 300 150 c 128,-1,73
100 0 m 128,-1,81
 79 0 79 0 64.5 14.5 c 128,-1,82
 50 29 50 29 50 50 c 128,-1,83
 50 71 50 71 64.5 85.5 c 128,-1,84
 79 100 79 100 100 100 c 128,-1,85
 121 100 121 100 135.5 85.5 c 128,-1,86
 150 71 150 71 150 50 c 128,-1,87
 150 29 150 29 135.5 14.5 c 128,-1,80
 121 0 121 0 100 0 c 128,-1,81
300 0 m 128,-1,89
 279 0 279 0 264.5 14.5 c 128,-1,90
 250 29 250 29 250 50 c 128,-1,91
 250 71 250 71 264.5 85.5 c 128,-1,92
 279 100 279 100 300 100 c 128,-1,93
 321 100 321 100 335.5 85.5 c 128,-1,94
 350 71 350 71 350 50 c 128,-1,95
 350 29 350 29 335.5 14.5 c 128,-1,88
 321 0 321 0 300 0 c 128,-1,89
EndSplineSet
EndChar

StartChar: dollar
Encoding: 36 36 7
Width: 400
GlyphClass: 1
Flags: W
LayerCount: 2
Fore
SplineSet
200 600 m 128,-1,1
 179 600 179 600 164.5 614.5 c 128,-1,2
 150 629 150 629 150 650 c 128,-1,3
 150 671 150 671 164.5 685.5 c 128,-1,4
 179 700 179 700 200 700 c 128,-1,5
 221 700 221 700 235.5 685.5 c 128,-1,6
 250 671 250 671 250 650 c 128,-1,7
 250 629 250 629 235.5 614.5 c 128,-1,0
 221 600 221 600 200 600 c 128,-1,1
300 600 m 128,-1,9
 279 600 279 600 264.5 614.5 c 128,-1,10
 250 629 250 629 250 650 c 128,-1,11
 250 671 250 671 264.5 685.5 c 128,-1,12
 279 700 279 700 300 700 c 128,-1,13
 321 700 321 700 335.5 685.5 c 128,-1,14
 350 671 350 671 350 650 c 128,-1,15
 350 629 350 629 335.5 614.5 c 128,-1,8
 321 600 321 600 300 600 c 128,-1,9
100 450 m 128,-1,17
 79 450 79 450 64.5 464.5 c 128,-1,18
 50 479 50 479 50 500 c 128,-1,19
 50 521 50 521 64.5 535.5 c 128,-1,20
 79 550 79 550 100 550 c 128,-1,21
 121 550 121 550 135.5 535.5 c 128,-1,22
 150 521 150 521 150 500 c 128,-1,23
 150 479 150 479 135.5 464.5 c 128,-1,16
 121 450 121 450 100 450 c 128,-1,17
200 450 m 128,-1,25
 179 450 179 450 164.5 464.5 c 128,-1,26
 150 479 150 479 150 500 c 128,-1,27
 150 521 150 521 164.5 535.5 c 128,-1,28
 179 550 179 550 200 550 c 128,-1,29
 221 550 221 550 235.5 535.5 c 128,-1,30
 250 521 250 521 250 500 c 128,-1,31
 250 479 250 479 235.5 464.5 c 128,-1,24
 221 450 221 450 200 450 c 128,-1,25
200 300 m 128,-1,33
 179 300 179 300 164.5 314.5 c 128,-1,34
 150 329 150 329 150 350 c 128,-1,35
 150 371 150 371 164.5 385.5 c 128,-1,36
 179 400 179 400 200 400 c 128,-1,37
 221 400 221 400 235.5 385.5 c 128,-1,38
 250 371 250 371 250 350 c 128,-1,39
 250 329 250 329 235.5 314.5 c 128,-1,32
 221 300 221 300 200 300 c 128,-1,33
200 150 m 128,-1,41
 179 150 179 150 164.5 164.5 c 128,-1,42
 150 179 150 179 150 200 c 128,-1,43
 150 221 150 221 164.5 235.5 c 128,-1,44
 179 250 179 250 200 250 c 128,-1,45
 221 250 221 250 235.5 235.5 c 128,-1,46
 250 221 250 221 250 200 c 128,-1,47
 250 179 250 179 235.5 164.5 c 128,-1,40
 221 150 221 150 200 150 c 128,-1,41
300 150 m 128,-1,49
 279 150 279 150 264.5 164.5 c 128,-1,50
 250 179 250 179 250 200 c 128,-1,51
 250 221 250 221 264.5 235.5 c 128,-1,52
 279 250 279 250 300 250 c 128,-1,53
 321 250 321 250 335.5 235.5 c 128,-1,54
 350 221 350 221 350 200 c 128,-1,55
 350 179 350 179 335.5 164.5 c 128,-1,48
 321 150 321 150 300 150 c 128,-1,49
100 0 m 128,-1,57
 79 0 79 0 64.5 14.5 c 128,-1,58
 50 29 50 29 50 50 c 128,-1,59
 50 71 50 71 64.5 85.5 c 128,-1,60
 79 100 79 100 100 100 c 128,-1,61
 121 100 121 100 135.5 85.5 c 128,-1,62
 150 71 150 71 150 50 c 128,-1,63
 150 29 150 29 135.5 14.5 c 128,-1,56
 121 0 121 0 100 0 c 128,-1,57
200 0 m 128,-1,65
 179 0 179 0 164.5 14.5 c 128,-1,66
 150 29 150 29 150 50 c 128,-1,67
 150 71 150 71 164.5 85.5 c 128,-1,68
 179 100 179 100 200 100 c 128,-1,69
 221 100 221 100 235.5 85.5 c 128,-1,70
 250 71 250 71 250 50 c 128,-1,71
 250 29 250 29 235.5 14.5 c 128,-1,64
 221 0 221 0 200 0 c 128,-1,65
EndSplineSet
EndChar

StartChar: percent
Encoding: 37 37 8
Width: 400
GlyphClass: 1
Flags: W
LayerCount: 2
Fore
SplineSet
100 600 m 128,-1,1
 79 600 79 600 64.5 614.5 c 128,-1,2
 50 629 50 629 50 650 c 128,-1,3
 50 671 50 671 64.5 685.5 c 128,-1,4
 79 700 79 700 100 700 c 128,-1,5
 121 700 121 700 135.5 685.5 c 128,-1,6
 150 671 150 671 150 650 c 128,-1,7
 150 629 150 629 135.5 614.5 c 128,-1,0
 121 600 121 600 100 600 c 128,-1,1
300 600 m 128,-1,9
 279 600 279 600 264.5 614.5 c 128,-1,10
 250 629 250 629 250 650 c 128,-1,11
 250 671 250 671 264.5 685.5 c 128,-1,12
 279 700 279 700 300 700 c 128,-1,13
 321 700 321 700 335.5 685.5 c 128,-1,14
 350 671 350 671 350 650 c 128,-1,15
 350 629 350 629 335.5 614.5 c 128,-1,8
 321 600 321 600 300 600 c 128,-1,9
300 450 m 128,-1,17
 279 450 279 450 264.5 464.5 c 128,-1,18
 250 479 250 479 250 500 c 128,-1,19
 250 521 250 521 264.5 535.5 c 128,-1,20
 279 550 279 550 300 550 c 128,-1,21
 321 550 321 550 335.5 535.5 c 128,-1,22
 350 521 350 521 350 500 c 128,-1,23
 350 479 350 479 335.5 464.5 c 128,-1,16
 321 450 321 450 300 450 c 128,-1,17
200 300 m 128,-1,25
 179 300 179 300 164.5 314.5 c 128,-1,26
 150 329 150 329 150 350 c 128,-1,27
 150 371 150 371 164.5 385.5 c 128,-1,28
 179 400 179 400 200 400 c 128,-1,29
 221 400 221 400 235.5 385.5 c 128,-1,30
 250 371 250 371 250 350 c 128,-1,31
 250 329 250 329 235.5 314.5 c 128,-1,24
 221 300 221 300 200 300 c 128,-1,25
100 150 m 128,-1,33
 79 150 79 150 64.5 164.5 c 128,-1,34
 50 179 50 179 50 200 c 128,-1,35
 50 221 50 221 64.5 235.5 c 128,-1,36
 79 250 79 250 100 250 c 128,-1,37
 121 250 121 250 135.5 235.5 c 128,-1,38
 150 221 150 221 150 200 c 128,-1,39
 150 179 150 179 135.5 164.5 c 128,-1,32
 121 150 121 150 100 150 c 128,-1,33
100 0 m 128,-1,41
 79 0 79 0 64.5 14.5 c 128,-1,42
 50 29 50 29 50 50 c 128,-1,43
 50 71 50 71 64.5 85.5 c 128,-1,44
 79 100 79 100 100 100 c 128,-1,45
 121 100 121 100 135.5 85.5 c 128,-1,46
 150 71 150 71 150 50 c 128,-1,47
 150 29 150 29 135.5 14.5 c 128,-1,40
 121 0 121 0 100 0 c 128,-1,41
300 0 m 128,-1,49
 279 0 279 0 264.5 14.5 c 128,-1,50
 250 29 250 29 250 50 c 128,-1,51
 250 71 250 71 264.5 85.5 c 128,-1,52
 279 100 279 100 300 100 c 128,-1,53
 321 100 321 100 335.5 85.5 c 128,-1,54
 350 71 350 71 350 50 c 128,-1,55
 350 29 350 29 335.5 14.5 c 128,-1,48
 321 0 321 0 300 0 c 128,-1,49
EndSplineSet
EndChar

StartChar: ampersand
Encoding: 38 38 9
Width: 400
GlyphClass: 1
Flags: W
LayerCount: 2
Fore
SplineSet
200 600 m 128,-1,1
 179 600 179 600 164.5 614.5 c 128,-1,2
 150 629 150 629 150 650 c 128,-1,3
 150 671 150 671 164.5 685.5 c 128,-1,4
 179 700 179 700 200 700 c 128,-1,5
 221 700 221 700 235.5 685.5 c 128,-1,6
 250 671 250 671 250 650 c 128,-1,7
 250 629 250 629 235.5 614.5 c 128,-1,0
 221 600 221 600 200 600 c 128,-1,1
300 600 m 128,-1,9
 279 600 279 600 264.5 614.5 c 128,-1,10
 250 629 250 629 250 650 c 128,-1,11
 250 671 250 671 264.5 685.5 c 128,-1,12
 279 700 279 700 300 700 c 128,-1,13
 321 700 321 700 335.5 685.5 c 128,-1,14
 350 671 350 671 350 650 c 128,-1,15
 350 629 350 629 335.5 614.5 c 128,-1,8
 321 600 321 600 300 600 c 128,-1,9
100 450 m 128,-1,17
 79 450 79 450 64.5 464.5 c 128,-1,18
 50 479 50 479 50 500 c 128,-1,19
 50 521 50 521 64.5 535.5 c 128,-1,20
 79 550 79 550 100 550 c 128,-1,21
 121 550 121 550 135.5 535.5 c 128,-1,22
 150 521 150 521 150 500 c 128,-1,23
 150 479 150 479 135.5 464.5 c 128,-1,16
 121 450 121 450 100 450 c 128,-1,17
200 300 m 128,-1,25
 179 300 179 300 164.5 314.5 c 128,-1,26
 150 329 150 329 150 350 c 128,-1,27
 150 371 150 371 164.5 385.5 c 128,-1,28
 179 400 179 400 200 400 c 128,-1,29
 221 400 221 400 235.5 385.5 c 128,-1,30
 250 371 250 371 250 350 c 128,-1,31
 250 329 250 329 235.5 314.5 c 128,-1,24
 221 300 221 300 200 300 c 128,-1,25
300 300 m 128,-1,33
 279 300 279 300 264.5 314.5 c 128,-1,34
 250 329 250 329 250 350 c 128,-1,35
 250 371 250 371 264.5 385.5 c 128,-1,36
 279 400 279 400 300 400 c 128,-1,37
 321 400 321 400 335.5 385.5 c 128,-1,38
 350 371 350 371 350 350 c 128,-1,39
 350 329 350 329 335.5 314.5 c 128,-1,32
 321 300 321 300 300 300 c 128,-1,33
100 150 m 128,-1,41
 79 150 79 150 64.5 164.5 c 128,-1,42
 50 179 50 179 50 200 c 128,-1,43
 50 221 50 221 64.5 235.5 c 128,-1,44
 79 250 79 250 100 250 c 128,-1,45
 121 250 121 250 135.5 235.5 c 128,-1,46
 150 221 150 221 150 200 c 128,-1,47
 150 179 150 179 135.5 164.5 c 128,-1,40
 121 150 121 150 100 150 c 128,-1,41
300 150 m 128,-1,49
 279 150 279 150 264.5 164.5 c 128,-1,50
 250 179 250 179 250 200 c 128,-1,51
 250 221 250 221 264.5 235.5 c 128,-1,52
 279 250 279 250 300 250 c 128,-1,53
 321 250 321 250 335.5 235.5 c 128,-1,54
 350 221 350 221 350 200 c 128,-1,55
 350 179 350 179 335.5 164.5 c 128,-1,48
 321 150 321 150 300 150 c 128,-1,49
200 0 m 128,-1,57
 179 0 179 0 164.5 14.5 c 128,-1,58
 150 29 150 29 150 50 c 128,-1,59
 150 71 150 71 164.5 85.5 c 128,-1,60
 179 100 179 100 200 100 c 128,-1,61
 221 100 221 100 235.5 85.5 c 128,-1,62
 250 71 250 71 250 50 c 128,-1,63
 250 29 250 29 235.5 14.5 c 128,-1,56
 221 0 221 0 200 0 c 128,-1,57
300 0 m 128,-1,65
 279 0 279 0 264.5 14.5 c 128,-1,66
 250 29 250 29 250 50 c 128,-1,67
 250 71 250 71 264.5 85.5 c 128,-1,68
 279 100 279 100 300 100 c 128,-1,69
 321 100 321 100 335.5 85.5 c 128,-1,70
 350 71 350 71 350 50 c 128,-1,71
 350 29 350 29 335.5 14.5 c 128,-1,64
 321 0 321 0 300 0 c 128,-1,65
EndSplineSet
EndChar

StartChar: quotesingle
Encoding: 39 39 10
Width: 200
GlyphClass: 1
Flags: W
LayerCount: 2
Fore
SplineSet
100 600 m 128,-1,1
 79 600 79 600 64.5 614.5 c 128,-1,2
 50 629 50 629 50 650 c 128,-1,3
 50 671 50 671 64.5 685.5 c 128,-1,4
 79 700 79 700 100 700 c 128,-1,5
 121 700 121 700 135.5 685.5 c 128,-1,6
 150 671 150 671 150 650 c 128,-1,7
 150 629 150 629 135.5 614.5 c 128,-1,0
 121 600 121 600 100 600 c 128,-1,1
100 450 m 128,-1,9
 79 450 79 450 64.5 464.5 c 128,-1,10
 50 479 50 479 50 500 c 128,-1,11
 50 521 50 521 64.5 535.5 c 128,-1,12
 79 550 79 550 100 550 c 128,-1,13
 121 550 121 550 135.5 535.5 c 128,-1,14
 150 521 150 521 150 500 c 128,-1,15
 150 479 150 479 135.5 464.5 c 128,-1,8
 121 450 121 450 100 450 c 128,-1,9
100 300 m 128,-1,17
 79 300 79 300 64.5 314.5 c 128,-1,18
 50 329 50 329 50 350 c 128,-1,19
 50 371 50 371 64.5 385.5 c 128,-1,20
 79 400 79 400 100 400 c 128,-1,21
 121 400 121 400 135.5 385.5 c 128,-1,22
 150 371 150 371 150 350 c 128,-1,23
 150 329 150 329 135.5 314.5 c 128,-1,16
 121 300 121 300 100 300 c 128,-1,17
EndSplineSet
EndChar

StartChar: parenleft
Encoding: 40 40 11
Width: 400
GlyphClass: 1
Flags: W
LayerCount: 2
Fore
SplineSet
200 600 m 128,-1,1
 179 600 179 600 164.5 614.5 c 128,-1,2
 150 629 150 629 150 650 c 128,-1,3
 150 671 150 671 164.5 685.5 c 128,-1,4
 179 700 179 700 200 700 c 128,-1,5
 221 700 221 700 235.5 685.5 c 128,-1,6
 250 671 250 671 250 650 c 128,-1,7
 250 629 250 629 235.5 614.5 c 128,-1,0
 221 600 221 600 200 600 c 128,-1,1
300 600 m 128,-1,9
 279 600 279 600 264.5 614.5 c 128,-1,10
 250 629 250 629 250 650 c 128,-1,11
 250 671 250 671 264.5 685.5 c 128,-1,12
 279 700 279 700 300 700 c 128,-1,13
 321 700 321 700 335.5 685.5 c 128,-1,14
 350 671 350 671 350 650 c 128,-1,15
 350 629 350 629 335.5 614.5 c 128,-1,8
 321 600 321 600 300 600 c 128,-1,9
100 450 m 128,-1,17
 79 450 79 450 64.5 464.5 c 128,-1,18
 50 479 50 479 50 500 c 128,-1,19
 50 521 50 521 64.5 535.5 c 128,-1,20
 79 550 79 550 100 550 c 128,-1,21
 121 550 121 550 135.5 535.5 c 128,-1,22
 150 521 150 521 150 500 c 128,-1,23
 150 479 150 479 135.5 464.5 c 128,-1,16
 121 450 121 450 100 450 c 128,-1,17
100 300 m 128,-1,25
 79 300 79 300 64.5 314.5 c 128,-1,26
 50 329 50 329 50 350 c 128,-1,27
 50 371 50 371 64.5 385.5 c 128,-1,28
 79 400 79 400 100 400 c 128,-1,29
 121 400 121 400 135.5 385.5 c 128,-1,30
 150 371 150 371 150 350 c 128,-1,31
 150 329 150 329 135.5 314.5 c 128,-1,24
 121 300 121 300 100 300 c 128,-1,25
100 150 m 128,-1,33
 79 150 79 150 64.5 164.5 c 128,-1,34
 50 179 50 179 50 200 c 128,-1,35
 50 221 50 221 64.5 235.5 c 128,-1,36
 79 250 79 250 100 250 c 128,-1,37
 121 250 121 250 135.5 235.5 c 128,-1,38
 150 221 150 221 150 200 c 128,-1,39
 150 179 150 179 135.5 164.5 c 128,-1,32
 121 150 121 150 100 150 c 128,-1,33
100 0 m 128,-1,41
 79 0 79 0 64.5 14.5 c 128,-1,42
 50 29 50 29 50 50 c 128,-1,43
 50 71 50 71 64.5 85.5 c 128,-1,44
 79 100 79 100 100 100 c 128,-1,45
 121 100 121 100 135.5 85.5 c 128,-1,46
 150 71 150 71 150 50 c 128,-1,47
 150 29 150 29 135.5 14.5 c 128,-1,40
 121 0 121 0 100 0 c 128,-1,41
200 -150 m 128,-1,49
 179 -150 179 -150 164.5 -135.5 c 128,-1,50
 150 -121 150 -121 150 -100 c 128,-1,51
 150 -79 150 -79 164.5 -64.5 c 128,-1,52
 179 -50 179 -50 200 -50 c 128,-1,53
 221 -50 221 -50 235.5 -64.5 c 128,-1,54
 250 -79 250 -79 250 -100 c 128,-1,55
 250 -121 250 -121 235.5 -135.5 c 128,-1,48
 221 -150 221 -150 200 -150 c 128,-1,49
300 -150 m 128,-1,57
 279 -150 279 -150 264.5 -135.5 c 128,-1,58
 250 -121 250 -121 250 -100 c 128,-1,59
 250 -79 250 -79 264.5 -64.5 c 128,-1,60
 279 -50 279 -50 300 -50 c 128,-1,61
 321 -50 321 -50 335.5 -64.5 c 128,-1,62
 350 -79 350 -79 350 -100 c 128,-1,63
 350 -121 350 -121 335.5 -135.5 c 128,-1,56
 321 -150 321 -150 300 -150 c 128,-1,57
EndSplineSet
Substitution2: "'rtla' Alternative da destra a sinistra lookup 0 subtable" parenright
EndChar

StartChar: parenright
Encoding: 41 41 12
Width: 400
GlyphClass: 1
Flags: W
LayerCount: 2
Fore
SplineSet
100 600 m 128,-1,1
 79 600 79 600 64.5 614.5 c 128,-1,2
 50 629 50 629 50 650 c 128,-1,3
 50 671 50 671 64.5 685.5 c 128,-1,4
 79 700 79 700 100 700 c 128,-1,5
 121 700 121 700 135.5 685.5 c 128,-1,6
 150 671 150 671 150 650 c 128,-1,7
 150 629 150 629 135.5 614.5 c 128,-1,0
 121 600 121 600 100 600 c 128,-1,1
200 600 m 128,-1,9
 179 600 179 600 164.5 614.5 c 128,-1,10
 150 629 150 629 150 650 c 128,-1,11
 150 671 150 671 164.5 685.5 c 128,-1,12
 179 700 179 700 200 700 c 128,-1,13
 221 700 221 700 235.5 685.5 c 128,-1,14
 250 671 250 671 250 650 c 128,-1,15
 250 629 250 629 235.5 614.5 c 128,-1,8
 221 600 221 600 200 600 c 128,-1,9
300 450 m 128,-1,17
 279 450 279 450 264.5 464.5 c 128,-1,18
 250 479 250 479 250 500 c 128,-1,19
 250 521 250 521 264.5 535.5 c 128,-1,20
 279 550 279 550 300 550 c 128,-1,21
 321 550 321 550 335.5 535.5 c 128,-1,22
 350 521 350 521 350 500 c 128,-1,23
 350 479 350 479 335.5 464.5 c 128,-1,16
 321 450 321 450 300 450 c 128,-1,17
300 300 m 128,-1,25
 279 300 279 300 264.5 314.5 c 128,-1,26
 250 329 250 329 250 350 c 128,-1,27
 250 371 250 371 264.5 385.5 c 128,-1,28
 279 400 279 400 300 400 c 128,-1,29
 321 400 321 400 335.5 385.5 c 128,-1,30
 350 371 350 371 350 350 c 128,-1,31
 350 329 350 329 335.5 314.5 c 128,-1,24
 321 300 321 300 300 300 c 128,-1,25
300 150 m 128,-1,33
 279 150 279 150 264.5 164.5 c 128,-1,34
 250 179 250 179 250 200 c 128,-1,35
 250 221 250 221 264.5 235.5 c 128,-1,36
 279 250 279 250 300 250 c 128,-1,37
 321 250 321 250 335.5 235.5 c 128,-1,38
 350 221 350 221 350 200 c 128,-1,39
 350 179 350 179 335.5 164.5 c 128,-1,32
 321 150 321 150 300 150 c 128,-1,33
300 0 m 128,-1,41
 279 0 279 0 264.5 14.5 c 128,-1,42
 250 29 250 29 250 50 c 128,-1,43
 250 71 250 71 264.5 85.5 c 128,-1,44
 279 100 279 100 300 100 c 128,-1,45
 321 100 321 100 335.5 85.5 c 128,-1,46
 350 71 350 71 350 50 c 128,-1,47
 350 29 350 29 335.5 14.5 c 128,-1,40
 321 0 321 0 300 0 c 128,-1,41
100 -150 m 128,-1,49
 79 -150 79 -150 64.5 -135.5 c 128,-1,50
 50 -121 50 -121 50 -100 c 128,-1,51
 50 -79 50 -79 64.5 -64.5 c 128,-1,52
 79 -50 79 -50 100 -50 c 128,-1,53
 121 -50 121 -50 135.5 -64.5 c 128,-1,54
 150 -79 150 -79 150 -100 c 128,-1,55
 150 -121 150 -121 135.5 -135.5 c 128,-1,48
 121 -150 121 -150 100 -150 c 128,-1,49
200 -150 m 128,-1,57
 179 -150 179 -150 164.5 -135.5 c 128,-1,58
 150 -121 150 -121 150 -100 c 128,-1,59
 150 -79 150 -79 164.5 -64.5 c 128,-1,60
 179 -50 179 -50 200 -50 c 128,-1,61
 221 -50 221 -50 235.5 -64.5 c 128,-1,62
 250 -79 250 -79 250 -100 c 128,-1,63
 250 -121 250 -121 235.5 -135.5 c 128,-1,56
 221 -150 221 -150 200 -150 c 128,-1,57
EndSplineSet
Substitution2: "'rtla' Alternative da destra a sinistra lookup 0 subtable" parenleft
EndChar

StartChar: asterisk
Encoding: 42 42 13
Width: 400
GlyphClass: 1
Flags: W
LayerCount: 2
Fore
SplineSet
100 600 m 128,-1,1
 79 600 79 600 64.5 614.5 c 128,-1,2
 50 629 50 629 50 650 c 128,-1,3
 50 671 50 671 64.5 685.5 c 128,-1,4
 79 700 79 700 100 700 c 128,-1,5
 121 700 121 700 135.5 685.5 c 128,-1,6
 150 671 150 671 150 650 c 128,-1,7
 150 629 150 629 135.5 614.5 c 128,-1,0
 121 600 121 600 100 600 c 128,-1,1
300 600 m 128,-1,9
 279 600 279 600 264.5 614.5 c 128,-1,10
 250 629 250 629 250 650 c 128,-1,11
 250 671 250 671 264.5 685.5 c 128,-1,12
 279 700 279 700 300 700 c 128,-1,13
 321 700 321 700 335.5 685.5 c 128,-1,14
 350 671 350 671 350 650 c 128,-1,15
 350 629 350 629 335.5 614.5 c 128,-1,8
 321 600 321 600 300 600 c 128,-1,9
200 450 m 128,-1,17
 179 450 179 450 164.5 464.5 c 128,-1,18
 150 479 150 479 150 500 c 128,-1,19
 150 521 150 521 164.5 535.5 c 128,-1,20
 179 550 179 550 200 550 c 128,-1,21
 221 550 221 550 235.5 535.5 c 128,-1,22
 250 521 250 521 250 500 c 128,-1,23
 250 479 250 479 235.5 464.5 c 128,-1,16
 221 450 221 450 200 450 c 128,-1,17
100 300 m 128,-1,25
 79 300 79 300 64.5 314.5 c 128,-1,26
 50 329 50 329 50 350 c 128,-1,27
 50 371 50 371 64.5 385.5 c 128,-1,28
 79 400 79 400 100 400 c 128,-1,29
 121 400 121 400 135.5 385.5 c 128,-1,30
 150 371 150 371 150 350 c 128,-1,31
 150 329 150 329 135.5 314.5 c 128,-1,24
 121 300 121 300 100 300 c 128,-1,25
300 300 m 128,-1,33
 279 300 279 300 264.5 314.5 c 128,-1,34
 250 329 250 329 250 350 c 128,-1,35
 250 371 250 371 264.5 385.5 c 128,-1,36
 279 400 279 400 300 400 c 128,-1,37
 321 400 321 400 335.5 385.5 c 128,-1,38
 350 371 350 371 350 350 c 128,-1,39
 350 329 350 329 335.5 314.5 c 128,-1,32
 321 300 321 300 300 300 c 128,-1,33
EndSplineSet
EndChar

StartChar: plus
Encoding: 43 43 14
Width: 400
GlyphClass: 1
Flags: W
LayerCount: 2
Fore
SplineSet
200 450 m 128,-1,1
 179 450 179 450 164.5 464.5 c 128,-1,2
 150 479 150 479 150 500 c 128,-1,3
 150 521 150 521 164.5 535.5 c 128,-1,4
 179 550 179 550 200 550 c 128,-1,5
 221 550 221 550 235.5 535.5 c 128,-1,6
 250 521 250 521 250 500 c 128,-1,7
 250 479 250 479 235.5 464.5 c 128,-1,0
 221 450 221 450 200 450 c 128,-1,1
100 300 m 128,-1,9
 79 300 79 300 64.5 314.5 c 128,-1,10
 50 329 50 329 50 350 c 128,-1,11
 50 371 50 371 64.5 385.5 c 128,-1,12
 79 400 79 400 100 400 c 128,-1,13
 121 400 121 400 135.5 385.5 c 128,-1,14
 150 371 150 371 150 350 c 128,-1,15
 150 329 150 329 135.5 314.5 c 128,-1,8
 121 300 121 300 100 300 c 128,-1,9
200 300 m 128,-1,17
 179 300 179 300 164.5 314.5 c 128,-1,18
 150 329 150 329 150 350 c 128,-1,19
 150 371 150 371 164.5 385.5 c 128,-1,20
 179 400 179 400 200 400 c 128,-1,21
 221 400 221 400 235.5 385.5 c 128,-1,22
 250 371 250 371 250 350 c 128,-1,23
 250 329 250 329 235.5 314.5 c 128,-1,16
 221 300 221 300 200 300 c 128,-1,17
300 300 m 128,-1,25
 279 300 279 300 264.5 314.5 c 128,-1,26
 250 329 250 329 250 350 c 128,-1,27
 250 371 250 371 264.5 385.5 c 128,-1,28
 279 400 279 400 300 400 c 128,-1,29
 321 400 321 400 335.5 385.5 c 128,-1,30
 350 371 350 371 350 350 c 128,-1,31
 350 329 350 329 335.5 314.5 c 128,-1,24
 321 300 321 300 300 300 c 128,-1,25
200 150 m 128,-1,33
 179 150 179 150 164.5 164.5 c 128,-1,34
 150 179 150 179 150 200 c 128,-1,35
 150 221 150 221 164.5 235.5 c 128,-1,36
 179 250 179 250 200 250 c 128,-1,37
 221 250 221 250 235.5 235.5 c 128,-1,38
 250 221 250 221 250 200 c 128,-1,39
 250 179 250 179 235.5 164.5 c 128,-1,32
 221 150 221 150 200 150 c 128,-1,33
EndSplineSet
EndChar

StartChar: comma
Encoding: 44 44 15
Width: 300
GlyphClass: 1
Flags: W
LayerCount: 2
Fore
SplineSet
200 150 m 128,-1,1
 179 150 179 150 164.5 164.5 c 128,-1,2
 150 179 150 179 150 200 c 128,-1,3
 150 221 150 221 164.5 235.5 c 128,-1,4
 179 250 179 250 200 250 c 128,-1,5
 221 250 221 250 235.5 235.5 c 128,-1,6
 250 221 250 221 250 200 c 128,-1,7
 250 179 250 179 235.5 164.5 c 128,-1,0
 221 150 221 150 200 150 c 128,-1,1
200 0 m 128,-1,9
 179 0 179 0 164.5 14.5 c 128,-1,10
 150 29 150 29 150 50 c 128,-1,11
 150 71 150 71 164.5 85.5 c 128,-1,12
 179 100 179 100 200 100 c 128,-1,13
 221 100 221 100 235.5 85.5 c 128,-1,14
 250 71 250 71 250 50 c 128,-1,15
 250 29 250 29 235.5 14.5 c 128,-1,8
 221 0 221 0 200 0 c 128,-1,9
100 -150 m 128,-1,17
 79 -150 79 -150 64.5 -135.5 c 128,-1,18
 50 -121 50 -121 50 -100 c 128,-1,19
 50 -79 50 -79 64.5 -64.5 c 128,-1,20
 79 -50 79 -50 100 -50 c 128,-1,21
 121 -50 121 -50 135.5 -64.5 c 128,-1,22
 150 -79 150 -79 150 -100 c 128,-1,23
 150 -121 150 -121 135.5 -135.5 c 128,-1,16
 121 -150 121 -150 100 -150 c 128,-1,17
EndSplineSet
EndChar

StartChar: hyphen
Encoding: 45 45 16
Width: 400
GlyphClass: 1
Flags: W
LayerCount: 2
Fore
SplineSet
100 300 m 128,-1,1
 79 300 79 300 64.5 314.5 c 128,-1,2
 50 329 50 329 50 350 c 128,-1,3
 50 371 50 371 64.5 385.5 c 128,-1,4
 79 400 79 400 100 400 c 128,-1,5
 121 400 121 400 135.5 385.5 c 128,-1,6
 150 371 150 371 150 350 c 128,-1,7
 150 329 150 329 135.5 314.5 c 128,-1,0
 121 300 121 300 100 300 c 128,-1,1
200 300 m 128,-1,9
 179 300 179 300 164.5 314.5 c 128,-1,10
 150 329 150 329 150 350 c 128,-1,11
 150 371 150 371 164.5 385.5 c 128,-1,12
 179 400 179 400 200 400 c 128,-1,13
 221 400 221 400 235.5 385.5 c 128,-1,14
 250 371 250 371 250 350 c 128,-1,15
 250 329 250 329 235.5 314.5 c 128,-1,8
 221 300 221 300 200 300 c 128,-1,9
300 300 m 128,-1,17
 279 300 279 300 264.5 314.5 c 128,-1,18
 250 329 250 329 250 350 c 128,-1,19
 250 371 250 371 264.5 385.5 c 128,-1,20
 279 400 279 400 300 400 c 128,-1,21
 321 400 321 400 335.5 385.5 c 128,-1,22
 350 371 350 371 350 350 c 128,-1,23
 350 329 350 329 335.5 314.5 c 128,-1,16
 321 300 321 300 300 300 c 128,-1,17
EndSplineSet
EndChar

StartChar: period
Encoding: 46 46 17
Width: 200
GlyphClass: 1
Flags: W
LayerCount: 2
Fore
SplineSet
100 150 m 128,-1,1
 79 150 79 150 64.5 164.5 c 128,-1,2
 50 179 50 179 50 200 c 128,-1,3
 50 221 50 221 64.5 235.5 c 128,-1,4
 79 250 79 250 100 250 c 128,-1,5
 121 250 121 250 135.5 235.5 c 128,-1,6
 150 221 150 221 150 200 c 128,-1,7
 150 179 150 179 135.5 164.5 c 128,-1,0
 121 150 121 150 100 150 c 128,-1,1
100 0 m 128,-1,9
 79 0 79 0 64.5 14.5 c 128,-1,10
 50 29 50 29 50 50 c 128,-1,11
 50 71 50 71 64.5 85.5 c 128,-1,12
 79 100 79 100 100 100 c 128,-1,13
 121 100 121 100 135.5 85.5 c 128,-1,14
 150 71 150 71 150 50 c 128,-1,15
 150 29 150 29 135.5 14.5 c 128,-1,8
 121 0 121 0 100 0 c 128,-1,9
EndSplineSet
EndChar

StartChar: slash
Encoding: 47 47 18
Width: 400
GlyphClass: 1
Flags: W
LayerCount: 2
Fore
SplineSet
300 450 m 128,-1,1
 279 450 279 450 264.5 464.5 c 128,-1,2
 250 479 250 479 250 500 c 128,-1,3
 250 521 250 521 264.5 535.5 c 128,-1,4
 279 550 279 550 300 550 c 128,-1,5
 321 550 321 550 335.5 535.5 c 128,-1,6
 350 521 350 521 350 500 c 128,-1,7
 350 479 350 479 335.5 464.5 c 128,-1,0
 321 450 321 450 300 450 c 128,-1,1
200 300 m 128,-1,9
 179 300 179 300 164.5 314.5 c 128,-1,10
 150 329 150 329 150 350 c 128,-1,11
 150 371 150 371 164.5 385.5 c 128,-1,12
 179 400 179 400 200 400 c 128,-1,13
 221 400 221 400 235.5 385.5 c 128,-1,14
 250 371 250 371 250 350 c 128,-1,15
 250 329 250 329 235.5 314.5 c 128,-1,8
 221 300 221 300 200 300 c 128,-1,9
100 150 m 128,-1,17
 79 150 79 150 64.5 164.5 c 128,-1,18
 50 179 50 179 50 200 c 128,-1,19
 50 221 50 221 64.5 235.5 c 128,-1,20
 79 250 79 250 100 250 c 128,-1,21
 121 250 121 250 135.5 235.5 c 128,-1,22
 150 221 150 221 150 200 c 128,-1,23
 150 179 150 179 135.5 164.5 c 128,-1,16
 121 150 121 150 100 150 c 128,-1,17
EndSplineSet
Substitution2: "<11,2> Diagonal Fractions lookup 1 subtable" fraction
EndChar

StartChar: zero
Encoding: 48 48 19
Width: 400
GlyphClass: 1
Flags: W
LayerCount: 2
Fore
SplineSet
200 600 m 128,-1,1
 179 600 179 600 164.5 614.5 c 128,-1,2
 150 629 150 629 150 650 c 128,-1,3
 150 671 150 671 164.5 685.5 c 128,-1,4
 179 700 179 700 200 700 c 128,-1,5
 221 700 221 700 235.5 685.5 c 128,-1,6
 250 671 250 671 250 650 c 128,-1,7
 250 629 250 629 235.5 614.5 c 128,-1,0
 221 600 221 600 200 600 c 128,-1,1
100 450 m 128,-1,9
 79 450 79 450 64.5 464.5 c 128,-1,10
 50 479 50 479 50 500 c 128,-1,11
 50 521 50 521 64.5 535.5 c 128,-1,12
 79 550 79 550 100 550 c 128,-1,13
 121 550 121 550 135.5 535.5 c 128,-1,14
 150 521 150 521 150 500 c 128,-1,15
 150 479 150 479 135.5 464.5 c 128,-1,8
 121 450 121 450 100 450 c 128,-1,9
300 450 m 128,-1,17
 279 450 279 450 264.5 464.5 c 128,-1,18
 250 479 250 479 250 500 c 128,-1,19
 250 521 250 521 264.5 535.5 c 128,-1,20
 279 550 279 550 300 550 c 128,-1,21
 321 550 321 550 335.5 535.5 c 128,-1,22
 350 521 350 521 350 500 c 128,-1,23
 350 479 350 479 335.5 464.5 c 128,-1,16
 321 450 321 450 300 450 c 128,-1,17
100 300 m 128,-1,25
 79 300 79 300 64.5 314.5 c 128,-1,26
 50 329 50 329 50 350 c 128,-1,27
 50 371 50 371 64.5 385.5 c 128,-1,28
 79 400 79 400 100 400 c 128,-1,29
 121 400 121 400 135.5 385.5 c 128,-1,30
 150 371 150 371 150 350 c 128,-1,31
 150 329 150 329 135.5 314.5 c 128,-1,24
 121 300 121 300 100 300 c 128,-1,25
200 300 m 128,-1,33
 179 300 179 300 164.5 314.5 c 128,-1,34
 150 329 150 329 150 350 c 128,-1,35
 150 371 150 371 164.5 385.5 c 128,-1,36
 179 400 179 400 200 400 c 128,-1,37
 221 400 221 400 235.5 385.5 c 128,-1,38
 250 371 250 371 250 350 c 128,-1,39
 250 329 250 329 235.5 314.5 c 128,-1,32
 221 300 221 300 200 300 c 128,-1,33
300 300 m 128,-1,41
 279 300 279 300 264.5 314.5 c 128,-1,42
 250 329 250 329 250 350 c 128,-1,43
 250 371 250 371 264.5 385.5 c 128,-1,44
 279 400 279 400 300 400 c 128,-1,45
 321 400 321 400 335.5 385.5 c 128,-1,46
 350 371 350 371 350 350 c 128,-1,47
 350 329 350 329 335.5 314.5 c 128,-1,40
 321 300 321 300 300 300 c 128,-1,41
100 150 m 128,-1,49
 79 150 79 150 64.5 164.5 c 128,-1,50
 50 179 50 179 50 200 c 128,-1,51
 50 221 50 221 64.5 235.5 c 128,-1,52
 79 250 79 250 100 250 c 128,-1,53
 121 250 121 250 135.5 235.5 c 128,-1,54
 150 221 150 221 150 200 c 128,-1,55
 150 179 150 179 135.5 164.5 c 128,-1,48
 121 150 121 150 100 150 c 128,-1,49
300 150 m 128,-1,57
 279 150 279 150 264.5 164.5 c 128,-1,58
 250 179 250 179 250 200 c 128,-1,59
 250 221 250 221 264.5 235.5 c 128,-1,60
 279 250 279 250 300 250 c 128,-1,61
 321 250 321 250 335.5 235.5 c 128,-1,62
 350 221 350 221 350 200 c 128,-1,63
 350 179 350 179 335.5 164.5 c 128,-1,56
 321 150 321 150 300 150 c 128,-1,57
200 0 m 128,-1,65
 179 0 179 0 164.5 14.5 c 128,-1,66
 150 29 150 29 150 50 c 128,-1,67
 150 71 150 71 164.5 85.5 c 128,-1,68
 179 100 179 100 200 100 c 128,-1,69
 221 100 221 100 235.5 85.5 c 128,-1,70
 250 71 250 71 250 50 c 128,-1,71
 250 29 250 29 235.5 14.5 c 128,-1,64
 221 0 221 0 200 0 c 128,-1,65
EndSplineSet
Substitution2: "<11,2> Diagonal Fractions lookup 2 subtable" zero.numr
EndChar

StartChar: one
Encoding: 49 49 20
Width: 400
GlyphClass: 1
Flags: W
LayerCount: 2
Fore
SplineSet
100 600 m 128,-1,1
 79 600 79 600 64.5 614.5 c 128,-1,2
 50 629 50 629 50 650 c 128,-1,3
 50 671 50 671 64.5 685.5 c 128,-1,4
 79 700 79 700 100 700 c 128,-1,5
 121 700 121 700 135.5 685.5 c 128,-1,6
 150 671 150 671 150 650 c 128,-1,7
 150 629 150 629 135.5 614.5 c 128,-1,0
 121 600 121 600 100 600 c 128,-1,1
200 600 m 128,-1,9
 179 600 179 600 164.5 614.5 c 128,-1,10
 150 629 150 629 150 650 c 128,-1,11
 150 671 150 671 164.5 685.5 c 128,-1,12
 179 700 179 700 200 700 c 128,-1,13
 221 700 221 700 235.5 685.5 c 128,-1,14
 250 671 250 671 250 650 c 128,-1,15
 250 629 250 629 235.5 614.5 c 128,-1,8
 221 600 221 600 200 600 c 128,-1,9
200 450 m 128,-1,17
 179 450 179 450 164.5 464.5 c 128,-1,18
 150 479 150 479 150 500 c 128,-1,19
 150 521 150 521 164.5 535.5 c 128,-1,20
 179 550 179 550 200 550 c 128,-1,21
 221 550 221 550 235.5 535.5 c 128,-1,22
 250 521 250 521 250 500 c 128,-1,23
 250 479 250 479 235.5 464.5 c 128,-1,16
 221 450 221 450 200 450 c 128,-1,17
200 300 m 128,-1,25
 179 300 179 300 164.5 314.5 c 128,-1,26
 150 329 150 329 150 350 c 128,-1,27
 150 371 150 371 164.5 385.5 c 128,-1,28
 179 400 179 400 200 400 c 128,-1,29
 221 400 221 400 235.5 385.5 c 128,-1,30
 250 371 250 371 250 350 c 128,-1,31
 250 329 250 329 235.5 314.5 c 128,-1,24
 221 300 221 300 200 300 c 128,-1,25
200 150 m 128,-1,33
 179 150 179 150 164.5 164.5 c 128,-1,34
 150 179 150 179 150 200 c 128,-1,35
 150 221 150 221 164.5 235.5 c 128,-1,36
 179 250 179 250 200 250 c 128,-1,37
 221 250 221 250 235.5 235.5 c 128,-1,38
 250 221 250 221 250 200 c 128,-1,39
 250 179 250 179 235.5 164.5 c 128,-1,32
 221 150 221 150 200 150 c 128,-1,33
100 0 m 128,-1,41
 79 0 79 0 64.5 14.5 c 128,-1,42
 50 29 50 29 50 50 c 128,-1,43
 50 71 50 71 64.5 85.5 c 128,-1,44
 79 100 79 100 100 100 c 128,-1,45
 121 100 121 100 135.5 85.5 c 128,-1,46
 150 71 150 71 150 50 c 128,-1,47
 150 29 150 29 135.5 14.5 c 128,-1,40
 121 0 121 0 100 0 c 128,-1,41
200 0 m 128,-1,49
 179 0 179 0 164.5 14.5 c 128,-1,50
 150 29 150 29 150 50 c 128,-1,51
 150 71 150 71 164.5 85.5 c 128,-1,52
 179 100 179 100 200 100 c 128,-1,53
 221 100 221 100 235.5 85.5 c 128,-1,54
 250 71 250 71 250 50 c 128,-1,55
 250 29 250 29 235.5 14.5 c 128,-1,48
 221 0 221 0 200 0 c 128,-1,49
300 0 m 128,-1,57
 279 0 279 0 264.5 14.5 c 128,-1,58
 250 29 250 29 250 50 c 128,-1,59
 250 71 250 71 264.5 85.5 c 128,-1,60
 279 100 279 100 300 100 c 128,-1,61
 321 100 321 100 335.5 85.5 c 128,-1,62
 350 71 350 71 350 50 c 128,-1,63
 350 29 350 29 335.5 14.5 c 128,-1,56
 321 0 321 0 300 0 c 128,-1,57
EndSplineSet
Substitution2: "<11,2> Diagonal Fractions lookup 2 subtable" one.numr
EndChar

StartChar: two
Encoding: 50 50 21
Width: 400
GlyphClass: 1
Flags: W
LayerCount: 2
Fore
SplineSet
100 600 m 128,-1,1
 79 600 79 600 64.5 614.5 c 128,-1,2
 50 629 50 629 50 650 c 128,-1,3
 50 671 50 671 64.5 685.5 c 128,-1,4
 79 700 79 700 100 700 c 128,-1,5
 121 700 121 700 135.5 685.5 c 128,-1,6
 150 671 150 671 150 650 c 128,-1,7
 150 629 150 629 135.5 614.5 c 128,-1,0
 121 600 121 600 100 600 c 128,-1,1
200 600 m 128,-1,9
 179 600 179 600 164.5 614.5 c 128,-1,10
 150 629 150 629 150 650 c 128,-1,11
 150 671 150 671 164.5 685.5 c 128,-1,12
 179 700 179 700 200 700 c 128,-1,13
 221 700 221 700 235.5 685.5 c 128,-1,14
 250 671 250 671 250 650 c 128,-1,15
 250 629 250 629 235.5 614.5 c 128,-1,8
 221 600 221 600 200 600 c 128,-1,9
300 450 m 128,-1,17
 279 450 279 450 264.5 464.5 c 128,-1,18
 250 479 250 479 250 500 c 128,-1,19
 250 521 250 521 264.5 535.5 c 128,-1,20
 279 550 279 550 300 550 c 128,-1,21
 321 550 321 550 335.5 535.5 c 128,-1,22
 350 521 350 521 350 500 c 128,-1,23
 350 479 350 479 335.5 464.5 c 128,-1,16
 321 450 321 450 300 450 c 128,-1,17
200 300 m 128,-1,25
 179 300 179 300 164.5 314.5 c 128,-1,26
 150 329 150 329 150 350 c 128,-1,27
 150 371 150 371 164.5 385.5 c 128,-1,28
 179 400 179 400 200 400 c 128,-1,29
 221 400 221 400 235.5 385.5 c 128,-1,30
 250 371 250 371 250 350 c 128,-1,31
 250 329 250 329 235.5 314.5 c 128,-1,24
 221 300 221 300 200 300 c 128,-1,25
100 150 m 128,-1,33
 79 150 79 150 64.5 164.5 c 128,-1,34
 50 179 50 179 50 200 c 128,-1,35
 50 221 50 221 64.5 235.5 c 128,-1,36
 79 250 79 250 100 250 c 128,-1,37
 121 250 121 250 135.5 235.5 c 128,-1,38
 150 221 150 221 150 200 c 128,-1,39
 150 179 150 179 135.5 164.5 c 128,-1,32
 121 150 121 150 100 150 c 128,-1,33
100 0 m 128,-1,41
 79 0 79 0 64.5 14.5 c 128,-1,42
 50 29 50 29 50 50 c 128,-1,43
 50 71 50 71 64.5 85.5 c 128,-1,44
 79 100 79 100 100 100 c 128,-1,45
 121 100 121 100 135.5 85.5 c 128,-1,46
 150 71 150 71 150 50 c 128,-1,47
 150 29 150 29 135.5 14.5 c 128,-1,40
 121 0 121 0 100 0 c 128,-1,41
200 0 m 128,-1,49
 179 0 179 0 164.5 14.5 c 128,-1,50
 150 29 150 29 150 50 c 128,-1,51
 150 71 150 71 164.5 85.5 c 128,-1,52
 179 100 179 100 200 100 c 128,-1,53
 221 100 221 100 235.5 85.5 c 128,-1,54
 250 71 250 71 250 50 c 128,-1,55
 250 29 250 29 235.5 14.5 c 128,-1,48
 221 0 221 0 200 0 c 128,-1,49
300 0 m 128,-1,57
 279 0 279 0 264.5 14.5 c 128,-1,58
 250 29 250 29 250 50 c 128,-1,59
 250 71 250 71 264.5 85.5 c 128,-1,60
 279 100 279 100 300 100 c 128,-1,61
 321 100 321 100 335.5 85.5 c 128,-1,62
 350 71 350 71 350 50 c 128,-1,63
 350 29 350 29 335.5 14.5 c 128,-1,56
 321 0 321 0 300 0 c 128,-1,57
EndSplineSet
Substitution2: "<11,2> Diagonal Fractions lookup 2 subtable" two.numr
EndChar

StartChar: three
Encoding: 51 51 22
Width: 400
GlyphClass: 1
Flags: W
LayerCount: 2
Fore
SplineSet
100 600 m 128,-1,1
 79 600 79 600 64.5 614.5 c 128,-1,2
 50 629 50 629 50 650 c 128,-1,3
 50 671 50 671 64.5 685.5 c 128,-1,4
 79 700 79 700 100 700 c 128,-1,5
 121 700 121 700 135.5 685.5 c 128,-1,6
 150 671 150 671 150 650 c 128,-1,7
 150 629 150 629 135.5 614.5 c 128,-1,0
 121 600 121 600 100 600 c 128,-1,1
200 600 m 128,-1,9
 179 600 179 600 164.5 614.5 c 128,-1,10
 150 629 150 629 150 650 c 128,-1,11
 150 671 150 671 164.5 685.5 c 128,-1,12
 179 700 179 700 200 700 c 128,-1,13
 221 700 221 700 235.5 685.5 c 128,-1,14
 250 671 250 671 250 650 c 128,-1,15
 250 629 250 629 235.5 614.5 c 128,-1,8
 221 600 221 600 200 600 c 128,-1,9
300 600 m 128,-1,17
 279 600 279 600 264.5 614.5 c 128,-1,18
 250 629 250 629 250 650 c 128,-1,19
 250 671 250 671 264.5 685.5 c 128,-1,20
 279 700 279 700 300 700 c 128,-1,21
 321 700 321 700 335.5 685.5 c 128,-1,22
 350 671 350 671 350 650 c 128,-1,23
 350 629 350 629 335.5 614.5 c 128,-1,16
 321 600 321 600 300 600 c 128,-1,17
300 450 m 128,-1,25
 279 450 279 450 264.5 464.5 c 128,-1,26
 250 479 250 479 250 500 c 128,-1,27
 250 521 250 521 264.5 535.5 c 128,-1,28
 279 550 279 550 300 550 c 128,-1,29
 321 550 321 550 335.5 535.5 c 128,-1,30
 350 521 350 521 350 500 c 128,-1,31
 350 479 350 479 335.5 464.5 c 128,-1,24
 321 450 321 450 300 450 c 128,-1,25
200 300 m 128,-1,33
 179 300 179 300 164.5 314.5 c 128,-1,34
 150 329 150 329 150 350 c 128,-1,35
 150 371 150 371 164.5 385.5 c 128,-1,36
 179 400 179 400 200 400 c 128,-1,37
 221 400 221 400 235.5 385.5 c 128,-1,38
 250 371 250 371 250 350 c 128,-1,39
 250 329 250 329 235.5 314.5 c 128,-1,32
 221 300 221 300 200 300 c 128,-1,33
300 150 m 128,-1,41
 279 150 279 150 264.5 164.5 c 128,-1,42
 250 179 250 179 250 200 c 128,-1,43
 250 221 250 221 264.5 235.5 c 128,-1,44
 279 250 279 250 300 250 c 128,-1,45
 321 250 321 250 335.5 235.5 c 128,-1,46
 350 221 350 221 350 200 c 128,-1,47
 350 179 350 179 335.5 164.5 c 128,-1,40
 321 150 321 150 300 150 c 128,-1,41
100 0 m 128,-1,49
 79 0 79 0 64.5 14.5 c 128,-1,50
 50 29 50 29 50 50 c 128,-1,51
 50 71 50 71 64.5 85.5 c 128,-1,52
 79 100 79 100 100 100 c 128,-1,53
 121 100 121 100 135.5 85.5 c 128,-1,54
 150 71 150 71 150 50 c 128,-1,55
 150 29 150 29 135.5 14.5 c 128,-1,48
 121 0 121 0 100 0 c 128,-1,49
200 0 m 128,-1,57
 179 0 179 0 164.5 14.5 c 128,-1,58
 150 29 150 29 150 50 c 128,-1,59
 150 71 150 71 164.5 85.5 c 128,-1,60
 179 100 179 100 200 100 c 128,-1,61
 221 100 221 100 235.5 85.5 c 128,-1,62
 250 71 250 71 250 50 c 128,-1,63
 250 29 250 29 235.5 14.5 c 128,-1,56
 221 0 221 0 200 0 c 128,-1,57
EndSplineSet
Substitution2: "<11,2> Diagonal Fractions lookup 2 subtable" three.numr
EndChar

StartChar: four
Encoding: 52 52 23
Width: 400
GlyphClass: 1
Flags: W
LayerCount: 2
Fore
SplineSet
300 600 m 128,-1,1
 279 600 279 600 264.5 614.5 c 128,-1,2
 250 629 250 629 250 650 c 128,-1,3
 250 671 250 671 264.5 685.5 c 128,-1,4
 279 700 279 700 300 700 c 128,-1,5
 321 700 321 700 335.5 685.5 c 128,-1,6
 350 671 350 671 350 650 c 128,-1,7
 350 629 350 629 335.5 614.5 c 128,-1,0
 321 600 321 600 300 600 c 128,-1,1
200 450 m 128,-1,9
 179 450 179 450 164.5 464.5 c 128,-1,10
 150 479 150 479 150 500 c 128,-1,11
 150 521 150 521 164.5 535.5 c 128,-1,12
 179 550 179 550 200 550 c 128,-1,13
 221 550 221 550 235.5 535.5 c 128,-1,14
 250 521 250 521 250 500 c 128,-1,15
 250 479 250 479 235.5 464.5 c 128,-1,8
 221 450 221 450 200 450 c 128,-1,9
300 450 m 128,-1,17
 279 450 279 450 264.5 464.5 c 128,-1,18
 250 479 250 479 250 500 c 128,-1,19
 250 521 250 521 264.5 535.5 c 128,-1,20
 279 550 279 550 300 550 c 128,-1,21
 321 550 321 550 335.5 535.5 c 128,-1,22
 350 521 350 521 350 500 c 128,-1,23
 350 479 350 479 335.5 464.5 c 128,-1,16
 321 450 321 450 300 450 c 128,-1,17
100 300 m 128,-1,25
 79 300 79 300 64.5 314.5 c 128,-1,26
 50 329 50 329 50 350 c 128,-1,27
 50 371 50 371 64.5 385.5 c 128,-1,28
 79 400 79 400 100 400 c 128,-1,29
 121 400 121 400 135.5 385.5 c 128,-1,30
 150 371 150 371 150 350 c 128,-1,31
 150 329 150 329 135.5 314.5 c 128,-1,24
 121 300 121 300 100 300 c 128,-1,25
300 300 m 128,-1,33
 279 300 279 300 264.5 314.5 c 128,-1,34
 250 329 250 329 250 350 c 128,-1,35
 250 371 250 371 264.5 385.5 c 128,-1,36
 279 400 279 400 300 400 c 128,-1,37
 321 400 321 400 335.5 385.5 c 128,-1,38
 350 371 350 371 350 350 c 128,-1,39
 350 329 350 329 335.5 314.5 c 128,-1,32
 321 300 321 300 300 300 c 128,-1,33
100 150 m 128,-1,41
 79 150 79 150 64.5 164.5 c 128,-1,42
 50 179 50 179 50 200 c 128,-1,43
 50 221 50 221 64.5 235.5 c 128,-1,44
 79 250 79 250 100 250 c 128,-1,45
 121 250 121 250 135.5 235.5 c 128,-1,46
 150 221 150 221 150 200 c 128,-1,47
 150 179 150 179 135.5 164.5 c 128,-1,40
 121 150 121 150 100 150 c 128,-1,41
200 150 m 128,-1,49
 179 150 179 150 164.5 164.5 c 128,-1,50
 150 179 150 179 150 200 c 128,-1,51
 150 221 150 221 164.5 235.5 c 128,-1,52
 179 250 179 250 200 250 c 128,-1,53
 221 250 221 250 235.5 235.5 c 128,-1,54
 250 221 250 221 250 200 c 128,-1,55
 250 179 250 179 235.5 164.5 c 128,-1,48
 221 150 221 150 200 150 c 128,-1,49
300 150 m 128,-1,57
 279 150 279 150 264.5 164.5 c 128,-1,58
 250 179 250 179 250 200 c 128,-1,59
 250 221 250 221 264.5 235.5 c 128,-1,60
 279 250 279 250 300 250 c 128,-1,61
 321 250 321 250 335.5 235.5 c 128,-1,62
 350 221 350 221 350 200 c 128,-1,63
 350 179 350 179 335.5 164.5 c 128,-1,56
 321 150 321 150 300 150 c 128,-1,57
300 0 m 128,-1,65
 279 0 279 0 264.5 14.5 c 128,-1,66
 250 29 250 29 250 50 c 128,-1,67
 250 71 250 71 264.5 85.5 c 128,-1,68
 279 100 279 100 300 100 c 128,-1,69
 321 100 321 100 335.5 85.5 c 128,-1,70
 350 71 350 71 350 50 c 128,-1,71
 350 29 350 29 335.5 14.5 c 128,-1,64
 321 0 321 0 300 0 c 128,-1,65
EndSplineSet
Substitution2: "<11,2> Diagonal Fractions lookup 2 subtable" four.numr
EndChar

StartChar: five
Encoding: 53 53 24
Width: 400
GlyphClass: 1
Flags: W
LayerCount: 2
Fore
SplineSet
100 600 m 128,-1,1
 79 600 79 600 64.5 614.5 c 128,-1,2
 50 629 50 629 50 650 c 128,-1,3
 50 671 50 671 64.5 685.5 c 128,-1,4
 79 700 79 700 100 700 c 128,-1,5
 121 700 121 700 135.5 685.5 c 128,-1,6
 150 671 150 671 150 650 c 128,-1,7
 150 629 150 629 135.5 614.5 c 128,-1,0
 121 600 121 600 100 600 c 128,-1,1
200 600 m 128,-1,9
 179 600 179 600 164.5 614.5 c 128,-1,10
 150 629 150 629 150 650 c 128,-1,11
 150 671 150 671 164.5 685.5 c 128,-1,12
 179 700 179 700 200 700 c 128,-1,13
 221 700 221 700 235.5 685.5 c 128,-1,14
 250 671 250 671 250 650 c 128,-1,15
 250 629 250 629 235.5 614.5 c 128,-1,8
 221 600 221 600 200 600 c 128,-1,9
300 600 m 128,-1,17
 279 600 279 600 264.5 614.5 c 128,-1,18
 250 629 250 629 250 650 c 128,-1,19
 250 671 250 671 264.5 685.5 c 128,-1,20
 279 700 279 700 300 700 c 128,-1,21
 321 700 321 700 335.5 685.5 c 128,-1,22
 350 671 350 671 350 650 c 128,-1,23
 350 629 350 629 335.5 614.5 c 128,-1,16
 321 600 321 600 300 600 c 128,-1,17
100 450 m 128,-1,25
 79 450 79 450 64.5 464.5 c 128,-1,26
 50 479 50 479 50 500 c 128,-1,27
 50 521 50 521 64.5 535.5 c 128,-1,28
 79 550 79 550 100 550 c 128,-1,29
 121 550 121 550 135.5 535.5 c 128,-1,30
 150 521 150 521 150 500 c 128,-1,31
 150 479 150 479 135.5 464.5 c 128,-1,24
 121 450 121 450 100 450 c 128,-1,25
100 300 m 128,-1,33
 79 300 79 300 64.5 314.5 c 128,-1,34
 50 329 50 329 50 350 c 128,-1,35
 50 371 50 371 64.5 385.5 c 128,-1,36
 79 400 79 400 100 400 c 128,-1,37
 121 400 121 400 135.5 385.5 c 128,-1,38
 150 371 150 371 150 350 c 128,-1,39
 150 329 150 329 135.5 314.5 c 128,-1,32
 121 300 121 300 100 300 c 128,-1,33
200 300 m 128,-1,41
 179 300 179 300 164.5 314.5 c 128,-1,42
 150 329 150 329 150 350 c 128,-1,43
 150 371 150 371 164.5 385.5 c 128,-1,44
 179 400 179 400 200 400 c 128,-1,45
 221 400 221 400 235.5 385.5 c 128,-1,46
 250 371 250 371 250 350 c 128,-1,47
 250 329 250 329 235.5 314.5 c 128,-1,40
 221 300 221 300 200 300 c 128,-1,41
300 150 m 128,-1,49
 279 150 279 150 264.5 164.5 c 128,-1,50
 250 179 250 179 250 200 c 128,-1,51
 250 221 250 221 264.5 235.5 c 128,-1,52
 279 250 279 250 300 250 c 128,-1,53
 321 250 321 250 335.5 235.5 c 128,-1,54
 350 221 350 221 350 200 c 128,-1,55
 350 179 350 179 335.5 164.5 c 128,-1,48
 321 150 321 150 300 150 c 128,-1,49
100 0 m 128,-1,57
 79 0 79 0 64.5 14.5 c 128,-1,58
 50 29 50 29 50 50 c 128,-1,59
 50 71 50 71 64.5 85.5 c 128,-1,60
 79 100 79 100 100 100 c 128,-1,61
 121 100 121 100 135.5 85.5 c 128,-1,62
 150 71 150 71 150 50 c 128,-1,63
 150 29 150 29 135.5 14.5 c 128,-1,56
 121 0 121 0 100 0 c 128,-1,57
200 0 m 128,-1,65
 179 0 179 0 164.5 14.5 c 128,-1,66
 150 29 150 29 150 50 c 128,-1,67
 150 71 150 71 164.5 85.5 c 128,-1,68
 179 100 179 100 200 100 c 128,-1,69
 221 100 221 100 235.5 85.5 c 128,-1,70
 250 71 250 71 250 50 c 128,-1,71
 250 29 250 29 235.5 14.5 c 128,-1,64
 221 0 221 0 200 0 c 128,-1,65
EndSplineSet
Substitution2: "<11,2> Diagonal Fractions lookup 2 subtable" five.numr
EndChar

StartChar: six
Encoding: 54 54 25
Width: 400
GlyphClass: 1
Flags: W
LayerCount: 2
Fore
SplineSet
200 600 m 128,-1,1
 179 600 179 600 164.5 614.5 c 128,-1,2
 150 629 150 629 150 650 c 128,-1,3
 150 671 150 671 164.5 685.5 c 128,-1,4
 179 700 179 700 200 700 c 128,-1,5
 221 700 221 700 235.5 685.5 c 128,-1,6
 250 671 250 671 250 650 c 128,-1,7
 250 629 250 629 235.5 614.5 c 128,-1,0
 221 600 221 600 200 600 c 128,-1,1
300 600 m 128,-1,9
 279 600 279 600 264.5 614.5 c 128,-1,10
 250 629 250 629 250 650 c 128,-1,11
 250 671 250 671 264.5 685.5 c 128,-1,12
 279 700 279 700 300 700 c 128,-1,13
 321 700 321 700 335.5 685.5 c 128,-1,14
 350 671 350 671 350 650 c 128,-1,15
 350 629 350 629 335.5 614.5 c 128,-1,8
 321 600 321 600 300 600 c 128,-1,9
100 450 m 128,-1,17
 79 450 79 450 64.5 464.5 c 128,-1,18
 50 479 50 479 50 500 c 128,-1,19
 50 521 50 521 64.5 535.5 c 128,-1,20
 79 550 79 550 100 550 c 128,-1,21
 121 550 121 550 135.5 535.5 c 128,-1,22
 150 521 150 521 150 500 c 128,-1,23
 150 479 150 479 135.5 464.5 c 128,-1,16
 121 450 121 450 100 450 c 128,-1,17
100 300 m 128,-1,25
 79 300 79 300 64.5 314.5 c 128,-1,26
 50 329 50 329 50 350 c 128,-1,27
 50 371 50 371 64.5 385.5 c 128,-1,28
 79 400 79 400 100 400 c 128,-1,29
 121 400 121 400 135.5 385.5 c 128,-1,30
 150 371 150 371 150 350 c 128,-1,31
 150 329 150 329 135.5 314.5 c 128,-1,24
 121 300 121 300 100 300 c 128,-1,25
200 300 m 128,-1,33
 179 300 179 300 164.5 314.5 c 128,-1,34
 150 329 150 329 150 350 c 128,-1,35
 150 371 150 371 164.5 385.5 c 128,-1,36
 179 400 179 400 200 400 c 128,-1,37
 221 400 221 400 235.5 385.5 c 128,-1,38
 250 371 250 371 250 350 c 128,-1,39
 250 329 250 329 235.5 314.5 c 128,-1,32
 221 300 221 300 200 300 c 128,-1,33
100 150 m 128,-1,41
 79 150 79 150 64.5 164.5 c 128,-1,42
 50 179 50 179 50 200 c 128,-1,43
 50 221 50 221 64.5 235.5 c 128,-1,44
 79 250 79 250 100 250 c 128,-1,45
 121 250 121 250 135.5 235.5 c 128,-1,46
 150 221 150 221 150 200 c 128,-1,47
 150 179 150 179 135.5 164.5 c 128,-1,40
 121 150 121 150 100 150 c 128,-1,41
300 150 m 128,-1,49
 279 150 279 150 264.5 164.5 c 128,-1,50
 250 179 250 179 250 200 c 128,-1,51
 250 221 250 221 264.5 235.5 c 128,-1,52
 279 250 279 250 300 250 c 128,-1,53
 321 250 321 250 335.5 235.5 c 128,-1,54
 350 221 350 221 350 200 c 128,-1,55
 350 179 350 179 335.5 164.5 c 128,-1,48
 321 150 321 150 300 150 c 128,-1,49
200 0 m 128,-1,57
 179 0 179 0 164.5 14.5 c 128,-1,58
 150 29 150 29 150 50 c 128,-1,59
 150 71 150 71 164.5 85.5 c 128,-1,60
 179 100 179 100 200 100 c 128,-1,61
 221 100 221 100 235.5 85.5 c 128,-1,62
 250 71 250 71 250 50 c 128,-1,63
 250 29 250 29 235.5 14.5 c 128,-1,56
 221 0 221 0 200 0 c 128,-1,57
EndSplineSet
Substitution2: "<11,2> Diagonal Fractions lookup 2 subtable" six.numr
EndChar

StartChar: seven
Encoding: 55 55 26
Width: 400
GlyphClass: 1
Flags: W
LayerCount: 2
Fore
SplineSet
100 600 m 128,-1,1
 79 600 79 600 64.5 614.5 c 128,-1,2
 50 629 50 629 50 650 c 128,-1,3
 50 671 50 671 64.5 685.5 c 128,-1,4
 79 700 79 700 100 700 c 128,-1,5
 121 700 121 700 135.5 685.5 c 128,-1,6
 150 671 150 671 150 650 c 128,-1,7
 150 629 150 629 135.5 614.5 c 128,-1,0
 121 600 121 600 100 600 c 128,-1,1
200 600 m 128,-1,9
 179 600 179 600 164.5 614.5 c 128,-1,10
 150 629 150 629 150 650 c 128,-1,11
 150 671 150 671 164.5 685.5 c 128,-1,12
 179 700 179 700 200 700 c 128,-1,13
 221 700 221 700 235.5 685.5 c 128,-1,14
 250 671 250 671 250 650 c 128,-1,15
 250 629 250 629 235.5 614.5 c 128,-1,8
 221 600 221 600 200 600 c 128,-1,9
300 600 m 128,-1,17
 279 600 279 600 264.5 614.5 c 128,-1,18
 250 629 250 629 250 650 c 128,-1,19
 250 671 250 671 264.5 685.5 c 128,-1,20
 279 700 279 700 300 700 c 128,-1,21
 321 700 321 700 335.5 685.5 c 128,-1,22
 350 671 350 671 350 650 c 128,-1,23
 350 629 350 629 335.5 614.5 c 128,-1,16
 321 600 321 600 300 600 c 128,-1,17
300 450 m 128,-1,25
 279 450 279 450 264.5 464.5 c 128,-1,26
 250 479 250 479 250 500 c 128,-1,27
 250 521 250 521 264.5 535.5 c 128,-1,28
 279 550 279 550 300 550 c 128,-1,29
 321 550 321 550 335.5 535.5 c 128,-1,30
 350 521 350 521 350 500 c 128,-1,31
 350 479 350 479 335.5 464.5 c 128,-1,24
 321 450 321 450 300 450 c 128,-1,25
200 300 m 128,-1,33
 179 300 179 300 164.5 314.5 c 128,-1,34
 150 329 150 329 150 350 c 128,-1,35
 150 371 150 371 164.5 385.5 c 128,-1,36
 179 400 179 400 200 400 c 128,-1,37
 221 400 221 400 235.5 385.5 c 128,-1,38
 250 371 250 371 250 350 c 128,-1,39
 250 329 250 329 235.5 314.5 c 128,-1,32
 221 300 221 300 200 300 c 128,-1,33
100 150 m 128,-1,41
 79 150 79 150 64.5 164.5 c 128,-1,42
 50 179 50 179 50 200 c 128,-1,43
 50 221 50 221 64.5 235.5 c 128,-1,44
 79 250 79 250 100 250 c 128,-1,45
 121 250 121 250 135.5 235.5 c 128,-1,46
 150 221 150 221 150 200 c 128,-1,47
 150 179 150 179 135.5 164.5 c 128,-1,40
 121 150 121 150 100 150 c 128,-1,41
100 0 m 128,-1,49
 79 0 79 0 64.5 14.5 c 128,-1,50
 50 29 50 29 50 50 c 128,-1,51
 50 71 50 71 64.5 85.5 c 128,-1,52
 79 100 79 100 100 100 c 128,-1,53
 121 100 121 100 135.5 85.5 c 128,-1,54
 150 71 150 71 150 50 c 128,-1,55
 150 29 150 29 135.5 14.5 c 128,-1,48
 121 0 121 0 100 0 c 128,-1,49
EndSplineSet
Substitution2: "<11,2> Diagonal Fractions lookup 2 subtable" seven.numr
EndChar

StartChar: eight
Encoding: 56 56 27
Width: 400
GlyphClass: 1
Flags: W
LayerCount: 2
Fore
SplineSet
200 600 m 128,-1,1
 179 600 179 600 164.5 614.5 c 128,-1,2
 150 629 150 629 150 650 c 128,-1,3
 150 671 150 671 164.5 685.5 c 128,-1,4
 179 700 179 700 200 700 c 128,-1,5
 221 700 221 700 235.5 685.5 c 128,-1,6
 250 671 250 671 250 650 c 128,-1,7
 250 629 250 629 235.5 614.5 c 128,-1,0
 221 600 221 600 200 600 c 128,-1,1
100 450 m 128,-1,9
 79 450 79 450 64.5 464.5 c 128,-1,10
 50 479 50 479 50 500 c 128,-1,11
 50 521 50 521 64.5 535.5 c 128,-1,12
 79 550 79 550 100 550 c 128,-1,13
 121 550 121 550 135.5 535.5 c 128,-1,14
 150 521 150 521 150 500 c 128,-1,15
 150 479 150 479 135.5 464.5 c 128,-1,8
 121 450 121 450 100 450 c 128,-1,9
300 450 m 128,-1,17
 279 450 279 450 264.5 464.5 c 128,-1,18
 250 479 250 479 250 500 c 128,-1,19
 250 521 250 521 264.5 535.5 c 128,-1,20
 279 550 279 550 300 550 c 128,-1,21
 321 550 321 550 335.5 535.5 c 128,-1,22
 350 521 350 521 350 500 c 128,-1,23
 350 479 350 479 335.5 464.5 c 128,-1,16
 321 450 321 450 300 450 c 128,-1,17
200 300 m 128,-1,25
 179 300 179 300 164.5 314.5 c 128,-1,26
 150 329 150 329 150 350 c 128,-1,27
 150 371 150 371 164.5 385.5 c 128,-1,28
 179 400 179 400 200 400 c 128,-1,29
 221 400 221 400 235.5 385.5 c 128,-1,30
 250 371 250 371 250 350 c 128,-1,31
 250 329 250 329 235.5 314.5 c 128,-1,24
 221 300 221 300 200 300 c 128,-1,25
100 150 m 128,-1,33
 79 150 79 150 64.5 164.5 c 128,-1,34
 50 179 50 179 50 200 c 128,-1,35
 50 221 50 221 64.5 235.5 c 128,-1,36
 79 250 79 250 100 250 c 128,-1,37
 121 250 121 250 135.5 235.5 c 128,-1,38
 150 221 150 221 150 200 c 128,-1,39
 150 179 150 179 135.5 164.5 c 128,-1,32
 121 150 121 150 100 150 c 128,-1,33
300 150 m 128,-1,41
 279 150 279 150 264.5 164.5 c 128,-1,42
 250 179 250 179 250 200 c 128,-1,43
 250 221 250 221 264.5 235.5 c 128,-1,44
 279 250 279 250 300 250 c 128,-1,45
 321 250 321 250 335.5 235.5 c 128,-1,46
 350 221 350 221 350 200 c 128,-1,47
 350 179 350 179 335.5 164.5 c 128,-1,40
 321 150 321 150 300 150 c 128,-1,41
200 0 m 128,-1,49
 179 0 179 0 164.5 14.5 c 128,-1,50
 150 29 150 29 150 50 c 128,-1,51
 150 71 150 71 164.5 85.5 c 128,-1,52
 179 100 179 100 200 100 c 128,-1,53
 221 100 221 100 235.5 85.5 c 128,-1,54
 250 71 250 71 250 50 c 128,-1,55
 250 29 250 29 235.5 14.5 c 128,-1,48
 221 0 221 0 200 0 c 128,-1,49
EndSplineSet
Substitution2: "<11,2> Diagonal Fractions lookup 2 subtable" eight.numr
EndChar

StartChar: nine
Encoding: 57 57 28
Width: 400
GlyphClass: 1
Flags: W
LayerCount: 2
Fore
SplineSet
200 600 m 128,-1,1
 179 600 179 600 164.5 614.5 c 128,-1,2
 150 629 150 629 150 650 c 128,-1,3
 150 671 150 671 164.5 685.5 c 128,-1,4
 179 700 179 700 200 700 c 128,-1,5
 221 700 221 700 235.5 685.5 c 128,-1,6
 250 671 250 671 250 650 c 128,-1,7
 250 629 250 629 235.5 614.5 c 128,-1,0
 221 600 221 600 200 600 c 128,-1,1
100 450 m 128,-1,9
 79 450 79 450 64.5 464.5 c 128,-1,10
 50 479 50 479 50 500 c 128,-1,11
 50 521 50 521 64.5 535.5 c 128,-1,12
 79 550 79 550 100 550 c 128,-1,13
 121 550 121 550 135.5 535.5 c 128,-1,14
 150 521 150 521 150 500 c 128,-1,15
 150 479 150 479 135.5 464.5 c 128,-1,8
 121 450 121 450 100 450 c 128,-1,9
300 450 m 128,-1,17
 279 450 279 450 264.5 464.5 c 128,-1,18
 250 479 250 479 250 500 c 128,-1,19
 250 521 250 521 264.5 535.5 c 128,-1,20
 279 550 279 550 300 550 c 128,-1,21
 321 550 321 550 335.5 535.5 c 128,-1,22
 350 521 350 521 350 500 c 128,-1,23
 350 479 350 479 335.5 464.5 c 128,-1,16
 321 450 321 450 300 450 c 128,-1,17
200 300 m 128,-1,25
 179 300 179 300 164.5 314.5 c 128,-1,26
 150 329 150 329 150 350 c 128,-1,27
 150 371 150 371 164.5 385.5 c 128,-1,28
 179 400 179 400 200 400 c 128,-1,29
 221 400 221 400 235.5 385.5 c 128,-1,30
 250 371 250 371 250 350 c 128,-1,31
 250 329 250 329 235.5 314.5 c 128,-1,24
 221 300 221 300 200 300 c 128,-1,25
300 300 m 128,-1,33
 279 300 279 300 264.5 314.5 c 128,-1,34
 250 329 250 329 250 350 c 128,-1,35
 250 371 250 371 264.5 385.5 c 128,-1,36
 279 400 279 400 300 400 c 128,-1,37
 321 400 321 400 335.5 385.5 c 128,-1,38
 350 371 350 371 350 350 c 128,-1,39
 350 329 350 329 335.5 314.5 c 128,-1,32
 321 300 321 300 300 300 c 128,-1,33
300 150 m 128,-1,41
 279 150 279 150 264.5 164.5 c 128,-1,42
 250 179 250 179 250 200 c 128,-1,43
 250 221 250 221 264.5 235.5 c 128,-1,44
 279 250 279 250 300 250 c 128,-1,45
 321 250 321 250 335.5 235.5 c 128,-1,46
 350 221 350 221 350 200 c 128,-1,47
 350 179 350 179 335.5 164.5 c 128,-1,40
 321 150 321 150 300 150 c 128,-1,41
100 0 m 128,-1,49
 79 0 79 0 64.5 14.5 c 128,-1,50
 50 29 50 29 50 50 c 128,-1,51
 50 71 50 71 64.5 85.5 c 128,-1,52
 79 100 79 100 100 100 c 128,-1,53
 121 100 121 100 135.5 85.5 c 128,-1,54
 150 71 150 71 150 50 c 128,-1,55
 150 29 150 29 135.5 14.5 c 128,-1,48
 121 0 121 0 100 0 c 128,-1,49
200 0 m 128,-1,57
 179 0 179 0 164.5 14.5 c 128,-1,58
 150 29 150 29 150 50 c 128,-1,59
 150 71 150 71 164.5 85.5 c 128,-1,60
 179 100 179 100 200 100 c 128,-1,61
 221 100 221 100 235.5 85.5 c 128,-1,62
 250 71 250 71 250 50 c 128,-1,63
 250 29 250 29 235.5 14.5 c 128,-1,56
 221 0 221 0 200 0 c 128,-1,57
EndSplineSet
Substitution2: "<11,2> Diagonal Fractions lookup 2 subtable" nine.numr
EndChar

StartChar: colon
Encoding: 58 58 29
Width: 200
GlyphClass: 1
Flags: W
LayerCount: 2
Fore
SplineSet
100 600 m 128,-1,1
 79 600 79 600 64.5 614.5 c 128,-1,2
 50 629 50 629 50 650 c 128,-1,3
 50 671 50 671 64.5 685.5 c 128,-1,4
 79 700 79 700 100 700 c 128,-1,5
 121 700 121 700 135.5 685.5 c 128,-1,6
 150 671 150 671 150 650 c 128,-1,7
 150 629 150 629 135.5 614.5 c 128,-1,0
 121 600 121 600 100 600 c 128,-1,1
100 450 m 128,-1,9
 79 450 79 450 64.5 464.5 c 128,-1,10
 50 479 50 479 50 500 c 128,-1,11
 50 521 50 521 64.5 535.5 c 128,-1,12
 79 550 79 550 100 550 c 128,-1,13
 121 550 121 550 135.5 535.5 c 128,-1,14
 150 521 150 521 150 500 c 128,-1,15
 150 479 150 479 135.5 464.5 c 128,-1,8
 121 450 121 450 100 450 c 128,-1,9
100 150 m 128,-1,17
 79 150 79 150 64.5 164.5 c 128,-1,18
 50 179 50 179 50 200 c 128,-1,19
 50 221 50 221 64.5 235.5 c 128,-1,20
 79 250 79 250 100 250 c 128,-1,21
 121 250 121 250 135.5 235.5 c 128,-1,22
 150 221 150 221 150 200 c 128,-1,23
 150 179 150 179 135.5 164.5 c 128,-1,16
 121 150 121 150 100 150 c 128,-1,17
100 0 m 128,-1,25
 79 0 79 0 64.5 14.5 c 128,-1,26
 50 29 50 29 50 50 c 128,-1,27
 50 71 50 71 64.5 85.5 c 128,-1,28
 79 100 79 100 100 100 c 128,-1,29
 121 100 121 100 135.5 85.5 c 128,-1,30
 150 71 150 71 150 50 c 128,-1,31
 150 29 150 29 135.5 14.5 c 128,-1,24
 121 0 121 0 100 0 c 128,-1,25
EndSplineSet
EndChar

StartChar: semicolon
Encoding: 59 59 30
Width: 300
GlyphClass: 1
Flags: W
LayerCount: 2
Fore
SplineSet
200 600 m 128,-1,1
 179 600 179 600 164.5 614.5 c 128,-1,2
 150 629 150 629 150 650 c 128,-1,3
 150 671 150 671 164.5 685.5 c 128,-1,4
 179 700 179 700 200 700 c 128,-1,5
 221 700 221 700 235.5 685.5 c 128,-1,6
 250 671 250 671 250 650 c 128,-1,7
 250 629 250 629 235.5 614.5 c 128,-1,0
 221 600 221 600 200 600 c 128,-1,1
200 450 m 128,-1,9
 179 450 179 450 164.5 464.5 c 128,-1,10
 150 479 150 479 150 500 c 128,-1,11
 150 521 150 521 164.5 535.5 c 128,-1,12
 179 550 179 550 200 550 c 128,-1,13
 221 550 221 550 235.5 535.5 c 128,-1,14
 250 521 250 521 250 500 c 128,-1,15
 250 479 250 479 235.5 464.5 c 128,-1,8
 221 450 221 450 200 450 c 128,-1,9
200 150 m 128,-1,17
 179 150 179 150 164.5 164.5 c 128,-1,18
 150 179 150 179 150 200 c 128,-1,19
 150 221 150 221 164.5 235.5 c 128,-1,20
 179 250 179 250 200 250 c 128,-1,21
 221 250 221 250 235.5 235.5 c 128,-1,22
 250 221 250 221 250 200 c 128,-1,23
 250 179 250 179 235.5 164.5 c 128,-1,16
 221 150 221 150 200 150 c 128,-1,17
200 0 m 128,-1,25
 179 0 179 0 164.5 14.5 c 128,-1,26
 150 29 150 29 150 50 c 128,-1,27
 150 71 150 71 164.5 85.5 c 128,-1,28
 179 100 179 100 200 100 c 128,-1,29
 221 100 221 100 235.5 85.5 c 128,-1,30
 250 71 250 71 250 50 c 128,-1,31
 250 29 250 29 235.5 14.5 c 128,-1,24
 221 0 221 0 200 0 c 128,-1,25
100 -150 m 128,-1,33
 79 -150 79 -150 64.5 -135.5 c 128,-1,34
 50 -121 50 -121 50 -100 c 128,-1,35
 50 -79 50 -79 64.5 -64.5 c 128,-1,36
 79 -50 79 -50 100 -50 c 128,-1,37
 121 -50 121 -50 135.5 -64.5 c 128,-1,38
 150 -79 150 -79 150 -100 c 128,-1,39
 150 -121 150 -121 135.5 -135.5 c 128,-1,32
 121 -150 121 -150 100 -150 c 128,-1,33
EndSplineSet
EndChar

StartChar: less
Encoding: 60 60 31
Width: 400
GlyphClass: 1
Flags: W
LayerCount: 2
Fore
SplineSet
200 450 m 128,-1,1
 179 450 179 450 164.5 464.5 c 128,-1,2
 150 479 150 479 150 500 c 128,-1,3
 150 521 150 521 164.5 535.5 c 128,-1,4
 179 550 179 550 200 550 c 128,-1,5
 221 550 221 550 235.5 535.5 c 128,-1,6
 250 521 250 521 250 500 c 128,-1,7
 250 479 250 479 235.5 464.5 c 128,-1,0
 221 450 221 450 200 450 c 128,-1,1
300 450 m 128,-1,9
 279 450 279 450 264.5 464.5 c 128,-1,10
 250 479 250 479 250 500 c 128,-1,11
 250 521 250 521 264.5 535.5 c 128,-1,12
 279 550 279 550 300 550 c 128,-1,13
 321 550 321 550 335.5 535.5 c 128,-1,14
 350 521 350 521 350 500 c 128,-1,15
 350 479 350 479 335.5 464.5 c 128,-1,8
 321 450 321 450 300 450 c 128,-1,9
100 300 m 128,-1,17
 79 300 79 300 64.5 314.5 c 128,-1,18
 50 329 50 329 50 350 c 128,-1,19
 50 371 50 371 64.5 385.5 c 128,-1,20
 79 400 79 400 100 400 c 128,-1,21
 121 400 121 400 135.5 385.5 c 128,-1,22
 150 371 150 371 150 350 c 128,-1,23
 150 329 150 329 135.5 314.5 c 128,-1,16
 121 300 121 300 100 300 c 128,-1,17
200 150 m 128,-1,25
 179 150 179 150 164.5 164.5 c 128,-1,26
 150 179 150 179 150 200 c 128,-1,27
 150 221 150 221 164.5 235.5 c 128,-1,28
 179 250 179 250 200 250 c 128,-1,29
 221 250 221 250 235.5 235.5 c 128,-1,30
 250 221 250 221 250 200 c 128,-1,31
 250 179 250 179 235.5 164.5 c 128,-1,24
 221 150 221 150 200 150 c 128,-1,25
300 150 m 128,-1,33
 279 150 279 150 264.5 164.5 c 128,-1,34
 250 179 250 179 250 200 c 128,-1,35
 250 221 250 221 264.5 235.5 c 128,-1,36
 279 250 279 250 300 250 c 128,-1,37
 321 250 321 250 335.5 235.5 c 128,-1,38
 350 221 350 221 350 200 c 128,-1,39
 350 179 350 179 335.5 164.5 c 128,-1,32
 321 150 321 150 300 150 c 128,-1,33
EndSplineSet
Substitution2: "'rtla' Alternative da destra a sinistra lookup 0 subtable" greater
EndChar

StartChar: equal
Encoding: 61 61 32
Width: 400
GlyphClass: 1
Flags: W
LayerCount: 2
Fore
SplineSet
100 450 m 128,-1,1
 79 450 79 450 64.5 464.5 c 128,-1,2
 50 479 50 479 50 500 c 128,-1,3
 50 521 50 521 64.5 535.5 c 128,-1,4
 79 550 79 550 100 550 c 128,-1,5
 121 550 121 550 135.5 535.5 c 128,-1,6
 150 521 150 521 150 500 c 128,-1,7
 150 479 150 479 135.5 464.5 c 128,-1,0
 121 450 121 450 100 450 c 128,-1,1
200 450 m 128,-1,9
 179 450 179 450 164.5 464.5 c 128,-1,10
 150 479 150 479 150 500 c 128,-1,11
 150 521 150 521 164.5 535.5 c 128,-1,12
 179 550 179 550 200 550 c 128,-1,13
 221 550 221 550 235.5 535.5 c 128,-1,14
 250 521 250 521 250 500 c 128,-1,15
 250 479 250 479 235.5 464.5 c 128,-1,8
 221 450 221 450 200 450 c 128,-1,9
300 450 m 128,-1,17
 279 450 279 450 264.5 464.5 c 128,-1,18
 250 479 250 479 250 500 c 128,-1,19
 250 521 250 521 264.5 535.5 c 128,-1,20
 279 550 279 550 300 550 c 128,-1,21
 321 550 321 550 335.5 535.5 c 128,-1,22
 350 521 350 521 350 500 c 128,-1,23
 350 479 350 479 335.5 464.5 c 128,-1,16
 321 450 321 450 300 450 c 128,-1,17
100 150 m 128,-1,25
 79 150 79 150 64.5 164.5 c 128,-1,26
 50 179 50 179 50 200 c 128,-1,27
 50 221 50 221 64.5 235.5 c 128,-1,28
 79 250 79 250 100 250 c 128,-1,29
 121 250 121 250 135.5 235.5 c 128,-1,30
 150 221 150 221 150 200 c 128,-1,31
 150 179 150 179 135.5 164.5 c 128,-1,24
 121 150 121 150 100 150 c 128,-1,25
200 150 m 128,-1,33
 179 150 179 150 164.5 164.5 c 128,-1,34
 150 179 150 179 150 200 c 128,-1,35
 150 221 150 221 164.5 235.5 c 128,-1,36
 179 250 179 250 200 250 c 128,-1,37
 221 250 221 250 235.5 235.5 c 128,-1,38
 250 221 250 221 250 200 c 128,-1,39
 250 179 250 179 235.5 164.5 c 128,-1,32
 221 150 221 150 200 150 c 128,-1,33
300 150 m 128,-1,41
 279 150 279 150 264.5 164.5 c 128,-1,42
 250 179 250 179 250 200 c 128,-1,43
 250 221 250 221 264.5 235.5 c 128,-1,44
 279 250 279 250 300 250 c 128,-1,45
 321 250 321 250 335.5 235.5 c 128,-1,46
 350 221 350 221 350 200 c 128,-1,47
 350 179 350 179 335.5 164.5 c 128,-1,40
 321 150 321 150 300 150 c 128,-1,41
EndSplineSet
EndChar

StartChar: greater
Encoding: 62 62 33
Width: 400
GlyphClass: 1
Flags: W
LayerCount: 2
Fore
SplineSet
100 450 m 128,-1,1
 79 450 79 450 64.5 464.5 c 128,-1,2
 50 479 50 479 50 500 c 128,-1,3
 50 521 50 521 64.5 535.5 c 128,-1,4
 79 550 79 550 100 550 c 128,-1,5
 121 550 121 550 135.5 535.5 c 128,-1,6
 150 521 150 521 150 500 c 128,-1,7
 150 479 150 479 135.5 464.5 c 128,-1,0
 121 450 121 450 100 450 c 128,-1,1
200 450 m 128,-1,9
 179 450 179 450 164.5 464.5 c 128,-1,10
 150 479 150 479 150 500 c 128,-1,11
 150 521 150 521 164.5 535.5 c 128,-1,12
 179 550 179 550 200 550 c 128,-1,13
 221 550 221 550 235.5 535.5 c 128,-1,14
 250 521 250 521 250 500 c 128,-1,15
 250 479 250 479 235.5 464.5 c 128,-1,8
 221 450 221 450 200 450 c 128,-1,9
300 300 m 128,-1,17
 279 300 279 300 264.5 314.5 c 128,-1,18
 250 329 250 329 250 350 c 128,-1,19
 250 371 250 371 264.5 385.5 c 128,-1,20
 279 400 279 400 300 400 c 128,-1,21
 321 400 321 400 335.5 385.5 c 128,-1,22
 350 371 350 371 350 350 c 128,-1,23
 350 329 350 329 335.5 314.5 c 128,-1,16
 321 300 321 300 300 300 c 128,-1,17
100 150 m 128,-1,25
 79 150 79 150 64.5 164.5 c 128,-1,26
 50 179 50 179 50 200 c 128,-1,27
 50 221 50 221 64.5 235.5 c 128,-1,28
 79 250 79 250 100 250 c 128,-1,29
 121 250 121 250 135.5 235.5 c 128,-1,30
 150 221 150 221 150 200 c 128,-1,31
 150 179 150 179 135.5 164.5 c 128,-1,24
 121 150 121 150 100 150 c 128,-1,25
200 150 m 128,-1,33
 179 150 179 150 164.5 164.5 c 128,-1,34
 150 179 150 179 150 200 c 128,-1,35
 150 221 150 221 164.5 235.5 c 128,-1,36
 179 250 179 250 200 250 c 128,-1,37
 221 250 221 250 235.5 235.5 c 128,-1,38
 250 221 250 221 250 200 c 128,-1,39
 250 179 250 179 235.5 164.5 c 128,-1,32
 221 150 221 150 200 150 c 128,-1,33
EndSplineSet
Substitution2: "'rtla' Alternative da destra a sinistra lookup 0 subtable" less
EndChar

StartChar: question
Encoding: 63 63 34
Width: 400
GlyphClass: 1
Flags: W
LayerCount: 2
Fore
SplineSet
100 600 m 128,-1,1
 79 600 79 600 64.5 614.5 c 128,-1,2
 50 629 50 629 50 650 c 128,-1,3
 50 671 50 671 64.5 685.5 c 128,-1,4
 79 700 79 700 100 700 c 128,-1,5
 121 700 121 700 135.5 685.5 c 128,-1,6
 150 671 150 671 150 650 c 128,-1,7
 150 629 150 629 135.5 614.5 c 128,-1,0
 121 600 121 600 100 600 c 128,-1,1
200 600 m 128,-1,9
 179 600 179 600 164.5 614.5 c 128,-1,10
 150 629 150 629 150 650 c 128,-1,11
 150 671 150 671 164.5 685.5 c 128,-1,12
 179 700 179 700 200 700 c 128,-1,13
 221 700 221 700 235.5 685.5 c 128,-1,14
 250 671 250 671 250 650 c 128,-1,15
 250 629 250 629 235.5 614.5 c 128,-1,8
 221 600 221 600 200 600 c 128,-1,9
300 450 m 128,-1,17
 279 450 279 450 264.5 464.5 c 128,-1,18
 250 479 250 479 250 500 c 128,-1,19
 250 521 250 521 264.5 535.5 c 128,-1,20
 279 550 279 550 300 550 c 128,-1,21
 321 550 321 550 335.5 535.5 c 128,-1,22
 350 521 350 521 350 500 c 128,-1,23
 350 479 350 479 335.5 464.5 c 128,-1,16
 321 450 321 450 300 450 c 128,-1,17
200 300 m 128,-1,25
 179 300 179 300 164.5 314.5 c 128,-1,26
 150 329 150 329 150 350 c 128,-1,27
 150 371 150 371 164.5 385.5 c 128,-1,28
 179 400 179 400 200 400 c 128,-1,29
 221 400 221 400 235.5 385.5 c 128,-1,30
 250 371 250 371 250 350 c 128,-1,31
 250 329 250 329 235.5 314.5 c 128,-1,24
 221 300 221 300 200 300 c 128,-1,25
200 0 m 128,-1,33
 179 0 179 0 164.5 14.5 c 128,-1,34
 150 29 150 29 150 50 c 128,-1,35
 150 71 150 71 164.5 85.5 c 128,-1,36
 179 100 179 100 200 100 c 128,-1,37
 221 100 221 100 235.5 85.5 c 128,-1,38
 250 71 250 71 250 50 c 128,-1,39
 250 29 250 29 235.5 14.5 c 128,-1,32
 221 0 221 0 200 0 c 128,-1,33
EndSplineSet
EndChar

StartChar: at
Encoding: 64 64 35
Width: 400
GlyphClass: 1
Flags: W
LayerCount: 2
Fore
SplineSet
200 600 m 128,-1,1
 179 600 179 600 164.5 614.5 c 128,-1,2
 150 629 150 629 150 650 c 128,-1,3
 150 671 150 671 164.5 685.5 c 128,-1,4
 179 700 179 700 200 700 c 128,-1,5
 221 700 221 700 235.5 685.5 c 128,-1,6
 250 671 250 671 250 650 c 128,-1,7
 250 629 250 629 235.5 614.5 c 128,-1,0
 221 600 221 600 200 600 c 128,-1,1
100 450 m 128,-1,9
 79 450 79 450 64.5 464.5 c 128,-1,10
 50 479 50 479 50 500 c 128,-1,11
 50 521 50 521 64.5 535.5 c 128,-1,12
 79 550 79 550 100 550 c 128,-1,13
 121 550 121 550 135.5 535.5 c 128,-1,14
 150 521 150 521 150 500 c 128,-1,15
 150 479 150 479 135.5 464.5 c 128,-1,8
 121 450 121 450 100 450 c 128,-1,9
300 450 m 128,-1,17
 279 450 279 450 264.5 464.5 c 128,-1,18
 250 479 250 479 250 500 c 128,-1,19
 250 521 250 521 264.5 535.5 c 128,-1,20
 279 550 279 550 300 550 c 128,-1,21
 321 550 321 550 335.5 535.5 c 128,-1,22
 350 521 350 521 350 500 c 128,-1,23
 350 479 350 479 335.5 464.5 c 128,-1,16
 321 450 321 450 300 450 c 128,-1,17
200 300 m 128,-1,25
 179 300 179 300 164.5 314.5 c 128,-1,26
 150 329 150 329 150 350 c 128,-1,27
 150 371 150 371 164.5 385.5 c 128,-1,28
 179 400 179 400 200 400 c 128,-1,29
 221 400 221 400 235.5 385.5 c 128,-1,30
 250 371 250 371 250 350 c 128,-1,31
 250 329 250 329 235.5 314.5 c 128,-1,24
 221 300 221 300 200 300 c 128,-1,25
300 300 m 128,-1,33
 279 300 279 300 264.5 314.5 c 128,-1,34
 250 329 250 329 250 350 c 128,-1,35
 250 371 250 371 264.5 385.5 c 128,-1,36
 279 400 279 400 300 400 c 128,-1,37
 321 400 321 400 335.5 385.5 c 128,-1,38
 350 371 350 371 350 350 c 128,-1,39
 350 329 350 329 335.5 314.5 c 128,-1,32
 321 300 321 300 300 300 c 128,-1,33
100 150 m 128,-1,41
 79 150 79 150 64.5 164.5 c 128,-1,42
 50 179 50 179 50 200 c 128,-1,43
 50 221 50 221 64.5 235.5 c 128,-1,44
 79 250 79 250 100 250 c 128,-1,45
 121 250 121 250 135.5 235.5 c 128,-1,46
 150 221 150 221 150 200 c 128,-1,47
 150 179 150 179 135.5 164.5 c 128,-1,40
 121 150 121 150 100 150 c 128,-1,41
300 150 m 128,-1,49
 279 150 279 150 264.5 164.5 c 128,-1,50
 250 179 250 179 250 200 c 128,-1,51
 250 221 250 221 264.5 235.5 c 128,-1,52
 279 250 279 250 300 250 c 128,-1,53
 321 250 321 250 335.5 235.5 c 128,-1,54
 350 221 350 221 350 200 c 128,-1,55
 350 179 350 179 335.5 164.5 c 128,-1,48
 321 150 321 150 300 150 c 128,-1,49
200 0 m 128,-1,57
 179 0 179 0 164.5 14.5 c 128,-1,58
 150 29 150 29 150 50 c 128,-1,59
 150 71 150 71 164.5 85.5 c 128,-1,60
 179 100 179 100 200 100 c 128,-1,61
 221 100 221 100 235.5 85.5 c 128,-1,62
 250 71 250 71 250 50 c 128,-1,63
 250 29 250 29 235.5 14.5 c 128,-1,56
 221 0 221 0 200 0 c 128,-1,57
300 0 m 128,-1,65
 279 0 279 0 264.5 14.5 c 128,-1,66
 250 29 250 29 250 50 c 128,-1,67
 250 71 250 71 264.5 85.5 c 128,-1,68
 279 100 279 100 300 100 c 128,-1,69
 321 100 321 100 335.5 85.5 c 128,-1,70
 350 71 350 71 350 50 c 128,-1,71
 350 29 350 29 335.5 14.5 c 128,-1,64
 321 0 321 0 300 0 c 128,-1,65
EndSplineSet
EndChar

StartChar: A
Encoding: 65 65 36
Width: 400
GlyphClass: 1
Flags: W
LayerCount: 2
Fore
SplineSet
200 600 m 128,-1,1
 179 600 179 600 164.5 614.5 c 128,-1,2
 150 629 150 629 150 650 c 128,-1,3
 150 671 150 671 164.5 685.5 c 128,-1,4
 179 700 179 700 200 700 c 128,-1,5
 221 700 221 700 235.5 685.5 c 128,-1,6
 250 671 250 671 250 650 c 128,-1,7
 250 629 250 629 235.5 614.5 c 128,-1,0
 221 600 221 600 200 600 c 128,-1,1
100 450 m 128,-1,9
 79 450 79 450 64.5 464.5 c 128,-1,10
 50 479 50 479 50 500 c 128,-1,11
 50 521 50 521 64.5 535.5 c 128,-1,12
 79 550 79 550 100 550 c 128,-1,13
 121 550 121 550 135.5 535.5 c 128,-1,14
 150 521 150 521 150 500 c 128,-1,15
 150 479 150 479 135.5 464.5 c 128,-1,8
 121 450 121 450 100 450 c 128,-1,9
300 450 m 128,-1,17
 279 450 279 450 264.5 464.5 c 128,-1,18
 250 479 250 479 250 500 c 128,-1,19
 250 521 250 521 264.5 535.5 c 128,-1,20
 279 550 279 550 300 550 c 128,-1,21
 321 550 321 550 335.5 535.5 c 128,-1,22
 350 521 350 521 350 500 c 128,-1,23
 350 479 350 479 335.5 464.5 c 128,-1,16
 321 450 321 450 300 450 c 128,-1,17
100 300 m 128,-1,25
 79 300 79 300 64.5 314.5 c 128,-1,26
 50 329 50 329 50 350 c 128,-1,27
 50 371 50 371 64.5 385.5 c 128,-1,28
 79 400 79 400 100 400 c 128,-1,29
 121 400 121 400 135.5 385.5 c 128,-1,30
 150 371 150 371 150 350 c 128,-1,31
 150 329 150 329 135.5 314.5 c 128,-1,24
 121 300 121 300 100 300 c 128,-1,25
200 300 m 128,-1,33
 179 300 179 300 164.5 314.5 c 128,-1,34
 150 329 150 329 150 350 c 128,-1,35
 150 371 150 371 164.5 385.5 c 128,-1,36
 179 400 179 400 200 400 c 128,-1,37
 221 400 221 400 235.5 385.5 c 128,-1,38
 250 371 250 371 250 350 c 128,-1,39
 250 329 250 329 235.5 314.5 c 128,-1,32
 221 300 221 300 200 300 c 128,-1,33
300 300 m 128,-1,41
 279 300 279 300 264.5 314.5 c 128,-1,42
 250 329 250 329 250 350 c 128,-1,43
 250 371 250 371 264.5 385.5 c 128,-1,44
 279 400 279 400 300 400 c 128,-1,45
 321 400 321 400 335.5 385.5 c 128,-1,46
 350 371 350 371 350 350 c 128,-1,47
 350 329 350 329 335.5 314.5 c 128,-1,40
 321 300 321 300 300 300 c 128,-1,41
100 150 m 128,-1,49
 79 150 79 150 64.5 164.5 c 128,-1,50
 50 179 50 179 50 200 c 128,-1,51
 50 221 50 221 64.5 235.5 c 128,-1,52
 79 250 79 250 100 250 c 128,-1,53
 121 250 121 250 135.5 235.5 c 128,-1,54
 150 221 150 221 150 200 c 128,-1,55
 150 179 150 179 135.5 164.5 c 128,-1,48
 121 150 121 150 100 150 c 128,-1,49
300 150 m 128,-1,57
 279 150 279 150 264.5 164.5 c 128,-1,58
 250 179 250 179 250 200 c 128,-1,59
 250 221 250 221 264.5 235.5 c 128,-1,60
 279 250 279 250 300 250 c 128,-1,61
 321 250 321 250 335.5 235.5 c 128,-1,62
 350 221 350 221 350 200 c 128,-1,63
 350 179 350 179 335.5 164.5 c 128,-1,56
 321 150 321 150 300 150 c 128,-1,57
100 0 m 128,-1,65
 79 0 79 0 64.5 14.5 c 128,-1,66
 50 29 50 29 50 50 c 128,-1,67
 50 71 50 71 64.5 85.5 c 128,-1,68
 79 100 79 100 100 100 c 128,-1,69
 121 100 121 100 135.5 85.5 c 128,-1,70
 150 71 150 71 150 50 c 128,-1,71
 150 29 150 29 135.5 14.5 c 128,-1,64
 121 0 121 0 100 0 c 128,-1,65
300 0 m 128,-1,73
 279 0 279 0 264.5 14.5 c 128,-1,74
 250 29 250 29 250 50 c 128,-1,75
 250 71 250 71 264.5 85.5 c 128,-1,76
 279 100 279 100 300 100 c 128,-1,77
 321 100 321 100 335.5 85.5 c 128,-1,78
 350 71 350 71 350 50 c 128,-1,79
 350 29 350 29 335.5 14.5 c 128,-1,72
 321 0 321 0 300 0 c 128,-1,73
EndSplineSet
EndChar

StartChar: B
Encoding: 66 66 37
Width: 400
GlyphClass: 1
Flags: W
LayerCount: 2
Fore
SplineSet
100 600 m 128,-1,1
 79 600 79 600 64.5 614.5 c 128,-1,2
 50 629 50 629 50 650 c 128,-1,3
 50 671 50 671 64.5 685.5 c 128,-1,4
 79 700 79 700 100 700 c 128,-1,5
 121 700 121 700 135.5 685.5 c 128,-1,6
 150 671 150 671 150 650 c 128,-1,7
 150 629 150 629 135.5 614.5 c 128,-1,0
 121 600 121 600 100 600 c 128,-1,1
200 600 m 128,-1,9
 179 600 179 600 164.5 614.5 c 128,-1,10
 150 629 150 629 150 650 c 128,-1,11
 150 671 150 671 164.5 685.5 c 128,-1,12
 179 700 179 700 200 700 c 128,-1,13
 221 700 221 700 235.5 685.5 c 128,-1,14
 250 671 250 671 250 650 c 128,-1,15
 250 629 250 629 235.5 614.5 c 128,-1,8
 221 600 221 600 200 600 c 128,-1,9
100 450 m 128,-1,17
 79 450 79 450 64.5 464.5 c 128,-1,18
 50 479 50 479 50 500 c 128,-1,19
 50 521 50 521 64.5 535.5 c 128,-1,20
 79 550 79 550 100 550 c 128,-1,21
 121 550 121 550 135.5 535.5 c 128,-1,22
 150 521 150 521 150 500 c 128,-1,23
 150 479 150 479 135.5 464.5 c 128,-1,16
 121 450 121 450 100 450 c 128,-1,17
300 450 m 128,-1,25
 279 450 279 450 264.5 464.5 c 128,-1,26
 250 479 250 479 250 500 c 128,-1,27
 250 521 250 521 264.5 535.5 c 128,-1,28
 279 550 279 550 300 550 c 128,-1,29
 321 550 321 550 335.5 535.5 c 128,-1,30
 350 521 350 521 350 500 c 128,-1,31
 350 479 350 479 335.5 464.5 c 128,-1,24
 321 450 321 450 300 450 c 128,-1,25
100 300 m 128,-1,33
 79 300 79 300 64.5 314.5 c 128,-1,34
 50 329 50 329 50 350 c 128,-1,35
 50 371 50 371 64.5 385.5 c 128,-1,36
 79 400 79 400 100 400 c 128,-1,37
 121 400 121 400 135.5 385.5 c 128,-1,38
 150 371 150 371 150 350 c 128,-1,39
 150 329 150 329 135.5 314.5 c 128,-1,32
 121 300 121 300 100 300 c 128,-1,33
200 300 m 128,-1,41
 179 300 179 300 164.5 314.5 c 128,-1,42
 150 329 150 329 150 350 c 128,-1,43
 150 371 150 371 164.5 385.5 c 128,-1,44
 179 400 179 400 200 400 c 128,-1,45
 221 400 221 400 235.5 385.5 c 128,-1,46
 250 371 250 371 250 350 c 128,-1,47
 250 329 250 329 235.5 314.5 c 128,-1,40
 221 300 221 300 200 300 c 128,-1,41
100 150 m 128,-1,49
 79 150 79 150 64.5 164.5 c 128,-1,50
 50 179 50 179 50 200 c 128,-1,51
 50 221 50 221 64.5 235.5 c 128,-1,52
 79 250 79 250 100 250 c 128,-1,53
 121 250 121 250 135.5 235.5 c 128,-1,54
 150 221 150 221 150 200 c 128,-1,55
 150 179 150 179 135.5 164.5 c 128,-1,48
 121 150 121 150 100 150 c 128,-1,49
300 150 m 128,-1,57
 279 150 279 150 264.5 164.5 c 128,-1,58
 250 179 250 179 250 200 c 128,-1,59
 250 221 250 221 264.5 235.5 c 128,-1,60
 279 250 279 250 300 250 c 128,-1,61
 321 250 321 250 335.5 235.5 c 128,-1,62
 350 221 350 221 350 200 c 128,-1,63
 350 179 350 179 335.5 164.5 c 128,-1,56
 321 150 321 150 300 150 c 128,-1,57
100 0 m 128,-1,65
 79 0 79 0 64.5 14.5 c 128,-1,66
 50 29 50 29 50 50 c 128,-1,67
 50 71 50 71 64.5 85.5 c 128,-1,68
 79 100 79 100 100 100 c 128,-1,69
 121 100 121 100 135.5 85.5 c 128,-1,70
 150 71 150 71 150 50 c 128,-1,71
 150 29 150 29 135.5 14.5 c 128,-1,64
 121 0 121 0 100 0 c 128,-1,65
200 0 m 128,-1,73
 179 0 179 0 164.5 14.5 c 128,-1,74
 150 29 150 29 150 50 c 128,-1,75
 150 71 150 71 164.5 85.5 c 128,-1,76
 179 100 179 100 200 100 c 128,-1,77
 221 100 221 100 235.5 85.5 c 128,-1,78
 250 71 250 71 250 50 c 128,-1,79
 250 29 250 29 235.5 14.5 c 128,-1,72
 221 0 221 0 200 0 c 128,-1,73
EndSplineSet
EndChar

StartChar: C
Encoding: 67 67 38
Width: 400
GlyphClass: 1
Flags: W
LayerCount: 2
Fore
SplineSet
200 600 m 128,-1,1
 179 600 179 600 164.5 614.5 c 128,-1,2
 150 629 150 629 150 650 c 128,-1,3
 150 671 150 671 164.5 685.5 c 128,-1,4
 179 700 179 700 200 700 c 128,-1,5
 221 700 221 700 235.5 685.5 c 128,-1,6
 250 671 250 671 250 650 c 128,-1,7
 250 629 250 629 235.5 614.5 c 128,-1,0
 221 600 221 600 200 600 c 128,-1,1
100 450 m 128,-1,9
 79 450 79 450 64.5 464.5 c 128,-1,10
 50 479 50 479 50 500 c 128,-1,11
 50 521 50 521 64.5 535.5 c 128,-1,12
 79 550 79 550 100 550 c 128,-1,13
 121 550 121 550 135.5 535.5 c 128,-1,14
 150 521 150 521 150 500 c 128,-1,15
 150 479 150 479 135.5 464.5 c 128,-1,8
 121 450 121 450 100 450 c 128,-1,9
300 450 m 128,-1,17
 279 450 279 450 264.5 464.5 c 128,-1,18
 250 479 250 479 250 500 c 128,-1,19
 250 521 250 521 264.5 535.5 c 128,-1,20
 279 550 279 550 300 550 c 128,-1,21
 321 550 321 550 335.5 535.5 c 128,-1,22
 350 521 350 521 350 500 c 128,-1,23
 350 479 350 479 335.5 464.5 c 128,-1,16
 321 450 321 450 300 450 c 128,-1,17
100 300 m 128,-1,25
 79 300 79 300 64.5 314.5 c 128,-1,26
 50 329 50 329 50 350 c 128,-1,27
 50 371 50 371 64.5 385.5 c 128,-1,28
 79 400 79 400 100 400 c 128,-1,29
 121 400 121 400 135.5 385.5 c 128,-1,30
 150 371 150 371 150 350 c 128,-1,31
 150 329 150 329 135.5 314.5 c 128,-1,24
 121 300 121 300 100 300 c 128,-1,25
100 150 m 128,-1,33
 79 150 79 150 64.5 164.5 c 128,-1,34
 50 179 50 179 50 200 c 128,-1,35
 50 221 50 221 64.5 235.5 c 128,-1,36
 79 250 79 250 100 250 c 128,-1,37
 121 250 121 250 135.5 235.5 c 128,-1,38
 150 221 150 221 150 200 c 128,-1,39
 150 179 150 179 135.5 164.5 c 128,-1,32
 121 150 121 150 100 150 c 128,-1,33
300 150 m 128,-1,41
 279 150 279 150 264.5 164.5 c 128,-1,42
 250 179 250 179 250 200 c 128,-1,43
 250 221 250 221 264.5 235.5 c 128,-1,44
 279 250 279 250 300 250 c 128,-1,45
 321 250 321 250 335.5 235.5 c 128,-1,46
 350 221 350 221 350 200 c 128,-1,47
 350 179 350 179 335.5 164.5 c 128,-1,40
 321 150 321 150 300 150 c 128,-1,41
200 0 m 128,-1,49
 179 0 179 0 164.5 14.5 c 128,-1,50
 150 29 150 29 150 50 c 128,-1,51
 150 71 150 71 164.5 85.5 c 128,-1,52
 179 100 179 100 200 100 c 128,-1,53
 221 100 221 100 235.5 85.5 c 128,-1,54
 250 71 250 71 250 50 c 128,-1,55
 250 29 250 29 235.5 14.5 c 128,-1,48
 221 0 221 0 200 0 c 128,-1,49
EndSplineSet
EndChar

StartChar: D
Encoding: 68 68 39
Width: 400
GlyphClass: 1
Flags: W
LayerCount: 2
Fore
SplineSet
100 600 m 128,-1,1
 79 600 79 600 64.5 614.5 c 128,-1,2
 50 629 50 629 50 650 c 128,-1,3
 50 671 50 671 64.5 685.5 c 128,-1,4
 79 700 79 700 100 700 c 128,-1,5
 121 700 121 700 135.5 685.5 c 128,-1,6
 150 671 150 671 150 650 c 128,-1,7
 150 629 150 629 135.5 614.5 c 128,-1,0
 121 600 121 600 100 600 c 128,-1,1
200 600 m 128,-1,9
 179 600 179 600 164.5 614.5 c 128,-1,10
 150 629 150 629 150 650 c 128,-1,11
 150 671 150 671 164.5 685.5 c 128,-1,12
 179 700 179 700 200 700 c 128,-1,13
 221 700 221 700 235.5 685.5 c 128,-1,14
 250 671 250 671 250 650 c 128,-1,15
 250 629 250 629 235.5 614.5 c 128,-1,8
 221 600 221 600 200 600 c 128,-1,9
100 450 m 128,-1,17
 79 450 79 450 64.5 464.5 c 128,-1,18
 50 479 50 479 50 500 c 128,-1,19
 50 521 50 521 64.5 535.5 c 128,-1,20
 79 550 79 550 100 550 c 128,-1,21
 121 550 121 550 135.5 535.5 c 128,-1,22
 150 521 150 521 150 500 c 128,-1,23
 150 479 150 479 135.5 464.5 c 128,-1,16
 121 450 121 450 100 450 c 128,-1,17
300 450 m 128,-1,25
 279 450 279 450 264.5 464.5 c 128,-1,26
 250 479 250 479 250 500 c 128,-1,27
 250 521 250 521 264.5 535.5 c 128,-1,28
 279 550 279 550 300 550 c 128,-1,29
 321 550 321 550 335.5 535.5 c 128,-1,30
 350 521 350 521 350 500 c 128,-1,31
 350 479 350 479 335.5 464.5 c 128,-1,24
 321 450 321 450 300 450 c 128,-1,25
100 300 m 128,-1,33
 79 300 79 300 64.5 314.5 c 128,-1,34
 50 329 50 329 50 350 c 128,-1,35
 50 371 50 371 64.5 385.5 c 128,-1,36
 79 400 79 400 100 400 c 128,-1,37
 121 400 121 400 135.5 385.5 c 128,-1,38
 150 371 150 371 150 350 c 128,-1,39
 150 329 150 329 135.5 314.5 c 128,-1,32
 121 300 121 300 100 300 c 128,-1,33
300 300 m 128,-1,41
 279 300 279 300 264.5 314.5 c 128,-1,42
 250 329 250 329 250 350 c 128,-1,43
 250 371 250 371 264.5 385.5 c 128,-1,44
 279 400 279 400 300 400 c 128,-1,45
 321 400 321 400 335.5 385.5 c 128,-1,46
 350 371 350 371 350 350 c 128,-1,47
 350 329 350 329 335.5 314.5 c 128,-1,40
 321 300 321 300 300 300 c 128,-1,41
100 150 m 128,-1,49
 79 150 79 150 64.5 164.5 c 128,-1,50
 50 179 50 179 50 200 c 128,-1,51
 50 221 50 221 64.5 235.5 c 128,-1,52
 79 250 79 250 100 250 c 128,-1,53
 121 250 121 250 135.5 235.5 c 128,-1,54
 150 221 150 221 150 200 c 128,-1,55
 150 179 150 179 135.5 164.5 c 128,-1,48
 121 150 121 150 100 150 c 128,-1,49
300 150 m 128,-1,57
 279 150 279 150 264.5 164.5 c 128,-1,58
 250 179 250 179 250 200 c 128,-1,59
 250 221 250 221 264.5 235.5 c 128,-1,60
 279 250 279 250 300 250 c 128,-1,61
 321 250 321 250 335.5 235.5 c 128,-1,62
 350 221 350 221 350 200 c 128,-1,63
 350 179 350 179 335.5 164.5 c 128,-1,56
 321 150 321 150 300 150 c 128,-1,57
100 0 m 128,-1,65
 79 0 79 0 64.5 14.5 c 128,-1,66
 50 29 50 29 50 50 c 128,-1,67
 50 71 50 71 64.5 85.5 c 128,-1,68
 79 100 79 100 100 100 c 128,-1,69
 121 100 121 100 135.5 85.5 c 128,-1,70
 150 71 150 71 150 50 c 128,-1,71
 150 29 150 29 135.5 14.5 c 128,-1,64
 121 0 121 0 100 0 c 128,-1,65
200 0 m 128,-1,73
 179 0 179 0 164.5 14.5 c 128,-1,74
 150 29 150 29 150 50 c 128,-1,75
 150 71 150 71 164.5 85.5 c 128,-1,76
 179 100 179 100 200 100 c 128,-1,77
 221 100 221 100 235.5 85.5 c 128,-1,78
 250 71 250 71 250 50 c 128,-1,79
 250 29 250 29 235.5 14.5 c 128,-1,72
 221 0 221 0 200 0 c 128,-1,73
EndSplineSet
EndChar

StartChar: E
Encoding: 69 69 40
Width: 400
GlyphClass: 1
Flags: W
LayerCount: 2
Fore
SplineSet
100 600 m 128,-1,1
 79 600 79 600 64.5 614.5 c 128,-1,2
 50 629 50 629 50 650 c 128,-1,3
 50 671 50 671 64.5 685.5 c 128,-1,4
 79 700 79 700 100 700 c 128,-1,5
 121 700 121 700 135.5 685.5 c 128,-1,6
 150 671 150 671 150 650 c 128,-1,7
 150 629 150 629 135.5 614.5 c 128,-1,0
 121 600 121 600 100 600 c 128,-1,1
200 600 m 128,-1,9
 179 600 179 600 164.5 614.5 c 128,-1,10
 150 629 150 629 150 650 c 128,-1,11
 150 671 150 671 164.5 685.5 c 128,-1,12
 179 700 179 700 200 700 c 128,-1,13
 221 700 221 700 235.5 685.5 c 128,-1,14
 250 671 250 671 250 650 c 128,-1,15
 250 629 250 629 235.5 614.5 c 128,-1,8
 221 600 221 600 200 600 c 128,-1,9
300 600 m 128,-1,17
 279 600 279 600 264.5 614.5 c 128,-1,18
 250 629 250 629 250 650 c 128,-1,19
 250 671 250 671 264.5 685.5 c 128,-1,20
 279 700 279 700 300 700 c 128,-1,21
 321 700 321 700 335.5 685.5 c 128,-1,22
 350 671 350 671 350 650 c 128,-1,23
 350 629 350 629 335.5 614.5 c 128,-1,16
 321 600 321 600 300 600 c 128,-1,17
100 450 m 128,-1,25
 79 450 79 450 64.5 464.5 c 128,-1,26
 50 479 50 479 50 500 c 128,-1,27
 50 521 50 521 64.5 535.5 c 128,-1,28
 79 550 79 550 100 550 c 128,-1,29
 121 550 121 550 135.5 535.5 c 128,-1,30
 150 521 150 521 150 500 c 128,-1,31
 150 479 150 479 135.5 464.5 c 128,-1,24
 121 450 121 450 100 450 c 128,-1,25
100 300 m 128,-1,33
 79 300 79 300 64.5 314.5 c 128,-1,34
 50 329 50 329 50 350 c 128,-1,35
 50 371 50 371 64.5 385.5 c 128,-1,36
 79 400 79 400 100 400 c 128,-1,37
 121 400 121 400 135.5 385.5 c 128,-1,38
 150 371 150 371 150 350 c 128,-1,39
 150 329 150 329 135.5 314.5 c 128,-1,32
 121 300 121 300 100 300 c 128,-1,33
200 300 m 128,-1,41
 179 300 179 300 164.5 314.5 c 128,-1,42
 150 329 150 329 150 350 c 128,-1,43
 150 371 150 371 164.5 385.5 c 128,-1,44
 179 400 179 400 200 400 c 128,-1,45
 221 400 221 400 235.5 385.5 c 128,-1,46
 250 371 250 371 250 350 c 128,-1,47
 250 329 250 329 235.5 314.5 c 128,-1,40
 221 300 221 300 200 300 c 128,-1,41
100 150 m 128,-1,49
 79 150 79 150 64.5 164.5 c 128,-1,50
 50 179 50 179 50 200 c 128,-1,51
 50 221 50 221 64.5 235.5 c 128,-1,52
 79 250 79 250 100 250 c 128,-1,53
 121 250 121 250 135.5 235.5 c 128,-1,54
 150 221 150 221 150 200 c 128,-1,55
 150 179 150 179 135.5 164.5 c 128,-1,48
 121 150 121 150 100 150 c 128,-1,49
100 0 m 128,-1,57
 79 0 79 0 64.5 14.5 c 128,-1,58
 50 29 50 29 50 50 c 128,-1,59
 50 71 50 71 64.5 85.5 c 128,-1,60
 79 100 79 100 100 100 c 128,-1,61
 121 100 121 100 135.5 85.5 c 128,-1,62
 150 71 150 71 150 50 c 128,-1,63
 150 29 150 29 135.5 14.5 c 128,-1,56
 121 0 121 0 100 0 c 128,-1,57
200 0 m 128,-1,65
 179 0 179 0 164.5 14.5 c 128,-1,66
 150 29 150 29 150 50 c 128,-1,67
 150 71 150 71 164.5 85.5 c 128,-1,68
 179 100 179 100 200 100 c 128,-1,69
 221 100 221 100 235.5 85.5 c 128,-1,70
 250 71 250 71 250 50 c 128,-1,71
 250 29 250 29 235.5 14.5 c 128,-1,64
 221 0 221 0 200 0 c 128,-1,65
300 0 m 128,-1,73
 279 0 279 0 264.5 14.5 c 128,-1,74
 250 29 250 29 250 50 c 128,-1,75
 250 71 250 71 264.5 85.5 c 128,-1,76
 279 100 279 100 300 100 c 128,-1,77
 321 100 321 100 335.5 85.5 c 128,-1,78
 350 71 350 71 350 50 c 128,-1,79
 350 29 350 29 335.5 14.5 c 128,-1,72
 321 0 321 0 300 0 c 128,-1,73
EndSplineSet
EndChar

StartChar: F
Encoding: 70 70 41
Width: 400
GlyphClass: 1
Flags: W
LayerCount: 2
Fore
SplineSet
100 600 m 128,-1,1
 79 600 79 600 64.5 614.5 c 128,-1,2
 50 629 50 629 50 650 c 128,-1,3
 50 671 50 671 64.5 685.5 c 128,-1,4
 79 700 79 700 100 700 c 128,-1,5
 121 700 121 700 135.5 685.5 c 128,-1,6
 150 671 150 671 150 650 c 128,-1,7
 150 629 150 629 135.5 614.5 c 128,-1,0
 121 600 121 600 100 600 c 128,-1,1
200 600 m 128,-1,9
 179 600 179 600 164.5 614.5 c 128,-1,10
 150 629 150 629 150 650 c 128,-1,11
 150 671 150 671 164.5 685.5 c 128,-1,12
 179 700 179 700 200 700 c 128,-1,13
 221 700 221 700 235.5 685.5 c 128,-1,14
 250 671 250 671 250 650 c 128,-1,15
 250 629 250 629 235.5 614.5 c 128,-1,8
 221 600 221 600 200 600 c 128,-1,9
300 600 m 128,-1,17
 279 600 279 600 264.5 614.5 c 128,-1,18
 250 629 250 629 250 650 c 128,-1,19
 250 671 250 671 264.5 685.5 c 128,-1,20
 279 700 279 700 300 700 c 128,-1,21
 321 700 321 700 335.5 685.5 c 128,-1,22
 350 671 350 671 350 650 c 128,-1,23
 350 629 350 629 335.5 614.5 c 128,-1,16
 321 600 321 600 300 600 c 128,-1,17
100 450 m 128,-1,25
 79 450 79 450 64.5 464.5 c 128,-1,26
 50 479 50 479 50 500 c 128,-1,27
 50 521 50 521 64.5 535.5 c 128,-1,28
 79 550 79 550 100 550 c 128,-1,29
 121 550 121 550 135.5 535.5 c 128,-1,30
 150 521 150 521 150 500 c 128,-1,31
 150 479 150 479 135.5 464.5 c 128,-1,24
 121 450 121 450 100 450 c 128,-1,25
100 300 m 128,-1,33
 79 300 79 300 64.5 314.5 c 128,-1,34
 50 329 50 329 50 350 c 128,-1,35
 50 371 50 371 64.5 385.5 c 128,-1,36
 79 400 79 400 100 400 c 128,-1,37
 121 400 121 400 135.5 385.5 c 128,-1,38
 150 371 150 371 150 350 c 128,-1,39
 150 329 150 329 135.5 314.5 c 128,-1,32
 121 300 121 300 100 300 c 128,-1,33
200 300 m 128,-1,41
 179 300 179 300 164.5 314.5 c 128,-1,42
 150 329 150 329 150 350 c 128,-1,43
 150 371 150 371 164.5 385.5 c 128,-1,44
 179 400 179 400 200 400 c 128,-1,45
 221 400 221 400 235.5 385.5 c 128,-1,46
 250 371 250 371 250 350 c 128,-1,47
 250 329 250 329 235.5 314.5 c 128,-1,40
 221 300 221 300 200 300 c 128,-1,41
100 150 m 128,-1,49
 79 150 79 150 64.5 164.5 c 128,-1,50
 50 179 50 179 50 200 c 128,-1,51
 50 221 50 221 64.5 235.5 c 128,-1,52
 79 250 79 250 100 250 c 128,-1,53
 121 250 121 250 135.5 235.5 c 128,-1,54
 150 221 150 221 150 200 c 128,-1,55
 150 179 150 179 135.5 164.5 c 128,-1,48
 121 150 121 150 100 150 c 128,-1,49
100 0 m 128,-1,57
 79 0 79 0 64.5 14.5 c 128,-1,58
 50 29 50 29 50 50 c 128,-1,59
 50 71 50 71 64.5 85.5 c 128,-1,60
 79 100 79 100 100 100 c 128,-1,61
 121 100 121 100 135.5 85.5 c 128,-1,62
 150 71 150 71 150 50 c 128,-1,63
 150 29 150 29 135.5 14.5 c 128,-1,56
 121 0 121 0 100 0 c 128,-1,57
EndSplineSet
EndChar

StartChar: G
Encoding: 71 71 42
Width: 400
GlyphClass: 1
Flags: W
LayerCount: 2
Fore
SplineSet
200 600 m 128,-1,1
 179 600 179 600 164.5 614.5 c 128,-1,2
 150 629 150 629 150 650 c 128,-1,3
 150 671 150 671 164.5 685.5 c 128,-1,4
 179 700 179 700 200 700 c 128,-1,5
 221 700 221 700 235.5 685.5 c 128,-1,6
 250 671 250 671 250 650 c 128,-1,7
 250 629 250 629 235.5 614.5 c 128,-1,0
 221 600 221 600 200 600 c 128,-1,1
300 600 m 128,-1,9
 279 600 279 600 264.5 614.5 c 128,-1,10
 250 629 250 629 250 650 c 128,-1,11
 250 671 250 671 264.5 685.5 c 128,-1,12
 279 700 279 700 300 700 c 128,-1,13
 321 700 321 700 335.5 685.5 c 128,-1,14
 350 671 350 671 350 650 c 128,-1,15
 350 629 350 629 335.5 614.5 c 128,-1,8
 321 600 321 600 300 600 c 128,-1,9
100 450 m 128,-1,17
 79 450 79 450 64.5 464.5 c 128,-1,18
 50 479 50 479 50 500 c 128,-1,19
 50 521 50 521 64.5 535.5 c 128,-1,20
 79 550 79 550 100 550 c 128,-1,21
 121 550 121 550 135.5 535.5 c 128,-1,22
 150 521 150 521 150 500 c 128,-1,23
 150 479 150 479 135.5 464.5 c 128,-1,16
 121 450 121 450 100 450 c 128,-1,17
100 300 m 128,-1,25
 79 300 79 300 64.5 314.5 c 128,-1,26
 50 329 50 329 50 350 c 128,-1,27
 50 371 50 371 64.5 385.5 c 128,-1,28
 79 400 79 400 100 400 c 128,-1,29
 121 400 121 400 135.5 385.5 c 128,-1,30
 150 371 150 371 150 350 c 128,-1,31
 150 329 150 329 135.5 314.5 c 128,-1,24
 121 300 121 300 100 300 c 128,-1,25
300 300 m 128,-1,33
 279 300 279 300 264.5 314.5 c 128,-1,34
 250 329 250 329 250 350 c 128,-1,35
 250 371 250 371 264.5 385.5 c 128,-1,36
 279 400 279 400 300 400 c 128,-1,37
 321 400 321 400 335.5 385.5 c 128,-1,38
 350 371 350 371 350 350 c 128,-1,39
 350 329 350 329 335.5 314.5 c 128,-1,32
 321 300 321 300 300 300 c 128,-1,33
100 150 m 128,-1,41
 79 150 79 150 64.5 164.5 c 128,-1,42
 50 179 50 179 50 200 c 128,-1,43
 50 221 50 221 64.5 235.5 c 128,-1,44
 79 250 79 250 100 250 c 128,-1,45
 121 250 121 250 135.5 235.5 c 128,-1,46
 150 221 150 221 150 200 c 128,-1,47
 150 179 150 179 135.5 164.5 c 128,-1,40
 121 150 121 150 100 150 c 128,-1,41
300 150 m 128,-1,49
 279 150 279 150 264.5 164.5 c 128,-1,50
 250 179 250 179 250 200 c 128,-1,51
 250 221 250 221 264.5 235.5 c 128,-1,52
 279 250 279 250 300 250 c 128,-1,53
 321 250 321 250 335.5 235.5 c 128,-1,54
 350 221 350 221 350 200 c 128,-1,55
 350 179 350 179 335.5 164.5 c 128,-1,48
 321 150 321 150 300 150 c 128,-1,49
200 0 m 128,-1,57
 179 0 179 0 164.5 14.5 c 128,-1,58
 150 29 150 29 150 50 c 128,-1,59
 150 71 150 71 164.5 85.5 c 128,-1,60
 179 100 179 100 200 100 c 128,-1,61
 221 100 221 100 235.5 85.5 c 128,-1,62
 250 71 250 71 250 50 c 128,-1,63
 250 29 250 29 235.5 14.5 c 128,-1,56
 221 0 221 0 200 0 c 128,-1,57
EndSplineSet
EndChar

StartChar: H
Encoding: 72 72 43
Width: 400
GlyphClass: 1
Flags: W
LayerCount: 2
Fore
SplineSet
100 600 m 128,-1,1
 79 600 79 600 64.5 614.5 c 128,-1,2
 50 629 50 629 50 650 c 128,-1,3
 50 671 50 671 64.5 685.5 c 128,-1,4
 79 700 79 700 100 700 c 128,-1,5
 121 700 121 700 135.5 685.5 c 128,-1,6
 150 671 150 671 150 650 c 128,-1,7
 150 629 150 629 135.5 614.5 c 128,-1,0
 121 600 121 600 100 600 c 128,-1,1
300 600 m 128,-1,9
 279 600 279 600 264.5 614.5 c 128,-1,10
 250 629 250 629 250 650 c 128,-1,11
 250 671 250 671 264.5 685.5 c 128,-1,12
 279 700 279 700 300 700 c 128,-1,13
 321 700 321 700 335.5 685.5 c 128,-1,14
 350 671 350 671 350 650 c 128,-1,15
 350 629 350 629 335.5 614.5 c 128,-1,8
 321 600 321 600 300 600 c 128,-1,9
100 450 m 128,-1,17
 79 450 79 450 64.5 464.5 c 128,-1,18
 50 479 50 479 50 500 c 128,-1,19
 50 521 50 521 64.5 535.5 c 128,-1,20
 79 550 79 550 100 550 c 128,-1,21
 121 550 121 550 135.5 535.5 c 128,-1,22
 150 521 150 521 150 500 c 128,-1,23
 150 479 150 479 135.5 464.5 c 128,-1,16
 121 450 121 450 100 450 c 128,-1,17
300 450 m 128,-1,25
 279 450 279 450 264.5 464.5 c 128,-1,26
 250 479 250 479 250 500 c 128,-1,27
 250 521 250 521 264.5 535.5 c 128,-1,28
 279 550 279 550 300 550 c 128,-1,29
 321 550 321 550 335.5 535.5 c 128,-1,30
 350 521 350 521 350 500 c 128,-1,31
 350 479 350 479 335.5 464.5 c 128,-1,24
 321 450 321 450 300 450 c 128,-1,25
100 300 m 128,-1,33
 79 300 79 300 64.5 314.5 c 128,-1,34
 50 329 50 329 50 350 c 128,-1,35
 50 371 50 371 64.5 385.5 c 128,-1,36
 79 400 79 400 100 400 c 128,-1,37
 121 400 121 400 135.5 385.5 c 128,-1,38
 150 371 150 371 150 350 c 128,-1,39
 150 329 150 329 135.5 314.5 c 128,-1,32
 121 300 121 300 100 300 c 128,-1,33
200 300 m 128,-1,41
 179 300 179 300 164.5 314.5 c 128,-1,42
 150 329 150 329 150 350 c 128,-1,43
 150 371 150 371 164.5 385.5 c 128,-1,44
 179 400 179 400 200 400 c 128,-1,45
 221 400 221 400 235.5 385.5 c 128,-1,46
 250 371 250 371 250 350 c 128,-1,47
 250 329 250 329 235.5 314.5 c 128,-1,40
 221 300 221 300 200 300 c 128,-1,41
300 300 m 128,-1,49
 279 300 279 300 264.5 314.5 c 128,-1,50
 250 329 250 329 250 350 c 128,-1,51
 250 371 250 371 264.5 385.5 c 128,-1,52
 279 400 279 400 300 400 c 128,-1,53
 321 400 321 400 335.5 385.5 c 128,-1,54
 350 371 350 371 350 350 c 128,-1,55
 350 329 350 329 335.5 314.5 c 128,-1,48
 321 300 321 300 300 300 c 128,-1,49
100 150 m 128,-1,57
 79 150 79 150 64.5 164.5 c 128,-1,58
 50 179 50 179 50 200 c 128,-1,59
 50 221 50 221 64.5 235.5 c 128,-1,60
 79 250 79 250 100 250 c 128,-1,61
 121 250 121 250 135.5 235.5 c 128,-1,62
 150 221 150 221 150 200 c 128,-1,63
 150 179 150 179 135.5 164.5 c 128,-1,56
 121 150 121 150 100 150 c 128,-1,57
300 150 m 128,-1,65
 279 150 279 150 264.5 164.5 c 128,-1,66
 250 179 250 179 250 200 c 128,-1,67
 250 221 250 221 264.5 235.5 c 128,-1,68
 279 250 279 250 300 250 c 128,-1,69
 321 250 321 250 335.5 235.5 c 128,-1,70
 350 221 350 221 350 200 c 128,-1,71
 350 179 350 179 335.5 164.5 c 128,-1,64
 321 150 321 150 300 150 c 128,-1,65
100 0 m 128,-1,73
 79 0 79 0 64.5 14.5 c 128,-1,74
 50 29 50 29 50 50 c 128,-1,75
 50 71 50 71 64.5 85.5 c 128,-1,76
 79 100 79 100 100 100 c 128,-1,77
 121 100 121 100 135.5 85.5 c 128,-1,78
 150 71 150 71 150 50 c 128,-1,79
 150 29 150 29 135.5 14.5 c 128,-1,72
 121 0 121 0 100 0 c 128,-1,73
300 0 m 128,-1,81
 279 0 279 0 264.5 14.5 c 128,-1,82
 250 29 250 29 250 50 c 128,-1,83
 250 71 250 71 264.5 85.5 c 128,-1,84
 279 100 279 100 300 100 c 128,-1,85
 321 100 321 100 335.5 85.5 c 128,-1,86
 350 71 350 71 350 50 c 128,-1,87
 350 29 350 29 335.5 14.5 c 128,-1,80
 321 0 321 0 300 0 c 128,-1,81
EndSplineSet
EndChar

StartChar: I
Encoding: 73 73 44
Width: 400
GlyphClass: 1
Flags: W
LayerCount: 2
Fore
SplineSet
100 600 m 128,-1,1
 79 600 79 600 64.5 614.5 c 128,-1,2
 50 629 50 629 50 650 c 128,-1,3
 50 671 50 671 64.5 685.5 c 128,-1,4
 79 700 79 700 100 700 c 128,-1,5
 121 700 121 700 135.5 685.5 c 128,-1,6
 150 671 150 671 150 650 c 128,-1,7
 150 629 150 629 135.5 614.5 c 128,-1,0
 121 600 121 600 100 600 c 128,-1,1
200 600 m 128,-1,9
 179 600 179 600 164.5 614.5 c 128,-1,10
 150 629 150 629 150 650 c 128,-1,11
 150 671 150 671 164.5 685.5 c 128,-1,12
 179 700 179 700 200 700 c 128,-1,13
 221 700 221 700 235.5 685.5 c 128,-1,14
 250 671 250 671 250 650 c 128,-1,15
 250 629 250 629 235.5 614.5 c 128,-1,8
 221 600 221 600 200 600 c 128,-1,9
300 600 m 128,-1,17
 279 600 279 600 264.5 614.5 c 128,-1,18
 250 629 250 629 250 650 c 128,-1,19
 250 671 250 671 264.5 685.5 c 128,-1,20
 279 700 279 700 300 700 c 128,-1,21
 321 700 321 700 335.5 685.5 c 128,-1,22
 350 671 350 671 350 650 c 128,-1,23
 350 629 350 629 335.5 614.5 c 128,-1,16
 321 600 321 600 300 600 c 128,-1,17
200 450 m 128,-1,25
 179 450 179 450 164.5 464.5 c 128,-1,26
 150 479 150 479 150 500 c 128,-1,27
 150 521 150 521 164.5 535.5 c 128,-1,28
 179 550 179 550 200 550 c 128,-1,29
 221 550 221 550 235.5 535.5 c 128,-1,30
 250 521 250 521 250 500 c 128,-1,31
 250 479 250 479 235.5 464.5 c 128,-1,24
 221 450 221 450 200 450 c 128,-1,25
200 300 m 128,-1,33
 179 300 179 300 164.5 314.5 c 128,-1,34
 150 329 150 329 150 350 c 128,-1,35
 150 371 150 371 164.5 385.5 c 128,-1,36
 179 400 179 400 200 400 c 128,-1,37
 221 400 221 400 235.5 385.5 c 128,-1,38
 250 371 250 371 250 350 c 128,-1,39
 250 329 250 329 235.5 314.5 c 128,-1,32
 221 300 221 300 200 300 c 128,-1,33
200 150 m 128,-1,41
 179 150 179 150 164.5 164.5 c 128,-1,42
 150 179 150 179 150 200 c 128,-1,43
 150 221 150 221 164.5 235.5 c 128,-1,44
 179 250 179 250 200 250 c 128,-1,45
 221 250 221 250 235.5 235.5 c 128,-1,46
 250 221 250 221 250 200 c 128,-1,47
 250 179 250 179 235.5 164.5 c 128,-1,40
 221 150 221 150 200 150 c 128,-1,41
100 0 m 128,-1,49
 79 0 79 0 64.5 14.5 c 128,-1,50
 50 29 50 29 50 50 c 128,-1,51
 50 71 50 71 64.5 85.5 c 128,-1,52
 79 100 79 100 100 100 c 128,-1,53
 121 100 121 100 135.5 85.5 c 128,-1,54
 150 71 150 71 150 50 c 128,-1,55
 150 29 150 29 135.5 14.5 c 128,-1,48
 121 0 121 0 100 0 c 128,-1,49
200 0 m 128,-1,57
 179 0 179 0 164.5 14.5 c 128,-1,58
 150 29 150 29 150 50 c 128,-1,59
 150 71 150 71 164.5 85.5 c 128,-1,60
 179 100 179 100 200 100 c 128,-1,61
 221 100 221 100 235.5 85.5 c 128,-1,62
 250 71 250 71 250 50 c 128,-1,63
 250 29 250 29 235.5 14.5 c 128,-1,56
 221 0 221 0 200 0 c 128,-1,57
300 0 m 128,-1,65
 279 0 279 0 264.5 14.5 c 128,-1,66
 250 29 250 29 250 50 c 128,-1,67
 250 71 250 71 264.5 85.5 c 128,-1,68
 279 100 279 100 300 100 c 128,-1,69
 321 100 321 100 335.5 85.5 c 128,-1,70
 350 71 350 71 350 50 c 128,-1,71
 350 29 350 29 335.5 14.5 c 128,-1,64
 321 0 321 0 300 0 c 128,-1,65
EndSplineSet
EndChar

StartChar: J
Encoding: 74 74 45
Width: 400
GlyphClass: 1
Flags: W
LayerCount: 2
Fore
SplineSet
300 600 m 128,-1,1
 279 600 279 600 264.5 614.5 c 128,-1,2
 250 629 250 629 250 650 c 128,-1,3
 250 671 250 671 264.5 685.5 c 128,-1,4
 279 700 279 700 300 700 c 128,-1,5
 321 700 321 700 335.5 685.5 c 128,-1,6
 350 671 350 671 350 650 c 128,-1,7
 350 629 350 629 335.5 614.5 c 128,-1,0
 321 600 321 600 300 600 c 128,-1,1
300 450 m 128,-1,9
 279 450 279 450 264.5 464.5 c 128,-1,10
 250 479 250 479 250 500 c 128,-1,11
 250 521 250 521 264.5 535.5 c 128,-1,12
 279 550 279 550 300 550 c 128,-1,13
 321 550 321 550 335.5 535.5 c 128,-1,14
 350 521 350 521 350 500 c 128,-1,15
 350 479 350 479 335.5 464.5 c 128,-1,8
 321 450 321 450 300 450 c 128,-1,9
300 300 m 128,-1,17
 279 300 279 300 264.5 314.5 c 128,-1,18
 250 329 250 329 250 350 c 128,-1,19
 250 371 250 371 264.5 385.5 c 128,-1,20
 279 400 279 400 300 400 c 128,-1,21
 321 400 321 400 335.5 385.5 c 128,-1,22
 350 371 350 371 350 350 c 128,-1,23
 350 329 350 329 335.5 314.5 c 128,-1,16
 321 300 321 300 300 300 c 128,-1,17
100 150 m 128,-1,25
 79 150 79 150 64.5 164.5 c 128,-1,26
 50 179 50 179 50 200 c 128,-1,27
 50 221 50 221 64.5 235.5 c 128,-1,28
 79 250 79 250 100 250 c 128,-1,29
 121 250 121 250 135.5 235.5 c 128,-1,30
 150 221 150 221 150 200 c 128,-1,31
 150 179 150 179 135.5 164.5 c 128,-1,24
 121 150 121 150 100 150 c 128,-1,25
300 150 m 128,-1,33
 279 150 279 150 264.5 164.5 c 128,-1,34
 250 179 250 179 250 200 c 128,-1,35
 250 221 250 221 264.5 235.5 c 128,-1,36
 279 250 279 250 300 250 c 128,-1,37
 321 250 321 250 335.5 235.5 c 128,-1,38
 350 221 350 221 350 200 c 128,-1,39
 350 179 350 179 335.5 164.5 c 128,-1,32
 321 150 321 150 300 150 c 128,-1,33
200 0 m 128,-1,41
 179 0 179 0 164.5 14.5 c 128,-1,42
 150 29 150 29 150 50 c 128,-1,43
 150 71 150 71 164.5 85.5 c 128,-1,44
 179 100 179 100 200 100 c 128,-1,45
 221 100 221 100 235.5 85.5 c 128,-1,46
 250 71 250 71 250 50 c 128,-1,47
 250 29 250 29 235.5 14.5 c 128,-1,40
 221 0 221 0 200 0 c 128,-1,41
EndSplineSet
EndChar

StartChar: K
Encoding: 75 75 46
Width: 400
GlyphClass: 1
Flags: W
LayerCount: 2
Fore
SplineSet
100 600 m 128,-1,1
 79 600 79 600 64.5 614.5 c 128,-1,2
 50 629 50 629 50 650 c 128,-1,3
 50 671 50 671 64.5 685.5 c 128,-1,4
 79 700 79 700 100 700 c 128,-1,5
 121 700 121 700 135.5 685.5 c 128,-1,6
 150 671 150 671 150 650 c 128,-1,7
 150 629 150 629 135.5 614.5 c 128,-1,0
 121 600 121 600 100 600 c 128,-1,1
300 600 m 128,-1,9
 279 600 279 600 264.5 614.5 c 128,-1,10
 250 629 250 629 250 650 c 128,-1,11
 250 671 250 671 264.5 685.5 c 128,-1,12
 279 700 279 700 300 700 c 128,-1,13
 321 700 321 700 335.5 685.5 c 128,-1,14
 350 671 350 671 350 650 c 128,-1,15
 350 629 350 629 335.5 614.5 c 128,-1,8
 321 600 321 600 300 600 c 128,-1,9
100 450 m 128,-1,17
 79 450 79 450 64.5 464.5 c 128,-1,18
 50 479 50 479 50 500 c 128,-1,19
 50 521 50 521 64.5 535.5 c 128,-1,20
 79 550 79 550 100 550 c 128,-1,21
 121 550 121 550 135.5 535.5 c 128,-1,22
 150 521 150 521 150 500 c 128,-1,23
 150 479 150 479 135.5 464.5 c 128,-1,16
 121 450 121 450 100 450 c 128,-1,17
300 450 m 128,-1,25
 279 450 279 450 264.5 464.5 c 128,-1,26
 250 479 250 479 250 500 c 128,-1,27
 250 521 250 521 264.5 535.5 c 128,-1,28
 279 550 279 550 300 550 c 128,-1,29
 321 550 321 550 335.5 535.5 c 128,-1,30
 350 521 350 521 350 500 c 128,-1,31
 350 479 350 479 335.5 464.5 c 128,-1,24
 321 450 321 450 300 450 c 128,-1,25
100 300 m 128,-1,33
 79 300 79 300 64.5 314.5 c 128,-1,34
 50 329 50 329 50 350 c 128,-1,35
 50 371 50 371 64.5 385.5 c 128,-1,36
 79 400 79 400 100 400 c 128,-1,37
 121 400 121 400 135.5 385.5 c 128,-1,38
 150 371 150 371 150 350 c 128,-1,39
 150 329 150 329 135.5 314.5 c 128,-1,32
 121 300 121 300 100 300 c 128,-1,33
200 300 m 128,-1,41
 179 300 179 300 164.5 314.5 c 128,-1,42
 150 329 150 329 150 350 c 128,-1,43
 150 371 150 371 164.5 385.5 c 128,-1,44
 179 400 179 400 200 400 c 128,-1,45
 221 400 221 400 235.5 385.5 c 128,-1,46
 250 371 250 371 250 350 c 128,-1,47
 250 329 250 329 235.5 314.5 c 128,-1,40
 221 300 221 300 200 300 c 128,-1,41
100 150 m 128,-1,49
 79 150 79 150 64.5 164.5 c 128,-1,50
 50 179 50 179 50 200 c 128,-1,51
 50 221 50 221 64.5 235.5 c 128,-1,52
 79 250 79 250 100 250 c 128,-1,53
 121 250 121 250 135.5 235.5 c 128,-1,54
 150 221 150 221 150 200 c 128,-1,55
 150 179 150 179 135.5 164.5 c 128,-1,48
 121 150 121 150 100 150 c 128,-1,49
300 150 m 128,-1,57
 279 150 279 150 264.5 164.5 c 128,-1,58
 250 179 250 179 250 200 c 128,-1,59
 250 221 250 221 264.5 235.5 c 128,-1,60
 279 250 279 250 300 250 c 128,-1,61
 321 250 321 250 335.5 235.5 c 128,-1,62
 350 221 350 221 350 200 c 128,-1,63
 350 179 350 179 335.5 164.5 c 128,-1,56
 321 150 321 150 300 150 c 128,-1,57
100 0 m 128,-1,65
 79 0 79 0 64.5 14.5 c 128,-1,66
 50 29 50 29 50 50 c 128,-1,67
 50 71 50 71 64.5 85.5 c 128,-1,68
 79 100 79 100 100 100 c 128,-1,69
 121 100 121 100 135.5 85.5 c 128,-1,70
 150 71 150 71 150 50 c 128,-1,71
 150 29 150 29 135.5 14.5 c 128,-1,64
 121 0 121 0 100 0 c 128,-1,65
300 0 m 128,-1,73
 279 0 279 0 264.5 14.5 c 128,-1,74
 250 29 250 29 250 50 c 128,-1,75
 250 71 250 71 264.5 85.5 c 128,-1,76
 279 100 279 100 300 100 c 128,-1,77
 321 100 321 100 335.5 85.5 c 128,-1,78
 350 71 350 71 350 50 c 128,-1,79
 350 29 350 29 335.5 14.5 c 128,-1,72
 321 0 321 0 300 0 c 128,-1,73
EndSplineSet
EndChar

StartChar: L
Encoding: 76 76 47
Width: 400
GlyphClass: 1
Flags: W
LayerCount: 2
Fore
SplineSet
100 600 m 128,-1,1
 79 600 79 600 64.5 614.5 c 128,-1,2
 50 629 50 629 50 650 c 128,-1,3
 50 671 50 671 64.5 685.5 c 128,-1,4
 79 700 79 700 100 700 c 128,-1,5
 121 700 121 700 135.5 685.5 c 128,-1,6
 150 671 150 671 150 650 c 128,-1,7
 150 629 150 629 135.5 614.5 c 128,-1,0
 121 600 121 600 100 600 c 128,-1,1
100 450 m 128,-1,9
 79 450 79 450 64.5 464.5 c 128,-1,10
 50 479 50 479 50 500 c 128,-1,11
 50 521 50 521 64.5 535.5 c 128,-1,12
 79 550 79 550 100 550 c 128,-1,13
 121 550 121 550 135.5 535.5 c 128,-1,14
 150 521 150 521 150 500 c 128,-1,15
 150 479 150 479 135.5 464.5 c 128,-1,8
 121 450 121 450 100 450 c 128,-1,9
100 300 m 128,-1,17
 79 300 79 300 64.5 314.5 c 128,-1,18
 50 329 50 329 50 350 c 128,-1,19
 50 371 50 371 64.5 385.5 c 128,-1,20
 79 400 79 400 100 400 c 128,-1,21
 121 400 121 400 135.5 385.5 c 128,-1,22
 150 371 150 371 150 350 c 128,-1,23
 150 329 150 329 135.5 314.5 c 128,-1,16
 121 300 121 300 100 300 c 128,-1,17
100 150 m 128,-1,25
 79 150 79 150 64.5 164.5 c 128,-1,26
 50 179 50 179 50 200 c 128,-1,27
 50 221 50 221 64.5 235.5 c 128,-1,28
 79 250 79 250 100 250 c 128,-1,29
 121 250 121 250 135.5 235.5 c 128,-1,30
 150 221 150 221 150 200 c 128,-1,31
 150 179 150 179 135.5 164.5 c 128,-1,24
 121 150 121 150 100 150 c 128,-1,25
100 0 m 128,-1,33
 79 0 79 0 64.5 14.5 c 128,-1,34
 50 29 50 29 50 50 c 128,-1,35
 50 71 50 71 64.5 85.5 c 128,-1,36
 79 100 79 100 100 100 c 128,-1,37
 121 100 121 100 135.5 85.5 c 128,-1,38
 150 71 150 71 150 50 c 128,-1,39
 150 29 150 29 135.5 14.5 c 128,-1,32
 121 0 121 0 100 0 c 128,-1,33
200 0 m 128,-1,41
 179 0 179 0 164.5 14.5 c 128,-1,42
 150 29 150 29 150 50 c 128,-1,43
 150 71 150 71 164.5 85.5 c 128,-1,44
 179 100 179 100 200 100 c 128,-1,45
 221 100 221 100 235.5 85.5 c 128,-1,46
 250 71 250 71 250 50 c 128,-1,47
 250 29 250 29 235.5 14.5 c 128,-1,40
 221 0 221 0 200 0 c 128,-1,41
300 0 m 128,-1,49
 279 0 279 0 264.5 14.5 c 128,-1,50
 250 29 250 29 250 50 c 128,-1,51
 250 71 250 71 264.5 85.5 c 128,-1,52
 279 100 279 100 300 100 c 128,-1,53
 321 100 321 100 335.5 85.5 c 128,-1,54
 350 71 350 71 350 50 c 128,-1,55
 350 29 350 29 335.5 14.5 c 128,-1,48
 321 0 321 0 300 0 c 128,-1,49
EndSplineSet
EndChar

StartChar: M
Encoding: 77 77 48
Width: 400
GlyphClass: 1
Flags: W
LayerCount: 2
Fore
SplineSet
100 600 m 128,-1,1
 79 600 79 600 64.5 614.5 c 128,-1,2
 50 629 50 629 50 650 c 128,-1,3
 50 671 50 671 64.5 685.5 c 128,-1,4
 79 700 79 700 100 700 c 128,-1,5
 121 700 121 700 135.5 685.5 c 128,-1,6
 150 671 150 671 150 650 c 128,-1,7
 150 629 150 629 135.5 614.5 c 128,-1,0
 121 600 121 600 100 600 c 128,-1,1
300 600 m 128,-1,9
 279 600 279 600 264.5 614.5 c 128,-1,10
 250 629 250 629 250 650 c 128,-1,11
 250 671 250 671 264.5 685.5 c 128,-1,12
 279 700 279 700 300 700 c 128,-1,13
 321 700 321 700 335.5 685.5 c 128,-1,14
 350 671 350 671 350 650 c 128,-1,15
 350 629 350 629 335.5 614.5 c 128,-1,8
 321 600 321 600 300 600 c 128,-1,9
100 450 m 128,-1,17
 79 450 79 450 64.5 464.5 c 128,-1,18
 50 479 50 479 50 500 c 128,-1,19
 50 521 50 521 64.5 535.5 c 128,-1,20
 79 550 79 550 100 550 c 128,-1,21
 121 550 121 550 135.5 535.5 c 128,-1,22
 150 521 150 521 150 500 c 128,-1,23
 150 479 150 479 135.5 464.5 c 128,-1,16
 121 450 121 450 100 450 c 128,-1,17
200 450 m 128,-1,25
 179 450 179 450 164.5 464.5 c 128,-1,26
 150 479 150 479 150 500 c 128,-1,27
 150 521 150 521 164.5 535.5 c 128,-1,28
 179 550 179 550 200 550 c 128,-1,29
 221 550 221 550 235.5 535.5 c 128,-1,30
 250 521 250 521 250 500 c 128,-1,31
 250 479 250 479 235.5 464.5 c 128,-1,24
 221 450 221 450 200 450 c 128,-1,25
300 450 m 128,-1,33
 279 450 279 450 264.5 464.5 c 128,-1,34
 250 479 250 479 250 500 c 128,-1,35
 250 521 250 521 264.5 535.5 c 128,-1,36
 279 550 279 550 300 550 c 128,-1,37
 321 550 321 550 335.5 535.5 c 128,-1,38
 350 521 350 521 350 500 c 128,-1,39
 350 479 350 479 335.5 464.5 c 128,-1,32
 321 450 321 450 300 450 c 128,-1,33
100 300 m 128,-1,41
 79 300 79 300 64.5 314.5 c 128,-1,42
 50 329 50 329 50 350 c 128,-1,43
 50 371 50 371 64.5 385.5 c 128,-1,44
 79 400 79 400 100 400 c 128,-1,45
 121 400 121 400 135.5 385.5 c 128,-1,46
 150 371 150 371 150 350 c 128,-1,47
 150 329 150 329 135.5 314.5 c 128,-1,40
 121 300 121 300 100 300 c 128,-1,41
200 300 m 128,-1,49
 179 300 179 300 164.5 314.5 c 128,-1,50
 150 329 150 329 150 350 c 128,-1,51
 150 371 150 371 164.5 385.5 c 128,-1,52
 179 400 179 400 200 400 c 128,-1,53
 221 400 221 400 235.5 385.5 c 128,-1,54
 250 371 250 371 250 350 c 128,-1,55
 250 329 250 329 235.5 314.5 c 128,-1,48
 221 300 221 300 200 300 c 128,-1,49
300 300 m 128,-1,57
 279 300 279 300 264.5 314.5 c 128,-1,58
 250 329 250 329 250 350 c 128,-1,59
 250 371 250 371 264.5 385.5 c 128,-1,60
 279 400 279 400 300 400 c 128,-1,61
 321 400 321 400 335.5 385.5 c 128,-1,62
 350 371 350 371 350 350 c 128,-1,63
 350 329 350 329 335.5 314.5 c 128,-1,56
 321 300 321 300 300 300 c 128,-1,57
100 150 m 128,-1,65
 79 150 79 150 64.5 164.5 c 128,-1,66
 50 179 50 179 50 200 c 128,-1,67
 50 221 50 221 64.5 235.5 c 128,-1,68
 79 250 79 250 100 250 c 128,-1,69
 121 250 121 250 135.5 235.5 c 128,-1,70
 150 221 150 221 150 200 c 128,-1,71
 150 179 150 179 135.5 164.5 c 128,-1,64
 121 150 121 150 100 150 c 128,-1,65
300 150 m 128,-1,73
 279 150 279 150 264.5 164.5 c 128,-1,74
 250 179 250 179 250 200 c 128,-1,75
 250 221 250 221 264.5 235.5 c 128,-1,76
 279 250 279 250 300 250 c 128,-1,77
 321 250 321 250 335.5 235.5 c 128,-1,78
 350 221 350 221 350 200 c 128,-1,79
 350 179 350 179 335.5 164.5 c 128,-1,72
 321 150 321 150 300 150 c 128,-1,73
100 0 m 128,-1,81
 79 0 79 0 64.5 14.5 c 128,-1,82
 50 29 50 29 50 50 c 128,-1,83
 50 71 50 71 64.5 85.5 c 128,-1,84
 79 100 79 100 100 100 c 128,-1,85
 121 100 121 100 135.5 85.5 c 128,-1,86
 150 71 150 71 150 50 c 128,-1,87
 150 29 150 29 135.5 14.5 c 128,-1,80
 121 0 121 0 100 0 c 128,-1,81
300 0 m 128,-1,89
 279 0 279 0 264.5 14.5 c 128,-1,90
 250 29 250 29 250 50 c 128,-1,91
 250 71 250 71 264.5 85.5 c 128,-1,92
 279 100 279 100 300 100 c 128,-1,93
 321 100 321 100 335.5 85.5 c 128,-1,94
 350 71 350 71 350 50 c 128,-1,95
 350 29 350 29 335.5 14.5 c 128,-1,88
 321 0 321 0 300 0 c 128,-1,89
EndSplineSet
EndChar

StartChar: N
Encoding: 78 78 49
Width: 400
GlyphClass: 1
Flags: W
LayerCount: 2
Fore
SplineSet
100 600 m 128,-1,1
 79 600 79 600 64.5 614.5 c 128,-1,2
 50 629 50 629 50 650 c 128,-1,3
 50 671 50 671 64.5 685.5 c 128,-1,4
 79 700 79 700 100 700 c 128,-1,5
 121 700 121 700 135.5 685.5 c 128,-1,6
 150 671 150 671 150 650 c 128,-1,7
 150 629 150 629 135.5 614.5 c 128,-1,0
 121 600 121 600 100 600 c 128,-1,1
300 600 m 128,-1,9
 279 600 279 600 264.5 614.5 c 128,-1,10
 250 629 250 629 250 650 c 128,-1,11
 250 671 250 671 264.5 685.5 c 128,-1,12
 279 700 279 700 300 700 c 128,-1,13
 321 700 321 700 335.5 685.5 c 128,-1,14
 350 671 350 671 350 650 c 128,-1,15
 350 629 350 629 335.5 614.5 c 128,-1,8
 321 600 321 600 300 600 c 128,-1,9
100 450 m 128,-1,17
 79 450 79 450 64.5 464.5 c 128,-1,18
 50 479 50 479 50 500 c 128,-1,19
 50 521 50 521 64.5 535.5 c 128,-1,20
 79 550 79 550 100 550 c 128,-1,21
 121 550 121 550 135.5 535.5 c 128,-1,22
 150 521 150 521 150 500 c 128,-1,23
 150 479 150 479 135.5 464.5 c 128,-1,16
 121 450 121 450 100 450 c 128,-1,17
200 450 m 128,-1,25
 179 450 179 450 164.5 464.5 c 128,-1,26
 150 479 150 479 150 500 c 128,-1,27
 150 521 150 521 164.5 535.5 c 128,-1,28
 179 550 179 550 200 550 c 128,-1,29
 221 550 221 550 235.5 535.5 c 128,-1,30
 250 521 250 521 250 500 c 128,-1,31
 250 479 250 479 235.5 464.5 c 128,-1,24
 221 450 221 450 200 450 c 128,-1,25
300 450 m 128,-1,33
 279 450 279 450 264.5 464.5 c 128,-1,34
 250 479 250 479 250 500 c 128,-1,35
 250 521 250 521 264.5 535.5 c 128,-1,36
 279 550 279 550 300 550 c 128,-1,37
 321 550 321 550 335.5 535.5 c 128,-1,38
 350 521 350 521 350 500 c 128,-1,39
 350 479 350 479 335.5 464.5 c 128,-1,32
 321 450 321 450 300 450 c 128,-1,33
100 300 m 128,-1,41
 79 300 79 300 64.5 314.5 c 128,-1,42
 50 329 50 329 50 350 c 128,-1,43
 50 371 50 371 64.5 385.5 c 128,-1,44
 79 400 79 400 100 400 c 128,-1,45
 121 400 121 400 135.5 385.5 c 128,-1,46
 150 371 150 371 150 350 c 128,-1,47
 150 329 150 329 135.5 314.5 c 128,-1,40
 121 300 121 300 100 300 c 128,-1,41
200 300 m 128,-1,49
 179 300 179 300 164.5 314.5 c 128,-1,50
 150 329 150 329 150 350 c 128,-1,51
 150 371 150 371 164.5 385.5 c 128,-1,52
 179 400 179 400 200 400 c 128,-1,53
 221 400 221 400 235.5 385.5 c 128,-1,54
 250 371 250 371 250 350 c 128,-1,55
 250 329 250 329 235.5 314.5 c 128,-1,48
 221 300 221 300 200 300 c 128,-1,49
300 300 m 128,-1,57
 279 300 279 300 264.5 314.5 c 128,-1,58
 250 329 250 329 250 350 c 128,-1,59
 250 371 250 371 264.5 385.5 c 128,-1,60
 279 400 279 400 300 400 c 128,-1,61
 321 400 321 400 335.5 385.5 c 128,-1,62
 350 371 350 371 350 350 c 128,-1,63
 350 329 350 329 335.5 314.5 c 128,-1,56
 321 300 321 300 300 300 c 128,-1,57
100 150 m 128,-1,65
 79 150 79 150 64.5 164.5 c 128,-1,66
 50 179 50 179 50 200 c 128,-1,67
 50 221 50 221 64.5 235.5 c 128,-1,68
 79 250 79 250 100 250 c 128,-1,69
 121 250 121 250 135.5 235.5 c 128,-1,70
 150 221 150 221 150 200 c 128,-1,71
 150 179 150 179 135.5 164.5 c 128,-1,64
 121 150 121 150 100 150 c 128,-1,65
200 150 m 128,-1,73
 179 150 179 150 164.5 164.5 c 128,-1,74
 150 179 150 179 150 200 c 128,-1,75
 150 221 150 221 164.5 235.5 c 128,-1,76
 179 250 179 250 200 250 c 128,-1,77
 221 250 221 250 235.5 235.5 c 128,-1,78
 250 221 250 221 250 200 c 128,-1,79
 250 179 250 179 235.5 164.5 c 128,-1,72
 221 150 221 150 200 150 c 128,-1,73
300 150 m 128,-1,81
 279 150 279 150 264.5 164.5 c 128,-1,82
 250 179 250 179 250 200 c 128,-1,83
 250 221 250 221 264.5 235.5 c 128,-1,84
 279 250 279 250 300 250 c 128,-1,85
 321 250 321 250 335.5 235.5 c 128,-1,86
 350 221 350 221 350 200 c 128,-1,87
 350 179 350 179 335.5 164.5 c 128,-1,80
 321 150 321 150 300 150 c 128,-1,81
100 0 m 128,-1,89
 79 0 79 0 64.5 14.5 c 128,-1,90
 50 29 50 29 50 50 c 128,-1,91
 50 71 50 71 64.5 85.5 c 128,-1,92
 79 100 79 100 100 100 c 128,-1,93
 121 100 121 100 135.5 85.5 c 128,-1,94
 150 71 150 71 150 50 c 128,-1,95
 150 29 150 29 135.5 14.5 c 128,-1,88
 121 0 121 0 100 0 c 128,-1,89
300 0 m 128,-1,97
 279 0 279 0 264.5 14.5 c 128,-1,98
 250 29 250 29 250 50 c 128,-1,99
 250 71 250 71 264.5 85.5 c 128,-1,100
 279 100 279 100 300 100 c 128,-1,101
 321 100 321 100 335.5 85.5 c 128,-1,102
 350 71 350 71 350 50 c 128,-1,103
 350 29 350 29 335.5 14.5 c 128,-1,96
 321 0 321 0 300 0 c 128,-1,97
EndSplineSet
EndChar

StartChar: O
Encoding: 79 79 50
Width: 400
GlyphClass: 1
Flags: W
LayerCount: 2
Fore
SplineSet
200 600 m 128,-1,1
 179 600 179 600 164.5 614.5 c 128,-1,2
 150 629 150 629 150 650 c 128,-1,3
 150 671 150 671 164.5 685.5 c 128,-1,4
 179 700 179 700 200 700 c 128,-1,5
 221 700 221 700 235.5 685.5 c 128,-1,6
 250 671 250 671 250 650 c 128,-1,7
 250 629 250 629 235.5 614.5 c 128,-1,0
 221 600 221 600 200 600 c 128,-1,1
100 450 m 128,-1,9
 79 450 79 450 64.5 464.5 c 128,-1,10
 50 479 50 479 50 500 c 128,-1,11
 50 521 50 521 64.5 535.5 c 128,-1,12
 79 550 79 550 100 550 c 128,-1,13
 121 550 121 550 135.5 535.5 c 128,-1,14
 150 521 150 521 150 500 c 128,-1,15
 150 479 150 479 135.5 464.5 c 128,-1,8
 121 450 121 450 100 450 c 128,-1,9
300 450 m 128,-1,17
 279 450 279 450 264.5 464.5 c 128,-1,18
 250 479 250 479 250 500 c 128,-1,19
 250 521 250 521 264.5 535.5 c 128,-1,20
 279 550 279 550 300 550 c 128,-1,21
 321 550 321 550 335.5 535.5 c 128,-1,22
 350 521 350 521 350 500 c 128,-1,23
 350 479 350 479 335.5 464.5 c 128,-1,16
 321 450 321 450 300 450 c 128,-1,17
100 300 m 128,-1,25
 79 300 79 300 64.5 314.5 c 128,-1,26
 50 329 50 329 50 350 c 128,-1,27
 50 371 50 371 64.5 385.5 c 128,-1,28
 79 400 79 400 100 400 c 128,-1,29
 121 400 121 400 135.5 385.5 c 128,-1,30
 150 371 150 371 150 350 c 128,-1,31
 150 329 150 329 135.5 314.5 c 128,-1,24
 121 300 121 300 100 300 c 128,-1,25
300 300 m 128,-1,33
 279 300 279 300 264.5 314.5 c 128,-1,34
 250 329 250 329 250 350 c 128,-1,35
 250 371 250 371 264.5 385.5 c 128,-1,36
 279 400 279 400 300 400 c 128,-1,37
 321 400 321 400 335.5 385.5 c 128,-1,38
 350 371 350 371 350 350 c 128,-1,39
 350 329 350 329 335.5 314.5 c 128,-1,32
 321 300 321 300 300 300 c 128,-1,33
100 150 m 128,-1,41
 79 150 79 150 64.5 164.5 c 128,-1,42
 50 179 50 179 50 200 c 128,-1,43
 50 221 50 221 64.5 235.5 c 128,-1,44
 79 250 79 250 100 250 c 128,-1,45
 121 250 121 250 135.5 235.5 c 128,-1,46
 150 221 150 221 150 200 c 128,-1,47
 150 179 150 179 135.5 164.5 c 128,-1,40
 121 150 121 150 100 150 c 128,-1,41
300 150 m 128,-1,49
 279 150 279 150 264.5 164.5 c 128,-1,50
 250 179 250 179 250 200 c 128,-1,51
 250 221 250 221 264.5 235.5 c 128,-1,52
 279 250 279 250 300 250 c 128,-1,53
 321 250 321 250 335.5 235.5 c 128,-1,54
 350 221 350 221 350 200 c 128,-1,55
 350 179 350 179 335.5 164.5 c 128,-1,48
 321 150 321 150 300 150 c 128,-1,49
200 0 m 128,-1,57
 179 0 179 0 164.5 14.5 c 128,-1,58
 150 29 150 29 150 50 c 128,-1,59
 150 71 150 71 164.5 85.5 c 128,-1,60
 179 100 179 100 200 100 c 128,-1,61
 221 100 221 100 235.5 85.5 c 128,-1,62
 250 71 250 71 250 50 c 128,-1,63
 250 29 250 29 235.5 14.5 c 128,-1,56
 221 0 221 0 200 0 c 128,-1,57
EndSplineSet
EndChar

StartChar: P
Encoding: 80 80 51
Width: 400
GlyphClass: 1
Flags: W
LayerCount: 2
Fore
SplineSet
100 600 m 128,-1,1
 79 600 79 600 64.5 614.5 c 128,-1,2
 50 629 50 629 50 650 c 128,-1,3
 50 671 50 671 64.5 685.5 c 128,-1,4
 79 700 79 700 100 700 c 128,-1,5
 121 700 121 700 135.5 685.5 c 128,-1,6
 150 671 150 671 150 650 c 128,-1,7
 150 629 150 629 135.5 614.5 c 128,-1,0
 121 600 121 600 100 600 c 128,-1,1
200 600 m 128,-1,9
 179 600 179 600 164.5 614.5 c 128,-1,10
 150 629 150 629 150 650 c 128,-1,11
 150 671 150 671 164.5 685.5 c 128,-1,12
 179 700 179 700 200 700 c 128,-1,13
 221 700 221 700 235.5 685.5 c 128,-1,14
 250 671 250 671 250 650 c 128,-1,15
 250 629 250 629 235.5 614.5 c 128,-1,8
 221 600 221 600 200 600 c 128,-1,9
100 450 m 128,-1,17
 79 450 79 450 64.5 464.5 c 128,-1,18
 50 479 50 479 50 500 c 128,-1,19
 50 521 50 521 64.5 535.5 c 128,-1,20
 79 550 79 550 100 550 c 128,-1,21
 121 550 121 550 135.5 535.5 c 128,-1,22
 150 521 150 521 150 500 c 128,-1,23
 150 479 150 479 135.5 464.5 c 128,-1,16
 121 450 121 450 100 450 c 128,-1,17
300 450 m 128,-1,25
 279 450 279 450 264.5 464.5 c 128,-1,26
 250 479 250 479 250 500 c 128,-1,27
 250 521 250 521 264.5 535.5 c 128,-1,28
 279 550 279 550 300 550 c 128,-1,29
 321 550 321 550 335.5 535.5 c 128,-1,30
 350 521 350 521 350 500 c 128,-1,31
 350 479 350 479 335.5 464.5 c 128,-1,24
 321 450 321 450 300 450 c 128,-1,25
100 300 m 128,-1,33
 79 300 79 300 64.5 314.5 c 128,-1,34
 50 329 50 329 50 350 c 128,-1,35
 50 371 50 371 64.5 385.5 c 128,-1,36
 79 400 79 400 100 400 c 128,-1,37
 121 400 121 400 135.5 385.5 c 128,-1,38
 150 371 150 371 150 350 c 128,-1,39
 150 329 150 329 135.5 314.5 c 128,-1,32
 121 300 121 300 100 300 c 128,-1,33
200 300 m 128,-1,41
 179 300 179 300 164.5 314.5 c 128,-1,42
 150 329 150 329 150 350 c 128,-1,43
 150 371 150 371 164.5 385.5 c 128,-1,44
 179 400 179 400 200 400 c 128,-1,45
 221 400 221 400 235.5 385.5 c 128,-1,46
 250 371 250 371 250 350 c 128,-1,47
 250 329 250 329 235.5 314.5 c 128,-1,40
 221 300 221 300 200 300 c 128,-1,41
100 150 m 128,-1,49
 79 150 79 150 64.5 164.5 c 128,-1,50
 50 179 50 179 50 200 c 128,-1,51
 50 221 50 221 64.5 235.5 c 128,-1,52
 79 250 79 250 100 250 c 128,-1,53
 121 250 121 250 135.5 235.5 c 128,-1,54
 150 221 150 221 150 200 c 128,-1,55
 150 179 150 179 135.5 164.5 c 128,-1,48
 121 150 121 150 100 150 c 128,-1,49
100 0 m 128,-1,57
 79 0 79 0 64.5 14.5 c 128,-1,58
 50 29 50 29 50 50 c 128,-1,59
 50 71 50 71 64.5 85.5 c 128,-1,60
 79 100 79 100 100 100 c 128,-1,61
 121 100 121 100 135.5 85.5 c 128,-1,62
 150 71 150 71 150 50 c 128,-1,63
 150 29 150 29 135.5 14.5 c 128,-1,56
 121 0 121 0 100 0 c 128,-1,57
EndSplineSet
EndChar

StartChar: Q
Encoding: 81 81 52
Width: 400
GlyphClass: 1
Flags: W
LayerCount: 2
Fore
SplineSet
200 600 m 128,-1,1
 179 600 179 600 164.5 614.5 c 128,-1,2
 150 629 150 629 150 650 c 128,-1,3
 150 671 150 671 164.5 685.5 c 128,-1,4
 179 700 179 700 200 700 c 128,-1,5
 221 700 221 700 235.5 685.5 c 128,-1,6
 250 671 250 671 250 650 c 128,-1,7
 250 629 250 629 235.5 614.5 c 128,-1,0
 221 600 221 600 200 600 c 128,-1,1
100 450 m 128,-1,9
 79 450 79 450 64.5 464.5 c 128,-1,10
 50 479 50 479 50 500 c 128,-1,11
 50 521 50 521 64.5 535.5 c 128,-1,12
 79 550 79 550 100 550 c 128,-1,13
 121 550 121 550 135.5 535.5 c 128,-1,14
 150 521 150 521 150 500 c 128,-1,15
 150 479 150 479 135.5 464.5 c 128,-1,8
 121 450 121 450 100 450 c 128,-1,9
300 450 m 128,-1,17
 279 450 279 450 264.5 464.5 c 128,-1,18
 250 479 250 479 250 500 c 128,-1,19
 250 521 250 521 264.5 535.5 c 128,-1,20
 279 550 279 550 300 550 c 128,-1,21
 321 550 321 550 335.5 535.5 c 128,-1,22
 350 521 350 521 350 500 c 128,-1,23
 350 479 350 479 335.5 464.5 c 128,-1,16
 321 450 321 450 300 450 c 128,-1,17
100 300 m 128,-1,25
 79 300 79 300 64.5 314.5 c 128,-1,26
 50 329 50 329 50 350 c 128,-1,27
 50 371 50 371 64.5 385.5 c 128,-1,28
 79 400 79 400 100 400 c 128,-1,29
 121 400 121 400 135.5 385.5 c 128,-1,30
 150 371 150 371 150 350 c 128,-1,31
 150 329 150 329 135.5 314.5 c 128,-1,24
 121 300 121 300 100 300 c 128,-1,25
300 300 m 128,-1,33
 279 300 279 300 264.5 314.5 c 128,-1,34
 250 329 250 329 250 350 c 128,-1,35
 250 371 250 371 264.5 385.5 c 128,-1,36
 279 400 279 400 300 400 c 128,-1,37
 321 400 321 400 335.5 385.5 c 128,-1,38
 350 371 350 371 350 350 c 128,-1,39
 350 329 350 329 335.5 314.5 c 128,-1,32
 321 300 321 300 300 300 c 128,-1,33
100 150 m 128,-1,41
 79 150 79 150 64.5 164.5 c 128,-1,42
 50 179 50 179 50 200 c 128,-1,43
 50 221 50 221 64.5 235.5 c 128,-1,44
 79 250 79 250 100 250 c 128,-1,45
 121 250 121 250 135.5 235.5 c 128,-1,46
 150 221 150 221 150 200 c 128,-1,47
 150 179 150 179 135.5 164.5 c 128,-1,40
 121 150 121 150 100 150 c 128,-1,41
300 150 m 128,-1,49
 279 150 279 150 264.5 164.5 c 128,-1,50
 250 179 250 179 250 200 c 128,-1,51
 250 221 250 221 264.5 235.5 c 128,-1,52
 279 250 279 250 300 250 c 128,-1,53
 321 250 321 250 335.5 235.5 c 128,-1,54
 350 221 350 221 350 200 c 128,-1,55
 350 179 350 179 335.5 164.5 c 128,-1,48
 321 150 321 150 300 150 c 128,-1,49
200 0 m 128,-1,57
 179 0 179 0 164.5 14.5 c 128,-1,58
 150 29 150 29 150 50 c 128,-1,59
 150 71 150 71 164.5 85.5 c 128,-1,60
 179 100 179 100 200 100 c 128,-1,61
 221 100 221 100 235.5 85.5 c 128,-1,62
 250 71 250 71 250 50 c 128,-1,63
 250 29 250 29 235.5 14.5 c 128,-1,56
 221 0 221 0 200 0 c 128,-1,57
300 0 m 128,-1,65
 279 0 279 0 264.5 14.5 c 128,-1,66
 250 29 250 29 250 50 c 128,-1,67
 250 71 250 71 264.5 85.5 c 128,-1,68
 279 100 279 100 300 100 c 128,-1,69
 321 100 321 100 335.5 85.5 c 128,-1,70
 350 71 350 71 350 50 c 128,-1,71
 350 29 350 29 335.5 14.5 c 128,-1,64
 321 0 321 0 300 0 c 128,-1,65
EndSplineSet
EndChar

StartChar: R
Encoding: 82 82 53
Width: 400
GlyphClass: 1
Flags: W
LayerCount: 2
Fore
SplineSet
100 600 m 128,-1,1
 79 600 79 600 64.5 614.5 c 128,-1,2
 50 629 50 629 50 650 c 128,-1,3
 50 671 50 671 64.5 685.5 c 128,-1,4
 79 700 79 700 100 700 c 128,-1,5
 121 700 121 700 135.5 685.5 c 128,-1,6
 150 671 150 671 150 650 c 128,-1,7
 150 629 150 629 135.5 614.5 c 128,-1,0
 121 600 121 600 100 600 c 128,-1,1
200 600 m 128,-1,9
 179 600 179 600 164.5 614.5 c 128,-1,10
 150 629 150 629 150 650 c 128,-1,11
 150 671 150 671 164.5 685.5 c 128,-1,12
 179 700 179 700 200 700 c 128,-1,13
 221 700 221 700 235.5 685.5 c 128,-1,14
 250 671 250 671 250 650 c 128,-1,15
 250 629 250 629 235.5 614.5 c 128,-1,8
 221 600 221 600 200 600 c 128,-1,9
100 450 m 128,-1,17
 79 450 79 450 64.5 464.5 c 128,-1,18
 50 479 50 479 50 500 c 128,-1,19
 50 521 50 521 64.5 535.5 c 128,-1,20
 79 550 79 550 100 550 c 128,-1,21
 121 550 121 550 135.5 535.5 c 128,-1,22
 150 521 150 521 150 500 c 128,-1,23
 150 479 150 479 135.5 464.5 c 128,-1,16
 121 450 121 450 100 450 c 128,-1,17
300 450 m 128,-1,25
 279 450 279 450 264.5 464.5 c 128,-1,26
 250 479 250 479 250 500 c 128,-1,27
 250 521 250 521 264.5 535.5 c 128,-1,28
 279 550 279 550 300 550 c 128,-1,29
 321 550 321 550 335.5 535.5 c 128,-1,30
 350 521 350 521 350 500 c 128,-1,31
 350 479 350 479 335.5 464.5 c 128,-1,24
 321 450 321 450 300 450 c 128,-1,25
100 300 m 128,-1,33
 79 300 79 300 64.5 314.5 c 128,-1,34
 50 329 50 329 50 350 c 128,-1,35
 50 371 50 371 64.5 385.5 c 128,-1,36
 79 400 79 400 100 400 c 128,-1,37
 121 400 121 400 135.5 385.5 c 128,-1,38
 150 371 150 371 150 350 c 128,-1,39
 150 329 150 329 135.5 314.5 c 128,-1,32
 121 300 121 300 100 300 c 128,-1,33
200 300 m 128,-1,41
 179 300 179 300 164.5 314.5 c 128,-1,42
 150 329 150 329 150 350 c 128,-1,43
 150 371 150 371 164.5 385.5 c 128,-1,44
 179 400 179 400 200 400 c 128,-1,45
 221 400 221 400 235.5 385.5 c 128,-1,46
 250 371 250 371 250 350 c 128,-1,47
 250 329 250 329 235.5 314.5 c 128,-1,40
 221 300 221 300 200 300 c 128,-1,41
100 150 m 128,-1,49
 79 150 79 150 64.5 164.5 c 128,-1,50
 50 179 50 179 50 200 c 128,-1,51
 50 221 50 221 64.5 235.5 c 128,-1,52
 79 250 79 250 100 250 c 128,-1,53
 121 250 121 250 135.5 235.5 c 128,-1,54
 150 221 150 221 150 200 c 128,-1,55
 150 179 150 179 135.5 164.5 c 128,-1,48
 121 150 121 150 100 150 c 128,-1,49
300 150 m 128,-1,57
 279 150 279 150 264.5 164.5 c 128,-1,58
 250 179 250 179 250 200 c 128,-1,59
 250 221 250 221 264.5 235.5 c 128,-1,60
 279 250 279 250 300 250 c 128,-1,61
 321 250 321 250 335.5 235.5 c 128,-1,62
 350 221 350 221 350 200 c 128,-1,63
 350 179 350 179 335.5 164.5 c 128,-1,56
 321 150 321 150 300 150 c 128,-1,57
100 0 m 128,-1,65
 79 0 79 0 64.5 14.5 c 128,-1,66
 50 29 50 29 50 50 c 128,-1,67
 50 71 50 71 64.5 85.5 c 128,-1,68
 79 100 79 100 100 100 c 128,-1,69
 121 100 121 100 135.5 85.5 c 128,-1,70
 150 71 150 71 150 50 c 128,-1,71
 150 29 150 29 135.5 14.5 c 128,-1,64
 121 0 121 0 100 0 c 128,-1,65
300 0 m 128,-1,73
 279 0 279 0 264.5 14.5 c 128,-1,74
 250 29 250 29 250 50 c 128,-1,75
 250 71 250 71 264.5 85.5 c 128,-1,76
 279 100 279 100 300 100 c 128,-1,77
 321 100 321 100 335.5 85.5 c 128,-1,78
 350 71 350 71 350 50 c 128,-1,79
 350 29 350 29 335.5 14.5 c 128,-1,72
 321 0 321 0 300 0 c 128,-1,73
EndSplineSet
EndChar

StartChar: S
Encoding: 83 83 54
Width: 400
GlyphClass: 1
Flags: W
LayerCount: 2
Fore
SplineSet
200 600 m 128,-1,1
 179 600 179 600 164.5 614.5 c 128,-1,2
 150 629 150 629 150 650 c 128,-1,3
 150 671 150 671 164.5 685.5 c 128,-1,4
 179 700 179 700 200 700 c 128,-1,5
 221 700 221 700 235.5 685.5 c 128,-1,6
 250 671 250 671 250 650 c 128,-1,7
 250 629 250 629 235.5 614.5 c 128,-1,0
 221 600 221 600 200 600 c 128,-1,1
300 600 m 128,-1,9
 279 600 279 600 264.5 614.5 c 128,-1,10
 250 629 250 629 250 650 c 128,-1,11
 250 671 250 671 264.5 685.5 c 128,-1,12
 279 700 279 700 300 700 c 128,-1,13
 321 700 321 700 335.5 685.5 c 128,-1,14
 350 671 350 671 350 650 c 128,-1,15
 350 629 350 629 335.5 614.5 c 128,-1,8
 321 600 321 600 300 600 c 128,-1,9
100 450 m 128,-1,17
 79 450 79 450 64.5 464.5 c 128,-1,18
 50 479 50 479 50 500 c 128,-1,19
 50 521 50 521 64.5 535.5 c 128,-1,20
 79 550 79 550 100 550 c 128,-1,21
 121 550 121 550 135.5 535.5 c 128,-1,22
 150 521 150 521 150 500 c 128,-1,23
 150 479 150 479 135.5 464.5 c 128,-1,16
 121 450 121 450 100 450 c 128,-1,17
200 300 m 128,-1,25
 179 300 179 300 164.5 314.5 c 128,-1,26
 150 329 150 329 150 350 c 128,-1,27
 150 371 150 371 164.5 385.5 c 128,-1,28
 179 400 179 400 200 400 c 128,-1,29
 221 400 221 400 235.5 385.5 c 128,-1,30
 250 371 250 371 250 350 c 128,-1,31
 250 329 250 329 235.5 314.5 c 128,-1,24
 221 300 221 300 200 300 c 128,-1,25
300 150 m 128,-1,33
 279 150 279 150 264.5 164.5 c 128,-1,34
 250 179 250 179 250 200 c 128,-1,35
 250 221 250 221 264.5 235.5 c 128,-1,36
 279 250 279 250 300 250 c 128,-1,37
 321 250 321 250 335.5 235.5 c 128,-1,38
 350 221 350 221 350 200 c 128,-1,39
 350 179 350 179 335.5 164.5 c 128,-1,32
 321 150 321 150 300 150 c 128,-1,33
100 0 m 128,-1,41
 79 0 79 0 64.5 14.5 c 128,-1,42
 50 29 50 29 50 50 c 128,-1,43
 50 71 50 71 64.5 85.5 c 128,-1,44
 79 100 79 100 100 100 c 128,-1,45
 121 100 121 100 135.5 85.5 c 128,-1,46
 150 71 150 71 150 50 c 128,-1,47
 150 29 150 29 135.5 14.5 c 128,-1,40
 121 0 121 0 100 0 c 128,-1,41
200 0 m 128,-1,49
 179 0 179 0 164.5 14.5 c 128,-1,50
 150 29 150 29 150 50 c 128,-1,51
 150 71 150 71 164.5 85.5 c 128,-1,52
 179 100 179 100 200 100 c 128,-1,53
 221 100 221 100 235.5 85.5 c 128,-1,54
 250 71 250 71 250 50 c 128,-1,55
 250 29 250 29 235.5 14.5 c 128,-1,48
 221 0 221 0 200 0 c 128,-1,49
EndSplineSet
EndChar

StartChar: T
Encoding: 84 84 55
Width: 400
GlyphClass: 1
Flags: W
LayerCount: 2
Fore
SplineSet
100 600 m 128,-1,1
 79 600 79 600 64.5 614.5 c 128,-1,2
 50 629 50 629 50 650 c 128,-1,3
 50 671 50 671 64.5 685.5 c 128,-1,4
 79 700 79 700 100 700 c 128,-1,5
 121 700 121 700 135.5 685.5 c 128,-1,6
 150 671 150 671 150 650 c 128,-1,7
 150 629 150 629 135.5 614.5 c 128,-1,0
 121 600 121 600 100 600 c 128,-1,1
200 600 m 128,-1,9
 179 600 179 600 164.5 614.5 c 128,-1,10
 150 629 150 629 150 650 c 128,-1,11
 150 671 150 671 164.5 685.5 c 128,-1,12
 179 700 179 700 200 700 c 128,-1,13
 221 700 221 700 235.5 685.5 c 128,-1,14
 250 671 250 671 250 650 c 128,-1,15
 250 629 250 629 235.5 614.5 c 128,-1,8
 221 600 221 600 200 600 c 128,-1,9
300 600 m 128,-1,17
 279 600 279 600 264.5 614.5 c 128,-1,18
 250 629 250 629 250 650 c 128,-1,19
 250 671 250 671 264.5 685.5 c 128,-1,20
 279 700 279 700 300 700 c 128,-1,21
 321 700 321 700 335.5 685.5 c 128,-1,22
 350 671 350 671 350 650 c 128,-1,23
 350 629 350 629 335.5 614.5 c 128,-1,16
 321 600 321 600 300 600 c 128,-1,17
200 450 m 128,-1,25
 179 450 179 450 164.5 464.5 c 128,-1,26
 150 479 150 479 150 500 c 128,-1,27
 150 521 150 521 164.5 535.5 c 128,-1,28
 179 550 179 550 200 550 c 128,-1,29
 221 550 221 550 235.5 535.5 c 128,-1,30
 250 521 250 521 250 500 c 128,-1,31
 250 479 250 479 235.5 464.5 c 128,-1,24
 221 450 221 450 200 450 c 128,-1,25
200 300 m 128,-1,33
 179 300 179 300 164.5 314.5 c 128,-1,34
 150 329 150 329 150 350 c 128,-1,35
 150 371 150 371 164.5 385.5 c 128,-1,36
 179 400 179 400 200 400 c 128,-1,37
 221 400 221 400 235.5 385.5 c 128,-1,38
 250 371 250 371 250 350 c 128,-1,39
 250 329 250 329 235.5 314.5 c 128,-1,32
 221 300 221 300 200 300 c 128,-1,33
200 150 m 128,-1,41
 179 150 179 150 164.5 164.5 c 128,-1,42
 150 179 150 179 150 200 c 128,-1,43
 150 221 150 221 164.5 235.5 c 128,-1,44
 179 250 179 250 200 250 c 128,-1,45
 221 250 221 250 235.5 235.5 c 128,-1,46
 250 221 250 221 250 200 c 128,-1,47
 250 179 250 179 235.5 164.5 c 128,-1,40
 221 150 221 150 200 150 c 128,-1,41
200 0 m 128,-1,49
 179 0 179 0 164.5 14.5 c 128,-1,50
 150 29 150 29 150 50 c 128,-1,51
 150 71 150 71 164.5 85.5 c 128,-1,52
 179 100 179 100 200 100 c 128,-1,53
 221 100 221 100 235.5 85.5 c 128,-1,54
 250 71 250 71 250 50 c 128,-1,55
 250 29 250 29 235.5 14.5 c 128,-1,48
 221 0 221 0 200 0 c 128,-1,49
EndSplineSet
EndChar

StartChar: U
Encoding: 85 85 56
Width: 400
GlyphClass: 1
Flags: W
LayerCount: 2
Fore
SplineSet
100 600 m 128,-1,1
 79 600 79 600 64.5 614.5 c 128,-1,2
 50 629 50 629 50 650 c 128,-1,3
 50 671 50 671 64.5 685.5 c 128,-1,4
 79 700 79 700 100 700 c 128,-1,5
 121 700 121 700 135.5 685.5 c 128,-1,6
 150 671 150 671 150 650 c 128,-1,7
 150 629 150 629 135.5 614.5 c 128,-1,0
 121 600 121 600 100 600 c 128,-1,1
300 600 m 128,-1,9
 279 600 279 600 264.5 614.5 c 128,-1,10
 250 629 250 629 250 650 c 128,-1,11
 250 671 250 671 264.5 685.5 c 128,-1,12
 279 700 279 700 300 700 c 128,-1,13
 321 700 321 700 335.5 685.5 c 128,-1,14
 350 671 350 671 350 650 c 128,-1,15
 350 629 350 629 335.5 614.5 c 128,-1,8
 321 600 321 600 300 600 c 128,-1,9
100 450 m 128,-1,17
 79 450 79 450 64.5 464.5 c 128,-1,18
 50 479 50 479 50 500 c 128,-1,19
 50 521 50 521 64.5 535.5 c 128,-1,20
 79 550 79 550 100 550 c 128,-1,21
 121 550 121 550 135.5 535.5 c 128,-1,22
 150 521 150 521 150 500 c 128,-1,23
 150 479 150 479 135.5 464.5 c 128,-1,16
 121 450 121 450 100 450 c 128,-1,17
300 450 m 128,-1,25
 279 450 279 450 264.5 464.5 c 128,-1,26
 250 479 250 479 250 500 c 128,-1,27
 250 521 250 521 264.5 535.5 c 128,-1,28
 279 550 279 550 300 550 c 128,-1,29
 321 550 321 550 335.5 535.5 c 128,-1,30
 350 521 350 521 350 500 c 128,-1,31
 350 479 350 479 335.5 464.5 c 128,-1,24
 321 450 321 450 300 450 c 128,-1,25
100 300 m 128,-1,33
 79 300 79 300 64.5 314.5 c 128,-1,34
 50 329 50 329 50 350 c 128,-1,35
 50 371 50 371 64.5 385.5 c 128,-1,36
 79 400 79 400 100 400 c 128,-1,37
 121 400 121 400 135.5 385.5 c 128,-1,38
 150 371 150 371 150 350 c 128,-1,39
 150 329 150 329 135.5 314.5 c 128,-1,32
 121 300 121 300 100 300 c 128,-1,33
300 300 m 128,-1,41
 279 300 279 300 264.5 314.5 c 128,-1,42
 250 329 250 329 250 350 c 128,-1,43
 250 371 250 371 264.5 385.5 c 128,-1,44
 279 400 279 400 300 400 c 128,-1,45
 321 400 321 400 335.5 385.5 c 128,-1,46
 350 371 350 371 350 350 c 128,-1,47
 350 329 350 329 335.5 314.5 c 128,-1,40
 321 300 321 300 300 300 c 128,-1,41
100 150 m 128,-1,49
 79 150 79 150 64.5 164.5 c 128,-1,50
 50 179 50 179 50 200 c 128,-1,51
 50 221 50 221 64.5 235.5 c 128,-1,52
 79 250 79 250 100 250 c 128,-1,53
 121 250 121 250 135.5 235.5 c 128,-1,54
 150 221 150 221 150 200 c 128,-1,55
 150 179 150 179 135.5 164.5 c 128,-1,48
 121 150 121 150 100 150 c 128,-1,49
300 150 m 128,-1,57
 279 150 279 150 264.5 164.5 c 128,-1,58
 250 179 250 179 250 200 c 128,-1,59
 250 221 250 221 264.5 235.5 c 128,-1,60
 279 250 279 250 300 250 c 128,-1,61
 321 250 321 250 335.5 235.5 c 128,-1,62
 350 221 350 221 350 200 c 128,-1,63
 350 179 350 179 335.5 164.5 c 128,-1,56
 321 150 321 150 300 150 c 128,-1,57
200 0 m 128,-1,65
 179 0 179 0 164.5 14.5 c 128,-1,66
 150 29 150 29 150 50 c 128,-1,67
 150 71 150 71 164.5 85.5 c 128,-1,68
 179 100 179 100 200 100 c 128,-1,69
 221 100 221 100 235.5 85.5 c 128,-1,70
 250 71 250 71 250 50 c 128,-1,71
 250 29 250 29 235.5 14.5 c 128,-1,64
 221 0 221 0 200 0 c 128,-1,65
300 0 m 128,-1,73
 279 0 279 0 264.5 14.5 c 128,-1,74
 250 29 250 29 250 50 c 128,-1,75
 250 71 250 71 264.5 85.5 c 128,-1,76
 279 100 279 100 300 100 c 128,-1,77
 321 100 321 100 335.5 85.5 c 128,-1,78
 350 71 350 71 350 50 c 128,-1,79
 350 29 350 29 335.5 14.5 c 128,-1,72
 321 0 321 0 300 0 c 128,-1,73
EndSplineSet
EndChar

StartChar: V
Encoding: 86 86 57
Width: 400
GlyphClass: 1
Flags: W
LayerCount: 2
Fore
SplineSet
100 600 m 128,-1,1
 79 600 79 600 64.5 614.5 c 128,-1,2
 50 629 50 629 50 650 c 128,-1,3
 50 671 50 671 64.5 685.5 c 128,-1,4
 79 700 79 700 100 700 c 128,-1,5
 121 700 121 700 135.5 685.5 c 128,-1,6
 150 671 150 671 150 650 c 128,-1,7
 150 629 150 629 135.5 614.5 c 128,-1,0
 121 600 121 600 100 600 c 128,-1,1
300 600 m 128,-1,9
 279 600 279 600 264.5 614.5 c 128,-1,10
 250 629 250 629 250 650 c 128,-1,11
 250 671 250 671 264.5 685.5 c 128,-1,12
 279 700 279 700 300 700 c 128,-1,13
 321 700 321 700 335.5 685.5 c 128,-1,14
 350 671 350 671 350 650 c 128,-1,15
 350 629 350 629 335.5 614.5 c 128,-1,8
 321 600 321 600 300 600 c 128,-1,9
100 450 m 128,-1,17
 79 450 79 450 64.5 464.5 c 128,-1,18
 50 479 50 479 50 500 c 128,-1,19
 50 521 50 521 64.5 535.5 c 128,-1,20
 79 550 79 550 100 550 c 128,-1,21
 121 550 121 550 135.5 535.5 c 128,-1,22
 150 521 150 521 150 500 c 128,-1,23
 150 479 150 479 135.5 464.5 c 128,-1,16
 121 450 121 450 100 450 c 128,-1,17
300 450 m 128,-1,25
 279 450 279 450 264.5 464.5 c 128,-1,26
 250 479 250 479 250 500 c 128,-1,27
 250 521 250 521 264.5 535.5 c 128,-1,28
 279 550 279 550 300 550 c 128,-1,29
 321 550 321 550 335.5 535.5 c 128,-1,30
 350 521 350 521 350 500 c 128,-1,31
 350 479 350 479 335.5 464.5 c 128,-1,24
 321 450 321 450 300 450 c 128,-1,25
100 300 m 128,-1,33
 79 300 79 300 64.5 314.5 c 128,-1,34
 50 329 50 329 50 350 c 128,-1,35
 50 371 50 371 64.5 385.5 c 128,-1,36
 79 400 79 400 100 400 c 128,-1,37
 121 400 121 400 135.5 385.5 c 128,-1,38
 150 371 150 371 150 350 c 128,-1,39
 150 329 150 329 135.5 314.5 c 128,-1,32
 121 300 121 300 100 300 c 128,-1,33
300 300 m 128,-1,41
 279 300 279 300 264.5 314.5 c 128,-1,42
 250 329 250 329 250 350 c 128,-1,43
 250 371 250 371 264.5 385.5 c 128,-1,44
 279 400 279 400 300 400 c 128,-1,45
 321 400 321 400 335.5 385.5 c 128,-1,46
 350 371 350 371 350 350 c 128,-1,47
 350 329 350 329 335.5 314.5 c 128,-1,40
 321 300 321 300 300 300 c 128,-1,41
100 150 m 128,-1,49
 79 150 79 150 64.5 164.5 c 128,-1,50
 50 179 50 179 50 200 c 128,-1,51
 50 221 50 221 64.5 235.5 c 128,-1,52
 79 250 79 250 100 250 c 128,-1,53
 121 250 121 250 135.5 235.5 c 128,-1,54
 150 221 150 221 150 200 c 128,-1,55
 150 179 150 179 135.5 164.5 c 128,-1,48
 121 150 121 150 100 150 c 128,-1,49
300 150 m 128,-1,57
 279 150 279 150 264.5 164.5 c 128,-1,58
 250 179 250 179 250 200 c 128,-1,59
 250 221 250 221 264.5 235.5 c 128,-1,60
 279 250 279 250 300 250 c 128,-1,61
 321 250 321 250 335.5 235.5 c 128,-1,62
 350 221 350 221 350 200 c 128,-1,63
 350 179 350 179 335.5 164.5 c 128,-1,56
 321 150 321 150 300 150 c 128,-1,57
200 0 m 128,-1,65
 179 0 179 0 164.5 14.5 c 128,-1,66
 150 29 150 29 150 50 c 128,-1,67
 150 71 150 71 164.5 85.5 c 128,-1,68
 179 100 179 100 200 100 c 128,-1,69
 221 100 221 100 235.5 85.5 c 128,-1,70
 250 71 250 71 250 50 c 128,-1,71
 250 29 250 29 235.5 14.5 c 128,-1,64
 221 0 221 0 200 0 c 128,-1,65
EndSplineSet
EndChar

StartChar: W
Encoding: 87 87 58
Width: 400
GlyphClass: 1
Flags: W
LayerCount: 2
Fore
SplineSet
100 600 m 128,-1,1
 79 600 79 600 64.5 614.5 c 128,-1,2
 50 629 50 629 50 650 c 128,-1,3
 50 671 50 671 64.5 685.5 c 128,-1,4
 79 700 79 700 100 700 c 128,-1,5
 121 700 121 700 135.5 685.5 c 128,-1,6
 150 671 150 671 150 650 c 128,-1,7
 150 629 150 629 135.5 614.5 c 128,-1,0
 121 600 121 600 100 600 c 128,-1,1
300 600 m 128,-1,9
 279 600 279 600 264.5 614.5 c 128,-1,10
 250 629 250 629 250 650 c 128,-1,11
 250 671 250 671 264.5 685.5 c 128,-1,12
 279 700 279 700 300 700 c 128,-1,13
 321 700 321 700 335.5 685.5 c 128,-1,14
 350 671 350 671 350 650 c 128,-1,15
 350 629 350 629 335.5 614.5 c 128,-1,8
 321 600 321 600 300 600 c 128,-1,9
100 450 m 128,-1,17
 79 450 79 450 64.5 464.5 c 128,-1,18
 50 479 50 479 50 500 c 128,-1,19
 50 521 50 521 64.5 535.5 c 128,-1,20
 79 550 79 550 100 550 c 128,-1,21
 121 550 121 550 135.5 535.5 c 128,-1,22
 150 521 150 521 150 500 c 128,-1,23
 150 479 150 479 135.5 464.5 c 128,-1,16
 121 450 121 450 100 450 c 128,-1,17
300 450 m 128,-1,25
 279 450 279 450 264.5 464.5 c 128,-1,26
 250 479 250 479 250 500 c 128,-1,27
 250 521 250 521 264.5 535.5 c 128,-1,28
 279 550 279 550 300 550 c 128,-1,29
 321 550 321 550 335.5 535.5 c 128,-1,30
 350 521 350 521 350 500 c 128,-1,31
 350 479 350 479 335.5 464.5 c 128,-1,24
 321 450 321 450 300 450 c 128,-1,25
100 300 m 128,-1,33
 79 300 79 300 64.5 314.5 c 128,-1,34
 50 329 50 329 50 350 c 128,-1,35
 50 371 50 371 64.5 385.5 c 128,-1,36
 79 400 79 400 100 400 c 128,-1,37
 121 400 121 400 135.5 385.5 c 128,-1,38
 150 371 150 371 150 350 c 128,-1,39
 150 329 150 329 135.5 314.5 c 128,-1,32
 121 300 121 300 100 300 c 128,-1,33
200 300 m 128,-1,41
 179 300 179 300 164.5 314.5 c 128,-1,42
 150 329 150 329 150 350 c 128,-1,43
 150 371 150 371 164.5 385.5 c 128,-1,44
 179 400 179 400 200 400 c 128,-1,45
 221 400 221 400 235.5 385.5 c 128,-1,46
 250 371 250 371 250 350 c 128,-1,47
 250 329 250 329 235.5 314.5 c 128,-1,40
 221 300 221 300 200 300 c 128,-1,41
300 300 m 128,-1,49
 279 300 279 300 264.5 314.5 c 128,-1,50
 250 329 250 329 250 350 c 128,-1,51
 250 371 250 371 264.5 385.5 c 128,-1,52
 279 400 279 400 300 400 c 128,-1,53
 321 400 321 400 335.5 385.5 c 128,-1,54
 350 371 350 371 350 350 c 128,-1,55
 350 329 350 329 335.5 314.5 c 128,-1,48
 321 300 321 300 300 300 c 128,-1,49
100 150 m 128,-1,57
 79 150 79 150 64.5 164.5 c 128,-1,58
 50 179 50 179 50 200 c 128,-1,59
 50 221 50 221 64.5 235.5 c 128,-1,60
 79 250 79 250 100 250 c 128,-1,61
 121 250 121 250 135.5 235.5 c 128,-1,62
 150 221 150 221 150 200 c 128,-1,63
 150 179 150 179 135.5 164.5 c 128,-1,56
 121 150 121 150 100 150 c 128,-1,57
200 150 m 128,-1,65
 179 150 179 150 164.5 164.5 c 128,-1,66
 150 179 150 179 150 200 c 128,-1,67
 150 221 150 221 164.5 235.5 c 128,-1,68
 179 250 179 250 200 250 c 128,-1,69
 221 250 221 250 235.5 235.5 c 128,-1,70
 250 221 250 221 250 200 c 128,-1,71
 250 179 250 179 235.5 164.5 c 128,-1,64
 221 150 221 150 200 150 c 128,-1,65
300 150 m 128,-1,73
 279 150 279 150 264.5 164.5 c 128,-1,74
 250 179 250 179 250 200 c 128,-1,75
 250 221 250 221 264.5 235.5 c 128,-1,76
 279 250 279 250 300 250 c 128,-1,77
 321 250 321 250 335.5 235.5 c 128,-1,78
 350 221 350 221 350 200 c 128,-1,79
 350 179 350 179 335.5 164.5 c 128,-1,72
 321 150 321 150 300 150 c 128,-1,73
200 0 m 128,-1,81
 179 0 179 0 164.5 14.5 c 128,-1,82
 150 29 150 29 150 50 c 128,-1,83
 150 71 150 71 164.5 85.5 c 128,-1,84
 179 100 179 100 200 100 c 128,-1,85
 221 100 221 100 235.5 85.5 c 128,-1,86
 250 71 250 71 250 50 c 128,-1,87
 250 29 250 29 235.5 14.5 c 128,-1,80
 221 0 221 0 200 0 c 128,-1,81
EndSplineSet
EndChar

StartChar: X
Encoding: 88 88 59
Width: 400
GlyphClass: 1
Flags: W
LayerCount: 2
Fore
SplineSet
100 600 m 128,-1,1
 79 600 79 600 64.5 614.5 c 128,-1,2
 50 629 50 629 50 650 c 128,-1,3
 50 671 50 671 64.5 685.5 c 128,-1,4
 79 700 79 700 100 700 c 128,-1,5
 121 700 121 700 135.5 685.5 c 128,-1,6
 150 671 150 671 150 650 c 128,-1,7
 150 629 150 629 135.5 614.5 c 128,-1,0
 121 600 121 600 100 600 c 128,-1,1
300 600 m 128,-1,9
 279 600 279 600 264.5 614.5 c 128,-1,10
 250 629 250 629 250 650 c 128,-1,11
 250 671 250 671 264.5 685.5 c 128,-1,12
 279 700 279 700 300 700 c 128,-1,13
 321 700 321 700 335.5 685.5 c 128,-1,14
 350 671 350 671 350 650 c 128,-1,15
 350 629 350 629 335.5 614.5 c 128,-1,8
 321 600 321 600 300 600 c 128,-1,9
100 450 m 128,-1,17
 79 450 79 450 64.5 464.5 c 128,-1,18
 50 479 50 479 50 500 c 128,-1,19
 50 521 50 521 64.5 535.5 c 128,-1,20
 79 550 79 550 100 550 c 128,-1,21
 121 550 121 550 135.5 535.5 c 128,-1,22
 150 521 150 521 150 500 c 128,-1,23
 150 479 150 479 135.5 464.5 c 128,-1,16
 121 450 121 450 100 450 c 128,-1,17
300 450 m 128,-1,25
 279 450 279 450 264.5 464.5 c 128,-1,26
 250 479 250 479 250 500 c 128,-1,27
 250 521 250 521 264.5 535.5 c 128,-1,28
 279 550 279 550 300 550 c 128,-1,29
 321 550 321 550 335.5 535.5 c 128,-1,30
 350 521 350 521 350 500 c 128,-1,31
 350 479 350 479 335.5 464.5 c 128,-1,24
 321 450 321 450 300 450 c 128,-1,25
200 300 m 128,-1,33
 179 300 179 300 164.5 314.5 c 128,-1,34
 150 329 150 329 150 350 c 128,-1,35
 150 371 150 371 164.5 385.5 c 128,-1,36
 179 400 179 400 200 400 c 128,-1,37
 221 400 221 400 235.5 385.5 c 128,-1,38
 250 371 250 371 250 350 c 128,-1,39
 250 329 250 329 235.5 314.5 c 128,-1,32
 221 300 221 300 200 300 c 128,-1,33
100 150 m 128,-1,41
 79 150 79 150 64.5 164.5 c 128,-1,42
 50 179 50 179 50 200 c 128,-1,43
 50 221 50 221 64.5 235.5 c 128,-1,44
 79 250 79 250 100 250 c 128,-1,45
 121 250 121 250 135.5 235.5 c 128,-1,46
 150 221 150 221 150 200 c 128,-1,47
 150 179 150 179 135.5 164.5 c 128,-1,40
 121 150 121 150 100 150 c 128,-1,41
300 150 m 128,-1,49
 279 150 279 150 264.5 164.5 c 128,-1,50
 250 179 250 179 250 200 c 128,-1,51
 250 221 250 221 264.5 235.5 c 128,-1,52
 279 250 279 250 300 250 c 128,-1,53
 321 250 321 250 335.5 235.5 c 128,-1,54
 350 221 350 221 350 200 c 128,-1,55
 350 179 350 179 335.5 164.5 c 128,-1,48
 321 150 321 150 300 150 c 128,-1,49
100 0 m 128,-1,57
 79 0 79 0 64.5 14.5 c 128,-1,58
 50 29 50 29 50 50 c 128,-1,59
 50 71 50 71 64.5 85.5 c 128,-1,60
 79 100 79 100 100 100 c 128,-1,61
 121 100 121 100 135.5 85.5 c 128,-1,62
 150 71 150 71 150 50 c 128,-1,63
 150 29 150 29 135.5 14.5 c 128,-1,56
 121 0 121 0 100 0 c 128,-1,57
300 0 m 128,-1,65
 279 0 279 0 264.5 14.5 c 128,-1,66
 250 29 250 29 250 50 c 128,-1,67
 250 71 250 71 264.5 85.5 c 128,-1,68
 279 100 279 100 300 100 c 128,-1,69
 321 100 321 100 335.5 85.5 c 128,-1,70
 350 71 350 71 350 50 c 128,-1,71
 350 29 350 29 335.5 14.5 c 128,-1,64
 321 0 321 0 300 0 c 128,-1,65
EndSplineSet
EndChar

StartChar: Y
Encoding: 89 89 60
Width: 400
GlyphClass: 1
Flags: W
LayerCount: 2
Fore
SplineSet
100 600 m 128,-1,1
 79 600 79 600 64.5 614.5 c 128,-1,2
 50 629 50 629 50 650 c 128,-1,3
 50 671 50 671 64.5 685.5 c 128,-1,4
 79 700 79 700 100 700 c 128,-1,5
 121 700 121 700 135.5 685.5 c 128,-1,6
 150 671 150 671 150 650 c 128,-1,7
 150 629 150 629 135.5 614.5 c 128,-1,0
 121 600 121 600 100 600 c 128,-1,1
300 600 m 128,-1,9
 279 600 279 600 264.5 614.5 c 128,-1,10
 250 629 250 629 250 650 c 128,-1,11
 250 671 250 671 264.5 685.5 c 128,-1,12
 279 700 279 700 300 700 c 128,-1,13
 321 700 321 700 335.5 685.5 c 128,-1,14
 350 671 350 671 350 650 c 128,-1,15
 350 629 350 629 335.5 614.5 c 128,-1,8
 321 600 321 600 300 600 c 128,-1,9
100 450 m 128,-1,17
 79 450 79 450 64.5 464.5 c 128,-1,18
 50 479 50 479 50 500 c 128,-1,19
 50 521 50 521 64.5 535.5 c 128,-1,20
 79 550 79 550 100 550 c 128,-1,21
 121 550 121 550 135.5 535.5 c 128,-1,22
 150 521 150 521 150 500 c 128,-1,23
 150 479 150 479 135.5 464.5 c 128,-1,16
 121 450 121 450 100 450 c 128,-1,17
300 450 m 128,-1,25
 279 450 279 450 264.5 464.5 c 128,-1,26
 250 479 250 479 250 500 c 128,-1,27
 250 521 250 521 264.5 535.5 c 128,-1,28
 279 550 279 550 300 550 c 128,-1,29
 321 550 321 550 335.5 535.5 c 128,-1,30
 350 521 350 521 350 500 c 128,-1,31
 350 479 350 479 335.5 464.5 c 128,-1,24
 321 450 321 450 300 450 c 128,-1,25
200 300 m 128,-1,33
 179 300 179 300 164.5 314.5 c 128,-1,34
 150 329 150 329 150 350 c 128,-1,35
 150 371 150 371 164.5 385.5 c 128,-1,36
 179 400 179 400 200 400 c 128,-1,37
 221 400 221 400 235.5 385.5 c 128,-1,38
 250 371 250 371 250 350 c 128,-1,39
 250 329 250 329 235.5 314.5 c 128,-1,32
 221 300 221 300 200 300 c 128,-1,33
200 150 m 128,-1,41
 179 150 179 150 164.5 164.5 c 128,-1,42
 150 179 150 179 150 200 c 128,-1,43
 150 221 150 221 164.5 235.5 c 128,-1,44
 179 250 179 250 200 250 c 128,-1,45
 221 250 221 250 235.5 235.5 c 128,-1,46
 250 221 250 221 250 200 c 128,-1,47
 250 179 250 179 235.5 164.5 c 128,-1,40
 221 150 221 150 200 150 c 128,-1,41
200 0 m 128,-1,49
 179 0 179 0 164.5 14.5 c 128,-1,50
 150 29 150 29 150 50 c 128,-1,51
 150 71 150 71 164.5 85.5 c 128,-1,52
 179 100 179 100 200 100 c 128,-1,53
 221 100 221 100 235.5 85.5 c 128,-1,54
 250 71 250 71 250 50 c 128,-1,55
 250 29 250 29 235.5 14.5 c 128,-1,48
 221 0 221 0 200 0 c 128,-1,49
EndSplineSet
EndChar

StartChar: Z
Encoding: 90 90 61
Width: 400
GlyphClass: 1
Flags: W
LayerCount: 2
Fore
SplineSet
100 600 m 128,-1,1
 79 600 79 600 64.5 614.5 c 128,-1,2
 50 629 50 629 50 650 c 128,-1,3
 50 671 50 671 64.5 685.5 c 128,-1,4
 79 700 79 700 100 700 c 128,-1,5
 121 700 121 700 135.5 685.5 c 128,-1,6
 150 671 150 671 150 650 c 128,-1,7
 150 629 150 629 135.5 614.5 c 128,-1,0
 121 600 121 600 100 600 c 128,-1,1
200 600 m 128,-1,9
 179 600 179 600 164.5 614.5 c 128,-1,10
 150 629 150 629 150 650 c 128,-1,11
 150 671 150 671 164.5 685.5 c 128,-1,12
 179 700 179 700 200 700 c 128,-1,13
 221 700 221 700 235.5 685.5 c 128,-1,14
 250 671 250 671 250 650 c 128,-1,15
 250 629 250 629 235.5 614.5 c 128,-1,8
 221 600 221 600 200 600 c 128,-1,9
300 600 m 128,-1,17
 279 600 279 600 264.5 614.5 c 128,-1,18
 250 629 250 629 250 650 c 128,-1,19
 250 671 250 671 264.5 685.5 c 128,-1,20
 279 700 279 700 300 700 c 128,-1,21
 321 700 321 700 335.5 685.5 c 128,-1,22
 350 671 350 671 350 650 c 128,-1,23
 350 629 350 629 335.5 614.5 c 128,-1,16
 321 600 321 600 300 600 c 128,-1,17
300 450 m 128,-1,25
 279 450 279 450 264.5 464.5 c 128,-1,26
 250 479 250 479 250 500 c 128,-1,27
 250 521 250 521 264.5 535.5 c 128,-1,28
 279 550 279 550 300 550 c 128,-1,29
 321 550 321 550 335.5 535.5 c 128,-1,30
 350 521 350 521 350 500 c 128,-1,31
 350 479 350 479 335.5 464.5 c 128,-1,24
 321 450 321 450 300 450 c 128,-1,25
200 300 m 128,-1,33
 179 300 179 300 164.5 314.5 c 128,-1,34
 150 329 150 329 150 350 c 128,-1,35
 150 371 150 371 164.5 385.5 c 128,-1,36
 179 400 179 400 200 400 c 128,-1,37
 221 400 221 400 235.5 385.5 c 128,-1,38
 250 371 250 371 250 350 c 128,-1,39
 250 329 250 329 235.5 314.5 c 128,-1,32
 221 300 221 300 200 300 c 128,-1,33
100 150 m 128,-1,41
 79 150 79 150 64.5 164.5 c 128,-1,42
 50 179 50 179 50 200 c 128,-1,43
 50 221 50 221 64.5 235.5 c 128,-1,44
 79 250 79 250 100 250 c 128,-1,45
 121 250 121 250 135.5 235.5 c 128,-1,46
 150 221 150 221 150 200 c 128,-1,47
 150 179 150 179 135.5 164.5 c 128,-1,40
 121 150 121 150 100 150 c 128,-1,41
100 0 m 128,-1,49
 79 0 79 0 64.5 14.5 c 128,-1,50
 50 29 50 29 50 50 c 128,-1,51
 50 71 50 71 64.5 85.5 c 128,-1,52
 79 100 79 100 100 100 c 128,-1,53
 121 100 121 100 135.5 85.5 c 128,-1,54
 150 71 150 71 150 50 c 128,-1,55
 150 29 150 29 135.5 14.5 c 128,-1,48
 121 0 121 0 100 0 c 128,-1,49
200 0 m 128,-1,57
 179 0 179 0 164.5 14.5 c 128,-1,58
 150 29 150 29 150 50 c 128,-1,59
 150 71 150 71 164.5 85.5 c 128,-1,60
 179 100 179 100 200 100 c 128,-1,61
 221 100 221 100 235.5 85.5 c 128,-1,62
 250 71 250 71 250 50 c 128,-1,63
 250 29 250 29 235.5 14.5 c 128,-1,56
 221 0 221 0 200 0 c 128,-1,57
300 0 m 128,-1,65
 279 0 279 0 264.5 14.5 c 128,-1,66
 250 29 250 29 250 50 c 128,-1,67
 250 71 250 71 264.5 85.5 c 128,-1,68
 279 100 279 100 300 100 c 128,-1,69
 321 100 321 100 335.5 85.5 c 128,-1,70
 350 71 350 71 350 50 c 128,-1,71
 350 29 350 29 335.5 14.5 c 128,-1,64
 321 0 321 0 300 0 c 128,-1,65
EndSplineSet
EndChar

StartChar: bracketleft
Encoding: 91 91 62
Width: 400
GlyphClass: 1
Flags: W
LayerCount: 2
Fore
SplineSet
100 600 m 128,-1,1
 79 600 79 600 64.5 614.5 c 128,-1,2
 50 629 50 629 50 650 c 128,-1,3
 50 671 50 671 64.5 685.5 c 128,-1,4
 79 700 79 700 100 700 c 128,-1,5
 121 700 121 700 135.5 685.5 c 128,-1,6
 150 671 150 671 150 650 c 128,-1,7
 150 629 150 629 135.5 614.5 c 128,-1,0
 121 600 121 600 100 600 c 128,-1,1
200 600 m 128,-1,9
 179 600 179 600 164.5 614.5 c 128,-1,10
 150 629 150 629 150 650 c 128,-1,11
 150 671 150 671 164.5 685.5 c 128,-1,12
 179 700 179 700 200 700 c 128,-1,13
 221 700 221 700 235.5 685.5 c 128,-1,14
 250 671 250 671 250 650 c 128,-1,15
 250 629 250 629 235.5 614.5 c 128,-1,8
 221 600 221 600 200 600 c 128,-1,9
300 600 m 128,-1,17
 279 600 279 600 264.5 614.5 c 128,-1,18
 250 629 250 629 250 650 c 128,-1,19
 250 671 250 671 264.5 685.5 c 128,-1,20
 279 700 279 700 300 700 c 128,-1,21
 321 700 321 700 335.5 685.5 c 128,-1,22
 350 671 350 671 350 650 c 128,-1,23
 350 629 350 629 335.5 614.5 c 128,-1,16
 321 600 321 600 300 600 c 128,-1,17
100 450 m 128,-1,25
 79 450 79 450 64.5 464.5 c 128,-1,26
 50 479 50 479 50 500 c 128,-1,27
 50 521 50 521 64.5 535.5 c 128,-1,28
 79 550 79 550 100 550 c 128,-1,29
 121 550 121 550 135.5 535.5 c 128,-1,30
 150 521 150 521 150 500 c 128,-1,31
 150 479 150 479 135.5 464.5 c 128,-1,24
 121 450 121 450 100 450 c 128,-1,25
100 300 m 128,-1,33
 79 300 79 300 64.5 314.5 c 128,-1,34
 50 329 50 329 50 350 c 128,-1,35
 50 371 50 371 64.5 385.5 c 128,-1,36
 79 400 79 400 100 400 c 128,-1,37
 121 400 121 400 135.5 385.5 c 128,-1,38
 150 371 150 371 150 350 c 128,-1,39
 150 329 150 329 135.5 314.5 c 128,-1,32
 121 300 121 300 100 300 c 128,-1,33
100 150 m 128,-1,41
 79 150 79 150 64.5 164.5 c 128,-1,42
 50 179 50 179 50 200 c 128,-1,43
 50 221 50 221 64.5 235.5 c 128,-1,44
 79 250 79 250 100 250 c 128,-1,45
 121 250 121 250 135.5 235.5 c 128,-1,46
 150 221 150 221 150 200 c 128,-1,47
 150 179 150 179 135.5 164.5 c 128,-1,40
 121 150 121 150 100 150 c 128,-1,41
100 0 m 128,-1,49
 79 0 79 0 64.5 14.5 c 128,-1,50
 50 29 50 29 50 50 c 128,-1,51
 50 71 50 71 64.5 85.5 c 128,-1,52
 79 100 79 100 100 100 c 128,-1,53
 121 100 121 100 135.5 85.5 c 128,-1,54
 150 71 150 71 150 50 c 128,-1,55
 150 29 150 29 135.5 14.5 c 128,-1,48
 121 0 121 0 100 0 c 128,-1,49
100 -150 m 128,-1,57
 79 -150 79 -150 64.5 -135.5 c 128,-1,58
 50 -121 50 -121 50 -100 c 128,-1,59
 50 -79 50 -79 64.5 -64.5 c 128,-1,60
 79 -50 79 -50 100 -50 c 128,-1,61
 121 -50 121 -50 135.5 -64.5 c 128,-1,62
 150 -79 150 -79 150 -100 c 128,-1,63
 150 -121 150 -121 135.5 -135.5 c 128,-1,56
 121 -150 121 -150 100 -150 c 128,-1,57
200 -150 m 128,-1,65
 179 -150 179 -150 164.5 -135.5 c 128,-1,66
 150 -121 150 -121 150 -100 c 128,-1,67
 150 -79 150 -79 164.5 -64.5 c 128,-1,68
 179 -50 179 -50 200 -50 c 128,-1,69
 221 -50 221 -50 235.5 -64.5 c 128,-1,70
 250 -79 250 -79 250 -100 c 128,-1,71
 250 -121 250 -121 235.5 -135.5 c 128,-1,64
 221 -150 221 -150 200 -150 c 128,-1,65
300 -150 m 128,-1,73
 279 -150 279 -150 264.5 -135.5 c 128,-1,74
 250 -121 250 -121 250 -100 c 128,-1,75
 250 -79 250 -79 264.5 -64.5 c 128,-1,76
 279 -50 279 -50 300 -50 c 128,-1,77
 321 -50 321 -50 335.5 -64.5 c 128,-1,78
 350 -79 350 -79 350 -100 c 128,-1,79
 350 -121 350 -121 335.5 -135.5 c 128,-1,72
 321 -150 321 -150 300 -150 c 128,-1,73
EndSplineSet
Substitution2: "'rtla' Alternative da destra a sinistra lookup 0 subtable" bracketright
EndChar

StartChar: backslash
Encoding: 92 92 63
Width: 400
GlyphClass: 1
Flags: W
LayerCount: 2
Fore
SplineSet
100 450 m 128,-1,1
 79 450 79 450 64.5 464.5 c 128,-1,2
 50 479 50 479 50 500 c 128,-1,3
 50 521 50 521 64.5 535.5 c 128,-1,4
 79 550 79 550 100 550 c 128,-1,5
 121 550 121 550 135.5 535.5 c 128,-1,6
 150 521 150 521 150 500 c 128,-1,7
 150 479 150 479 135.5 464.5 c 128,-1,0
 121 450 121 450 100 450 c 128,-1,1
200 300 m 128,-1,9
 179 300 179 300 164.5 314.5 c 128,-1,10
 150 329 150 329 150 350 c 128,-1,11
 150 371 150 371 164.5 385.5 c 128,-1,12
 179 400 179 400 200 400 c 128,-1,13
 221 400 221 400 235.5 385.5 c 128,-1,14
 250 371 250 371 250 350 c 128,-1,15
 250 329 250 329 235.5 314.5 c 128,-1,8
 221 300 221 300 200 300 c 128,-1,9
300 150 m 128,-1,17
 279 150 279 150 264.5 164.5 c 128,-1,18
 250 179 250 179 250 200 c 128,-1,19
 250 221 250 221 264.5 235.5 c 128,-1,20
 279 250 279 250 300 250 c 128,-1,21
 321 250 321 250 335.5 235.5 c 128,-1,22
 350 221 350 221 350 200 c 128,-1,23
 350 179 350 179 335.5 164.5 c 128,-1,16
 321 150 321 150 300 150 c 128,-1,17
EndSplineSet
EndChar

StartChar: bracketright
Encoding: 93 93 64
Width: 400
GlyphClass: 1
Flags: W
LayerCount: 2
Fore
SplineSet
100 600 m 128,-1,1
 79 600 79 600 64.5 614.5 c 128,-1,2
 50 629 50 629 50 650 c 128,-1,3
 50 671 50 671 64.5 685.5 c 128,-1,4
 79 700 79 700 100 700 c 128,-1,5
 121 700 121 700 135.5 685.5 c 128,-1,6
 150 671 150 671 150 650 c 128,-1,7
 150 629 150 629 135.5 614.5 c 128,-1,0
 121 600 121 600 100 600 c 128,-1,1
200 600 m 128,-1,9
 179 600 179 600 164.5 614.5 c 128,-1,10
 150 629 150 629 150 650 c 128,-1,11
 150 671 150 671 164.5 685.5 c 128,-1,12
 179 700 179 700 200 700 c 128,-1,13
 221 700 221 700 235.5 685.5 c 128,-1,14
 250 671 250 671 250 650 c 128,-1,15
 250 629 250 629 235.5 614.5 c 128,-1,8
 221 600 221 600 200 600 c 128,-1,9
300 600 m 128,-1,17
 279 600 279 600 264.5 614.5 c 128,-1,18
 250 629 250 629 250 650 c 128,-1,19
 250 671 250 671 264.5 685.5 c 128,-1,20
 279 700 279 700 300 700 c 128,-1,21
 321 700 321 700 335.5 685.5 c 128,-1,22
 350 671 350 671 350 650 c 128,-1,23
 350 629 350 629 335.5 614.5 c 128,-1,16
 321 600 321 600 300 600 c 128,-1,17
300 450 m 128,-1,25
 279 450 279 450 264.5 464.5 c 128,-1,26
 250 479 250 479 250 500 c 128,-1,27
 250 521 250 521 264.5 535.5 c 128,-1,28
 279 550 279 550 300 550 c 128,-1,29
 321 550 321 550 335.5 535.5 c 128,-1,30
 350 521 350 521 350 500 c 128,-1,31
 350 479 350 479 335.5 464.5 c 128,-1,24
 321 450 321 450 300 450 c 128,-1,25
300 300 m 128,-1,33
 279 300 279 300 264.5 314.5 c 128,-1,34
 250 329 250 329 250 350 c 128,-1,35
 250 371 250 371 264.5 385.5 c 128,-1,36
 279 400 279 400 300 400 c 128,-1,37
 321 400 321 400 335.5 385.5 c 128,-1,38
 350 371 350 371 350 350 c 128,-1,39
 350 329 350 329 335.5 314.5 c 128,-1,32
 321 300 321 300 300 300 c 128,-1,33
300 150 m 128,-1,41
 279 150 279 150 264.5 164.5 c 128,-1,42
 250 179 250 179 250 200 c 128,-1,43
 250 221 250 221 264.5 235.5 c 128,-1,44
 279 250 279 250 300 250 c 128,-1,45
 321 250 321 250 335.5 235.5 c 128,-1,46
 350 221 350 221 350 200 c 128,-1,47
 350 179 350 179 335.5 164.5 c 128,-1,40
 321 150 321 150 300 150 c 128,-1,41
300 0 m 128,-1,49
 279 0 279 0 264.5 14.5 c 128,-1,50
 250 29 250 29 250 50 c 128,-1,51
 250 71 250 71 264.5 85.5 c 128,-1,52
 279 100 279 100 300 100 c 128,-1,53
 321 100 321 100 335.5 85.5 c 128,-1,54
 350 71 350 71 350 50 c 128,-1,55
 350 29 350 29 335.5 14.5 c 128,-1,48
 321 0 321 0 300 0 c 128,-1,49
100 -150 m 128,-1,57
 79 -150 79 -150 64.5 -135.5 c 128,-1,58
 50 -121 50 -121 50 -100 c 128,-1,59
 50 -79 50 -79 64.5 -64.5 c 128,-1,60
 79 -50 79 -50 100 -50 c 128,-1,61
 121 -50 121 -50 135.5 -64.5 c 128,-1,62
 150 -79 150 -79 150 -100 c 128,-1,63
 150 -121 150 -121 135.5 -135.5 c 128,-1,56
 121 -150 121 -150 100 -150 c 128,-1,57
200 -150 m 128,-1,65
 179 -150 179 -150 164.5 -135.5 c 128,-1,66
 150 -121 150 -121 150 -100 c 128,-1,67
 150 -79 150 -79 164.5 -64.5 c 128,-1,68
 179 -50 179 -50 200 -50 c 128,-1,69
 221 -50 221 -50 235.5 -64.5 c 128,-1,70
 250 -79 250 -79 250 -100 c 128,-1,71
 250 -121 250 -121 235.5 -135.5 c 128,-1,64
 221 -150 221 -150 200 -150 c 128,-1,65
300 -150 m 128,-1,73
 279 -150 279 -150 264.5 -135.5 c 128,-1,74
 250 -121 250 -121 250 -100 c 128,-1,75
 250 -79 250 -79 264.5 -64.5 c 128,-1,76
 279 -50 279 -50 300 -50 c 128,-1,77
 321 -50 321 -50 335.5 -64.5 c 128,-1,78
 350 -79 350 -79 350 -100 c 128,-1,79
 350 -121 350 -121 335.5 -135.5 c 128,-1,72
 321 -150 321 -150 300 -150 c 128,-1,73
EndSplineSet
Substitution2: "'rtla' Alternative da destra a sinistra lookup 0 subtable" bracketleft
EndChar

StartChar: asciicircum
Encoding: 94 94 65
Width: 400
GlyphClass: 1
Flags: W
LayerCount: 2
Fore
SplineSet
200 600 m 128,-1,1
 179 600 179 600 164.5 614.5 c 128,-1,2
 150 629 150 629 150 650 c 128,-1,3
 150 671 150 671 164.5 685.5 c 128,-1,4
 179 700 179 700 200 700 c 128,-1,5
 221 700 221 700 235.5 685.5 c 128,-1,6
 250 671 250 671 250 650 c 128,-1,7
 250 629 250 629 235.5 614.5 c 128,-1,0
 221 600 221 600 200 600 c 128,-1,1
100 450 m 128,-1,9
 79 450 79 450 64.5 464.5 c 128,-1,10
 50 479 50 479 50 500 c 128,-1,11
 50 521 50 521 64.5 535.5 c 128,-1,12
 79 550 79 550 100 550 c 128,-1,13
 121 550 121 550 135.5 535.5 c 128,-1,14
 150 521 150 521 150 500 c 128,-1,15
 150 479 150 479 135.5 464.5 c 128,-1,8
 121 450 121 450 100 450 c 128,-1,9
300 450 m 128,-1,17
 279 450 279 450 264.5 464.5 c 128,-1,18
 250 479 250 479 250 500 c 128,-1,19
 250 521 250 521 264.5 535.5 c 128,-1,20
 279 550 279 550 300 550 c 128,-1,21
 321 550 321 550 335.5 535.5 c 128,-1,22
 350 521 350 521 350 500 c 128,-1,23
 350 479 350 479 335.5 464.5 c 128,-1,16
 321 450 321 450 300 450 c 128,-1,17
EndSplineSet
EndChar

StartChar: underscore
Encoding: 95 95 66
Width: 400
GlyphClass: 1
Flags: W
LayerCount: 2
Fore
SplineSet
100 -150 m 128,-1,1
 79 -150 79 -150 64.5 -135.5 c 128,-1,2
 50 -121 50 -121 50 -100 c 128,-1,3
 50 -79 50 -79 64.5 -64.5 c 128,-1,4
 79 -50 79 -50 100 -50 c 128,-1,5
 121 -50 121 -50 135.5 -64.5 c 128,-1,6
 150 -79 150 -79 150 -100 c 128,-1,7
 150 -121 150 -121 135.5 -135.5 c 128,-1,0
 121 -150 121 -150 100 -150 c 128,-1,1
200 -150 m 128,-1,9
 179 -150 179 -150 164.5 -135.5 c 128,-1,10
 150 -121 150 -121 150 -100 c 128,-1,11
 150 -79 150 -79 164.5 -64.5 c 128,-1,12
 179 -50 179 -50 200 -50 c 128,-1,13
 221 -50 221 -50 235.5 -64.5 c 128,-1,14
 250 -79 250 -79 250 -100 c 128,-1,15
 250 -121 250 -121 235.5 -135.5 c 128,-1,8
 221 -150 221 -150 200 -150 c 128,-1,9
300 -150 m 128,-1,17
 279 -150 279 -150 264.5 -135.5 c 128,-1,18
 250 -121 250 -121 250 -100 c 128,-1,19
 250 -79 250 -79 264.5 -64.5 c 128,-1,20
 279 -50 279 -50 300 -50 c 128,-1,21
 321 -50 321 -50 335.5 -64.5 c 128,-1,22
 350 -79 350 -79 350 -100 c 128,-1,23
 350 -121 350 -121 335.5 -135.5 c 128,-1,16
 321 -150 321 -150 300 -150 c 128,-1,17
EndSplineSet
EndChar

StartChar: grave
Encoding: 96 96 67
Width: 300
GlyphClass: 1
Flags: W
LayerCount: 2
Fore
SplineSet
100 750 m 128,-1,1
 79 750 79 750 64.5 764.5 c 128,-1,2
 50 779 50 779 50 800 c 128,-1,3
 50 821 50 821 64.5 835.5 c 128,-1,4
 79 850 79 850 100 850 c 128,-1,5
 121 850 121 850 135.5 835.5 c 128,-1,6
 150 821 150 821 150 800 c 128,-1,7
 150 779 150 779 135.5 764.5 c 128,-1,0
 121 750 121 750 100 750 c 128,-1,1
200 600 m 128,-1,9
 179 600 179 600 164.5 614.5 c 128,-1,10
 150 629 150 629 150 650 c 128,-1,11
 150 671 150 671 164.5 685.5 c 128,-1,12
 179 700 179 700 200 700 c 128,-1,13
 221 700 221 700 235.5 685.5 c 128,-1,14
 250 671 250 671 250 650 c 128,-1,15
 250 629 250 629 235.5 614.5 c 128,-1,8
 221 600 221 600 200 600 c 128,-1,9
EndSplineSet
EndChar

StartChar: a
Encoding: 97 97 68
Width: 400
GlyphClass: 1
Flags: W
LayerCount: 2
Fore
SplineSet
200 450 m 128,-1,1
 179 450 179 450 164.5 464.5 c 128,-1,2
 150 479 150 479 150 500 c 128,-1,3
 150 521 150 521 164.5 535.5 c 128,-1,4
 179 550 179 550 200 550 c 128,-1,5
 221 550 221 550 235.5 535.5 c 128,-1,6
 250 521 250 521 250 500 c 128,-1,7
 250 479 250 479 235.5 464.5 c 128,-1,0
 221 450 221 450 200 450 c 128,-1,1
300 450 m 128,-1,9
 279 450 279 450 264.5 464.5 c 128,-1,10
 250 479 250 479 250 500 c 128,-1,11
 250 521 250 521 264.5 535.5 c 128,-1,12
 279 550 279 550 300 550 c 128,-1,13
 321 550 321 550 335.5 535.5 c 128,-1,14
 350 521 350 521 350 500 c 128,-1,15
 350 479 350 479 335.5 464.5 c 128,-1,8
 321 450 321 450 300 450 c 128,-1,9
100 300 m 128,-1,17
 79 300 79 300 64.5 314.5 c 128,-1,18
 50 329 50 329 50 350 c 128,-1,19
 50 371 50 371 64.5 385.5 c 128,-1,20
 79 400 79 400 100 400 c 128,-1,21
 121 400 121 400 135.5 385.5 c 128,-1,22
 150 371 150 371 150 350 c 128,-1,23
 150 329 150 329 135.5 314.5 c 128,-1,16
 121 300 121 300 100 300 c 128,-1,17
300 300 m 128,-1,25
 279 300 279 300 264.5 314.5 c 128,-1,26
 250 329 250 329 250 350 c 128,-1,27
 250 371 250 371 264.5 385.5 c 128,-1,28
 279 400 279 400 300 400 c 128,-1,29
 321 400 321 400 335.5 385.5 c 128,-1,30
 350 371 350 371 350 350 c 128,-1,31
 350 329 350 329 335.5 314.5 c 128,-1,24
 321 300 321 300 300 300 c 128,-1,25
100 150 m 128,-1,33
 79 150 79 150 64.5 164.5 c 128,-1,34
 50 179 50 179 50 200 c 128,-1,35
 50 221 50 221 64.5 235.5 c 128,-1,36
 79 250 79 250 100 250 c 128,-1,37
 121 250 121 250 135.5 235.5 c 128,-1,38
 150 221 150 221 150 200 c 128,-1,39
 150 179 150 179 135.5 164.5 c 128,-1,32
 121 150 121 150 100 150 c 128,-1,33
300 150 m 128,-1,41
 279 150 279 150 264.5 164.5 c 128,-1,42
 250 179 250 179 250 200 c 128,-1,43
 250 221 250 221 264.5 235.5 c 128,-1,44
 279 250 279 250 300 250 c 128,-1,45
 321 250 321 250 335.5 235.5 c 128,-1,46
 350 221 350 221 350 200 c 128,-1,47
 350 179 350 179 335.5 164.5 c 128,-1,40
 321 150 321 150 300 150 c 128,-1,41
200 0 m 128,-1,49
 179 0 179 0 164.5 14.5 c 128,-1,50
 150 29 150 29 150 50 c 128,-1,51
 150 71 150 71 164.5 85.5 c 128,-1,52
 179 100 179 100 200 100 c 128,-1,53
 221 100 221 100 235.5 85.5 c 128,-1,54
 250 71 250 71 250 50 c 128,-1,55
 250 29 250 29 235.5 14.5 c 128,-1,48
 221 0 221 0 200 0 c 128,-1,49
300 0 m 128,-1,57
 279 0 279 0 264.5 14.5 c 128,-1,58
 250 29 250 29 250 50 c 128,-1,59
 250 71 250 71 264.5 85.5 c 128,-1,60
 279 100 279 100 300 100 c 128,-1,61
 321 100 321 100 335.5 85.5 c 128,-1,62
 350 71 350 71 350 50 c 128,-1,63
 350 29 350 29 335.5 14.5 c 128,-1,56
 321 0 321 0 300 0 c 128,-1,57
EndSplineSet
EndChar

StartChar: b
Encoding: 98 98 69
Width: 400
GlyphClass: 1
Flags: W
LayerCount: 2
Fore
SplineSet
100 600 m 128,-1,1
 79 600 79 600 64.5 614.5 c 128,-1,2
 50 629 50 629 50 650 c 128,-1,3
 50 671 50 671 64.5 685.5 c 128,-1,4
 79 700 79 700 100 700 c 128,-1,5
 121 700 121 700 135.5 685.5 c 128,-1,6
 150 671 150 671 150 650 c 128,-1,7
 150 629 150 629 135.5 614.5 c 128,-1,0
 121 600 121 600 100 600 c 128,-1,1
100 450 m 128,-1,9
 79 450 79 450 64.5 464.5 c 128,-1,10
 50 479 50 479 50 500 c 128,-1,11
 50 521 50 521 64.5 535.5 c 128,-1,12
 79 550 79 550 100 550 c 128,-1,13
 121 550 121 550 135.5 535.5 c 128,-1,14
 150 521 150 521 150 500 c 128,-1,15
 150 479 150 479 135.5 464.5 c 128,-1,8
 121 450 121 450 100 450 c 128,-1,9
200 450 m 128,-1,17
 179 450 179 450 164.5 464.5 c 128,-1,18
 150 479 150 479 150 500 c 128,-1,19
 150 521 150 521 164.5 535.5 c 128,-1,20
 179 550 179 550 200 550 c 128,-1,21
 221 550 221 550 235.5 535.5 c 128,-1,22
 250 521 250 521 250 500 c 128,-1,23
 250 479 250 479 235.5 464.5 c 128,-1,16
 221 450 221 450 200 450 c 128,-1,17
100 300 m 128,-1,25
 79 300 79 300 64.5 314.5 c 128,-1,26
 50 329 50 329 50 350 c 128,-1,27
 50 371 50 371 64.5 385.5 c 128,-1,28
 79 400 79 400 100 400 c 128,-1,29
 121 400 121 400 135.5 385.5 c 128,-1,30
 150 371 150 371 150 350 c 128,-1,31
 150 329 150 329 135.5 314.5 c 128,-1,24
 121 300 121 300 100 300 c 128,-1,25
300 300 m 128,-1,33
 279 300 279 300 264.5 314.5 c 128,-1,34
 250 329 250 329 250 350 c 128,-1,35
 250 371 250 371 264.5 385.5 c 128,-1,36
 279 400 279 400 300 400 c 128,-1,37
 321 400 321 400 335.5 385.5 c 128,-1,38
 350 371 350 371 350 350 c 128,-1,39
 350 329 350 329 335.5 314.5 c 128,-1,32
 321 300 321 300 300 300 c 128,-1,33
100 150 m 128,-1,41
 79 150 79 150 64.5 164.5 c 128,-1,42
 50 179 50 179 50 200 c 128,-1,43
 50 221 50 221 64.5 235.5 c 128,-1,44
 79 250 79 250 100 250 c 128,-1,45
 121 250 121 250 135.5 235.5 c 128,-1,46
 150 221 150 221 150 200 c 128,-1,47
 150 179 150 179 135.5 164.5 c 128,-1,40
 121 150 121 150 100 150 c 128,-1,41
300 150 m 128,-1,49
 279 150 279 150 264.5 164.5 c 128,-1,50
 250 179 250 179 250 200 c 128,-1,51
 250 221 250 221 264.5 235.5 c 128,-1,52
 279 250 279 250 300 250 c 128,-1,53
 321 250 321 250 335.5 235.5 c 128,-1,54
 350 221 350 221 350 200 c 128,-1,55
 350 179 350 179 335.5 164.5 c 128,-1,48
 321 150 321 150 300 150 c 128,-1,49
100 0 m 128,-1,57
 79 0 79 0 64.5 14.5 c 128,-1,58
 50 29 50 29 50 50 c 128,-1,59
 50 71 50 71 64.5 85.5 c 128,-1,60
 79 100 79 100 100 100 c 128,-1,61
 121 100 121 100 135.5 85.5 c 128,-1,62
 150 71 150 71 150 50 c 128,-1,63
 150 29 150 29 135.5 14.5 c 128,-1,56
 121 0 121 0 100 0 c 128,-1,57
200 0 m 128,-1,65
 179 0 179 0 164.5 14.5 c 128,-1,66
 150 29 150 29 150 50 c 128,-1,67
 150 71 150 71 164.5 85.5 c 128,-1,68
 179 100 179 100 200 100 c 128,-1,69
 221 100 221 100 235.5 85.5 c 128,-1,70
 250 71 250 71 250 50 c 128,-1,71
 250 29 250 29 235.5 14.5 c 128,-1,64
 221 0 221 0 200 0 c 128,-1,65
EndSplineSet
EndChar

StartChar: c
Encoding: 99 99 70
Width: 400
GlyphClass: 1
Flags: W
LayerCount: 2
Fore
SplineSet
200 450 m 128,-1,1
 179 450 179 450 164.5 464.5 c 128,-1,2
 150 479 150 479 150 500 c 128,-1,3
 150 521 150 521 164.5 535.5 c 128,-1,4
 179 550 179 550 200 550 c 128,-1,5
 221 550 221 550 235.5 535.5 c 128,-1,6
 250 521 250 521 250 500 c 128,-1,7
 250 479 250 479 235.5 464.5 c 128,-1,0
 221 450 221 450 200 450 c 128,-1,1
100 300 m 128,-1,9
 79 300 79 300 64.5 314.5 c 128,-1,10
 50 329 50 329 50 350 c 128,-1,11
 50 371 50 371 64.5 385.5 c 128,-1,12
 79 400 79 400 100 400 c 128,-1,13
 121 400 121 400 135.5 385.5 c 128,-1,14
 150 371 150 371 150 350 c 128,-1,15
 150 329 150 329 135.5 314.5 c 128,-1,8
 121 300 121 300 100 300 c 128,-1,9
300 300 m 128,-1,17
 279 300 279 300 264.5 314.5 c 128,-1,18
 250 329 250 329 250 350 c 128,-1,19
 250 371 250 371 264.5 385.5 c 128,-1,20
 279 400 279 400 300 400 c 128,-1,21
 321 400 321 400 335.5 385.5 c 128,-1,22
 350 371 350 371 350 350 c 128,-1,23
 350 329 350 329 335.5 314.5 c 128,-1,16
 321 300 321 300 300 300 c 128,-1,17
100 150 m 128,-1,25
 79 150 79 150 64.5 164.5 c 128,-1,26
 50 179 50 179 50 200 c 128,-1,27
 50 221 50 221 64.5 235.5 c 128,-1,28
 79 250 79 250 100 250 c 128,-1,29
 121 250 121 250 135.5 235.5 c 128,-1,30
 150 221 150 221 150 200 c 128,-1,31
 150 179 150 179 135.5 164.5 c 128,-1,24
 121 150 121 150 100 150 c 128,-1,25
200 0 m 128,-1,33
 179 0 179 0 164.5 14.5 c 128,-1,34
 150 29 150 29 150 50 c 128,-1,35
 150 71 150 71 164.5 85.5 c 128,-1,36
 179 100 179 100 200 100 c 128,-1,37
 221 100 221 100 235.5 85.5 c 128,-1,38
 250 71 250 71 250 50 c 128,-1,39
 250 29 250 29 235.5 14.5 c 128,-1,32
 221 0 221 0 200 0 c 128,-1,33
300 0 m 128,-1,41
 279 0 279 0 264.5 14.5 c 128,-1,42
 250 29 250 29 250 50 c 128,-1,43
 250 71 250 71 264.5 85.5 c 128,-1,44
 279 100 279 100 300 100 c 128,-1,45
 321 100 321 100 335.5 85.5 c 128,-1,46
 350 71 350 71 350 50 c 128,-1,47
 350 29 350 29 335.5 14.5 c 128,-1,40
 321 0 321 0 300 0 c 128,-1,41
EndSplineSet
EndChar

StartChar: d
Encoding: 100 100 71
Width: 400
GlyphClass: 1
Flags: W
LayerCount: 2
Fore
SplineSet
300 600 m 128,-1,1
 279 600 279 600 264.5 614.5 c 128,-1,2
 250 629 250 629 250 650 c 128,-1,3
 250 671 250 671 264.5 685.5 c 128,-1,4
 279 700 279 700 300 700 c 128,-1,5
 321 700 321 700 335.5 685.5 c 128,-1,6
 350 671 350 671 350 650 c 128,-1,7
 350 629 350 629 335.5 614.5 c 128,-1,0
 321 600 321 600 300 600 c 128,-1,1
200 450 m 128,-1,9
 179 450 179 450 164.5 464.5 c 128,-1,10
 150 479 150 479 150 500 c 128,-1,11
 150 521 150 521 164.5 535.5 c 128,-1,12
 179 550 179 550 200 550 c 128,-1,13
 221 550 221 550 235.5 535.5 c 128,-1,14
 250 521 250 521 250 500 c 128,-1,15
 250 479 250 479 235.5 464.5 c 128,-1,8
 221 450 221 450 200 450 c 128,-1,9
300 450 m 128,-1,17
 279 450 279 450 264.5 464.5 c 128,-1,18
 250 479 250 479 250 500 c 128,-1,19
 250 521 250 521 264.5 535.5 c 128,-1,20
 279 550 279 550 300 550 c 128,-1,21
 321 550 321 550 335.5 535.5 c 128,-1,22
 350 521 350 521 350 500 c 128,-1,23
 350 479 350 479 335.5 464.5 c 128,-1,16
 321 450 321 450 300 450 c 128,-1,17
100 300 m 128,-1,25
 79 300 79 300 64.5 314.5 c 128,-1,26
 50 329 50 329 50 350 c 128,-1,27
 50 371 50 371 64.5 385.5 c 128,-1,28
 79 400 79 400 100 400 c 128,-1,29
 121 400 121 400 135.5 385.5 c 128,-1,30
 150 371 150 371 150 350 c 128,-1,31
 150 329 150 329 135.5 314.5 c 128,-1,24
 121 300 121 300 100 300 c 128,-1,25
300 300 m 128,-1,33
 279 300 279 300 264.5 314.5 c 128,-1,34
 250 329 250 329 250 350 c 128,-1,35
 250 371 250 371 264.5 385.5 c 128,-1,36
 279 400 279 400 300 400 c 128,-1,37
 321 400 321 400 335.5 385.5 c 128,-1,38
 350 371 350 371 350 350 c 128,-1,39
 350 329 350 329 335.5 314.5 c 128,-1,32
 321 300 321 300 300 300 c 128,-1,33
100 150 m 128,-1,41
 79 150 79 150 64.5 164.5 c 128,-1,42
 50 179 50 179 50 200 c 128,-1,43
 50 221 50 221 64.5 235.5 c 128,-1,44
 79 250 79 250 100 250 c 128,-1,45
 121 250 121 250 135.5 235.5 c 128,-1,46
 150 221 150 221 150 200 c 128,-1,47
 150 179 150 179 135.5 164.5 c 128,-1,40
 121 150 121 150 100 150 c 128,-1,41
300 150 m 128,-1,49
 279 150 279 150 264.5 164.5 c 128,-1,50
 250 179 250 179 250 200 c 128,-1,51
 250 221 250 221 264.5 235.5 c 128,-1,52
 279 250 279 250 300 250 c 128,-1,53
 321 250 321 250 335.5 235.5 c 128,-1,54
 350 221 350 221 350 200 c 128,-1,55
 350 179 350 179 335.5 164.5 c 128,-1,48
 321 150 321 150 300 150 c 128,-1,49
200 0 m 128,-1,57
 179 0 179 0 164.5 14.5 c 128,-1,58
 150 29 150 29 150 50 c 128,-1,59
 150 71 150 71 164.5 85.5 c 128,-1,60
 179 100 179 100 200 100 c 128,-1,61
 221 100 221 100 235.5 85.5 c 128,-1,62
 250 71 250 71 250 50 c 128,-1,63
 250 29 250 29 235.5 14.5 c 128,-1,56
 221 0 221 0 200 0 c 128,-1,57
300 0 m 128,-1,65
 279 0 279 0 264.5 14.5 c 128,-1,66
 250 29 250 29 250 50 c 128,-1,67
 250 71 250 71 264.5 85.5 c 128,-1,68
 279 100 279 100 300 100 c 128,-1,69
 321 100 321 100 335.5 85.5 c 128,-1,70
 350 71 350 71 350 50 c 128,-1,71
 350 29 350 29 335.5 14.5 c 128,-1,64
 321 0 321 0 300 0 c 128,-1,65
EndSplineSet
EndChar

StartChar: e
Encoding: 101 101 72
Width: 400
GlyphClass: 1
Flags: W
LayerCount: 2
Fore
SplineSet
200 450 m 128,-1,1
 179 450 179 450 164.5 464.5 c 128,-1,2
 150 479 150 479 150 500 c 128,-1,3
 150 521 150 521 164.5 535.5 c 128,-1,4
 179 550 179 550 200 550 c 128,-1,5
 221 550 221 550 235.5 535.5 c 128,-1,6
 250 521 250 521 250 500 c 128,-1,7
 250 479 250 479 235.5 464.5 c 128,-1,0
 221 450 221 450 200 450 c 128,-1,1
100 300 m 128,-1,9
 79 300 79 300 64.5 314.5 c 128,-1,10
 50 329 50 329 50 350 c 128,-1,11
 50 371 50 371 64.5 385.5 c 128,-1,12
 79 400 79 400 100 400 c 128,-1,13
 121 400 121 400 135.5 385.5 c 128,-1,14
 150 371 150 371 150 350 c 128,-1,15
 150 329 150 329 135.5 314.5 c 128,-1,8
 121 300 121 300 100 300 c 128,-1,9
200 300 m 128,-1,17
 179 300 179 300 164.5 314.5 c 128,-1,18
 150 329 150 329 150 350 c 128,-1,19
 150 371 150 371 164.5 385.5 c 128,-1,20
 179 400 179 400 200 400 c 128,-1,21
 221 400 221 400 235.5 385.5 c 128,-1,22
 250 371 250 371 250 350 c 128,-1,23
 250 329 250 329 235.5 314.5 c 128,-1,16
 221 300 221 300 200 300 c 128,-1,17
300 300 m 128,-1,25
 279 300 279 300 264.5 314.5 c 128,-1,26
 250 329 250 329 250 350 c 128,-1,27
 250 371 250 371 264.5 385.5 c 128,-1,28
 279 400 279 400 300 400 c 128,-1,29
 321 400 321 400 335.5 385.5 c 128,-1,30
 350 371 350 371 350 350 c 128,-1,31
 350 329 350 329 335.5 314.5 c 128,-1,24
 321 300 321 300 300 300 c 128,-1,25
100 150 m 128,-1,33
 79 150 79 150 64.5 164.5 c 128,-1,34
 50 179 50 179 50 200 c 128,-1,35
 50 221 50 221 64.5 235.5 c 128,-1,36
 79 250 79 250 100 250 c 128,-1,37
 121 250 121 250 135.5 235.5 c 128,-1,38
 150 221 150 221 150 200 c 128,-1,39
 150 179 150 179 135.5 164.5 c 128,-1,32
 121 150 121 150 100 150 c 128,-1,33
200 0 m 128,-1,41
 179 0 179 0 164.5 14.5 c 128,-1,42
 150 29 150 29 150 50 c 128,-1,43
 150 71 150 71 164.5 85.5 c 128,-1,44
 179 100 179 100 200 100 c 128,-1,45
 221 100 221 100 235.5 85.5 c 128,-1,46
 250 71 250 71 250 50 c 128,-1,47
 250 29 250 29 235.5 14.5 c 128,-1,40
 221 0 221 0 200 0 c 128,-1,41
300 0 m 128,-1,49
 279 0 279 0 264.5 14.5 c 128,-1,50
 250 29 250 29 250 50 c 128,-1,51
 250 71 250 71 264.5 85.5 c 128,-1,52
 279 100 279 100 300 100 c 128,-1,53
 321 100 321 100 335.5 85.5 c 128,-1,54
 350 71 350 71 350 50 c 128,-1,55
 350 29 350 29 335.5 14.5 c 128,-1,48
 321 0 321 0 300 0 c 128,-1,49
EndSplineSet
EndChar

StartChar: f
Encoding: 102 102 73
Width: 400
GlyphClass: 1
Flags: W
LayerCount: 2
Fore
SplineSet
200 600 m 128,-1,1
 179 600 179 600 164.5 614.5 c 128,-1,2
 150 629 150 629 150 650 c 128,-1,3
 150 671 150 671 164.5 685.5 c 128,-1,4
 179 700 179 700 200 700 c 128,-1,5
 221 700 221 700 235.5 685.5 c 128,-1,6
 250 671 250 671 250 650 c 128,-1,7
 250 629 250 629 235.5 614.5 c 128,-1,0
 221 600 221 600 200 600 c 128,-1,1
300 600 m 128,-1,9
 279 600 279 600 264.5 614.5 c 128,-1,10
 250 629 250 629 250 650 c 128,-1,11
 250 671 250 671 264.5 685.5 c 128,-1,12
 279 700 279 700 300 700 c 128,-1,13
 321 700 321 700 335.5 685.5 c 128,-1,14
 350 671 350 671 350 650 c 128,-1,15
 350 629 350 629 335.5 614.5 c 128,-1,8
 321 600 321 600 300 600 c 128,-1,9
100 450 m 128,-1,17
 79 450 79 450 64.5 464.5 c 128,-1,18
 50 479 50 479 50 500 c 128,-1,19
 50 521 50 521 64.5 535.5 c 128,-1,20
 79 550 79 550 100 550 c 128,-1,21
 121 550 121 550 135.5 535.5 c 128,-1,22
 150 521 150 521 150 500 c 128,-1,23
 150 479 150 479 135.5 464.5 c 128,-1,16
 121 450 121 450 100 450 c 128,-1,17
200 450 m 128,-1,25
 179 450 179 450 164.5 464.5 c 128,-1,26
 150 479 150 479 150 500 c 128,-1,27
 150 521 150 521 164.5 535.5 c 128,-1,28
 179 550 179 550 200 550 c 128,-1,29
 221 550 221 550 235.5 535.5 c 128,-1,30
 250 521 250 521 250 500 c 128,-1,31
 250 479 250 479 235.5 464.5 c 128,-1,24
 221 450 221 450 200 450 c 128,-1,25
300 450 m 128,-1,33
 279 450 279 450 264.5 464.5 c 128,-1,34
 250 479 250 479 250 500 c 128,-1,35
 250 521 250 521 264.5 535.5 c 128,-1,36
 279 550 279 550 300 550 c 128,-1,37
 321 550 321 550 335.5 535.5 c 128,-1,38
 350 521 350 521 350 500 c 128,-1,39
 350 479 350 479 335.5 464.5 c 128,-1,32
 321 450 321 450 300 450 c 128,-1,33
200 300 m 128,-1,41
 179 300 179 300 164.5 314.5 c 128,-1,42
 150 329 150 329 150 350 c 128,-1,43
 150 371 150 371 164.5 385.5 c 128,-1,44
 179 400 179 400 200 400 c 128,-1,45
 221 400 221 400 235.5 385.5 c 128,-1,46
 250 371 250 371 250 350 c 128,-1,47
 250 329 250 329 235.5 314.5 c 128,-1,40
 221 300 221 300 200 300 c 128,-1,41
200 150 m 128,-1,49
 179 150 179 150 164.5 164.5 c 128,-1,50
 150 179 150 179 150 200 c 128,-1,51
 150 221 150 221 164.5 235.5 c 128,-1,52
 179 250 179 250 200 250 c 128,-1,53
 221 250 221 250 235.5 235.5 c 128,-1,54
 250 221 250 221 250 200 c 128,-1,55
 250 179 250 179 235.5 164.5 c 128,-1,48
 221 150 221 150 200 150 c 128,-1,49
200 0 m 128,-1,57
 179 0 179 0 164.5 14.5 c 128,-1,58
 150 29 150 29 150 50 c 128,-1,59
 150 71 150 71 164.5 85.5 c 128,-1,60
 179 100 179 100 200 100 c 128,-1,61
 221 100 221 100 235.5 85.5 c 128,-1,62
 250 71 250 71 250 50 c 128,-1,63
 250 29 250 29 235.5 14.5 c 128,-1,56
 221 0 221 0 200 0 c 128,-1,57
EndSplineSet
EndChar

StartChar: g
Encoding: 103 103 74
Width: 400
GlyphClass: 1
Flags: W
LayerCount: 2
Fore
SplineSet
200 450 m 128,-1,1
 179 450 179 450 164.5 464.5 c 128,-1,2
 150 479 150 479 150 500 c 128,-1,3
 150 521 150 521 164.5 535.5 c 128,-1,4
 179 550 179 550 200 550 c 128,-1,5
 221 550 221 550 235.5 535.5 c 128,-1,6
 250 521 250 521 250 500 c 128,-1,7
 250 479 250 479 235.5 464.5 c 128,-1,0
 221 450 221 450 200 450 c 128,-1,1
300 450 m 128,-1,9
 279 450 279 450 264.5 464.5 c 128,-1,10
 250 479 250 479 250 500 c 128,-1,11
 250 521 250 521 264.5 535.5 c 128,-1,12
 279 550 279 550 300 550 c 128,-1,13
 321 550 321 550 335.5 535.5 c 128,-1,14
 350 521 350 521 350 500 c 128,-1,15
 350 479 350 479 335.5 464.5 c 128,-1,8
 321 450 321 450 300 450 c 128,-1,9
100 300 m 128,-1,17
 79 300 79 300 64.5 314.5 c 128,-1,18
 50 329 50 329 50 350 c 128,-1,19
 50 371 50 371 64.5 385.5 c 128,-1,20
 79 400 79 400 100 400 c 128,-1,21
 121 400 121 400 135.5 385.5 c 128,-1,22
 150 371 150 371 150 350 c 128,-1,23
 150 329 150 329 135.5 314.5 c 128,-1,16
 121 300 121 300 100 300 c 128,-1,17
300 300 m 128,-1,25
 279 300 279 300 264.5 314.5 c 128,-1,26
 250 329 250 329 250 350 c 128,-1,27
 250 371 250 371 264.5 385.5 c 128,-1,28
 279 400 279 400 300 400 c 128,-1,29
 321 400 321 400 335.5 385.5 c 128,-1,30
 350 371 350 371 350 350 c 128,-1,31
 350 329 350 329 335.5 314.5 c 128,-1,24
 321 300 321 300 300 300 c 128,-1,25
100 150 m 128,-1,33
 79 150 79 150 64.5 164.5 c 128,-1,34
 50 179 50 179 50 200 c 128,-1,35
 50 221 50 221 64.5 235.5 c 128,-1,36
 79 250 79 250 100 250 c 128,-1,37
 121 250 121 250 135.5 235.5 c 128,-1,38
 150 221 150 221 150 200 c 128,-1,39
 150 179 150 179 135.5 164.5 c 128,-1,32
 121 150 121 150 100 150 c 128,-1,33
300 150 m 128,-1,41
 279 150 279 150 264.5 164.5 c 128,-1,42
 250 179 250 179 250 200 c 128,-1,43
 250 221 250 221 264.5 235.5 c 128,-1,44
 279 250 279 250 300 250 c 128,-1,45
 321 250 321 250 335.5 235.5 c 128,-1,46
 350 221 350 221 350 200 c 128,-1,47
 350 179 350 179 335.5 164.5 c 128,-1,40
 321 150 321 150 300 150 c 128,-1,41
200 0 m 128,-1,49
 179 0 179 0 164.5 14.5 c 128,-1,50
 150 29 150 29 150 50 c 128,-1,51
 150 71 150 71 164.5 85.5 c 128,-1,52
 179 100 179 100 200 100 c 128,-1,53
 221 100 221 100 235.5 85.5 c 128,-1,54
 250 71 250 71 250 50 c 128,-1,55
 250 29 250 29 235.5 14.5 c 128,-1,48
 221 0 221 0 200 0 c 128,-1,49
300 0 m 128,-1,57
 279 0 279 0 264.5 14.5 c 128,-1,58
 250 29 250 29 250 50 c 128,-1,59
 250 71 250 71 264.5 85.5 c 128,-1,60
 279 100 279 100 300 100 c 128,-1,61
 321 100 321 100 335.5 85.5 c 128,-1,62
 350 71 350 71 350 50 c 128,-1,63
 350 29 350 29 335.5 14.5 c 128,-1,56
 321 0 321 0 300 0 c 128,-1,57
100 -150 m 128,-1,65
 79 -150 79 -150 64.5 -135.5 c 128,-1,66
 50 -121 50 -121 50 -100 c 128,-1,67
 50 -79 50 -79 64.5 -64.5 c 128,-1,68
 79 -50 79 -50 100 -50 c 128,-1,69
 121 -50 121 -50 135.5 -64.5 c 128,-1,70
 150 -79 150 -79 150 -100 c 128,-1,71
 150 -121 150 -121 135.5 -135.5 c 128,-1,64
 121 -150 121 -150 100 -150 c 128,-1,65
200 -150 m 128,-1,73
 179 -150 179 -150 164.5 -135.5 c 128,-1,74
 150 -121 150 -121 150 -100 c 128,-1,75
 150 -79 150 -79 164.5 -64.5 c 128,-1,76
 179 -50 179 -50 200 -50 c 128,-1,77
 221 -50 221 -50 235.5 -64.5 c 128,-1,78
 250 -79 250 -79 250 -100 c 128,-1,79
 250 -121 250 -121 235.5 -135.5 c 128,-1,72
 221 -150 221 -150 200 -150 c 128,-1,73
EndSplineSet
EndChar

StartChar: h
Encoding: 104 104 75
Width: 400
GlyphClass: 1
Flags: W
LayerCount: 2
Fore
SplineSet
100 600 m 128,-1,1
 79 600 79 600 64.5 614.5 c 128,-1,2
 50 629 50 629 50 650 c 128,-1,3
 50 671 50 671 64.5 685.5 c 128,-1,4
 79 700 79 700 100 700 c 128,-1,5
 121 700 121 700 135.5 685.5 c 128,-1,6
 150 671 150 671 150 650 c 128,-1,7
 150 629 150 629 135.5 614.5 c 128,-1,0
 121 600 121 600 100 600 c 128,-1,1
100 450 m 128,-1,9
 79 450 79 450 64.5 464.5 c 128,-1,10
 50 479 50 479 50 500 c 128,-1,11
 50 521 50 521 64.5 535.5 c 128,-1,12
 79 550 79 550 100 550 c 128,-1,13
 121 550 121 550 135.5 535.5 c 128,-1,14
 150 521 150 521 150 500 c 128,-1,15
 150 479 150 479 135.5 464.5 c 128,-1,8
 121 450 121 450 100 450 c 128,-1,9
200 450 m 128,-1,17
 179 450 179 450 164.5 464.5 c 128,-1,18
 150 479 150 479 150 500 c 128,-1,19
 150 521 150 521 164.5 535.5 c 128,-1,20
 179 550 179 550 200 550 c 128,-1,21
 221 550 221 550 235.5 535.5 c 128,-1,22
 250 521 250 521 250 500 c 128,-1,23
 250 479 250 479 235.5 464.5 c 128,-1,16
 221 450 221 450 200 450 c 128,-1,17
100 300 m 128,-1,25
 79 300 79 300 64.5 314.5 c 128,-1,26
 50 329 50 329 50 350 c 128,-1,27
 50 371 50 371 64.5 385.5 c 128,-1,28
 79 400 79 400 100 400 c 128,-1,29
 121 400 121 400 135.5 385.5 c 128,-1,30
 150 371 150 371 150 350 c 128,-1,31
 150 329 150 329 135.5 314.5 c 128,-1,24
 121 300 121 300 100 300 c 128,-1,25
300 300 m 128,-1,33
 279 300 279 300 264.5 314.5 c 128,-1,34
 250 329 250 329 250 350 c 128,-1,35
 250 371 250 371 264.5 385.5 c 128,-1,36
 279 400 279 400 300 400 c 128,-1,37
 321 400 321 400 335.5 385.5 c 128,-1,38
 350 371 350 371 350 350 c 128,-1,39
 350 329 350 329 335.5 314.5 c 128,-1,32
 321 300 321 300 300 300 c 128,-1,33
100 150 m 128,-1,41
 79 150 79 150 64.5 164.5 c 128,-1,42
 50 179 50 179 50 200 c 128,-1,43
 50 221 50 221 64.5 235.5 c 128,-1,44
 79 250 79 250 100 250 c 128,-1,45
 121 250 121 250 135.5 235.5 c 128,-1,46
 150 221 150 221 150 200 c 128,-1,47
 150 179 150 179 135.5 164.5 c 128,-1,40
 121 150 121 150 100 150 c 128,-1,41
300 150 m 128,-1,49
 279 150 279 150 264.5 164.5 c 128,-1,50
 250 179 250 179 250 200 c 128,-1,51
 250 221 250 221 264.5 235.5 c 128,-1,52
 279 250 279 250 300 250 c 128,-1,53
 321 250 321 250 335.5 235.5 c 128,-1,54
 350 221 350 221 350 200 c 128,-1,55
 350 179 350 179 335.5 164.5 c 128,-1,48
 321 150 321 150 300 150 c 128,-1,49
100 0 m 128,-1,57
 79 0 79 0 64.5 14.5 c 128,-1,58
 50 29 50 29 50 50 c 128,-1,59
 50 71 50 71 64.5 85.5 c 128,-1,60
 79 100 79 100 100 100 c 128,-1,61
 121 100 121 100 135.5 85.5 c 128,-1,62
 150 71 150 71 150 50 c 128,-1,63
 150 29 150 29 135.5 14.5 c 128,-1,56
 121 0 121 0 100 0 c 128,-1,57
300 0 m 128,-1,65
 279 0 279 0 264.5 14.5 c 128,-1,66
 250 29 250 29 250 50 c 128,-1,67
 250 71 250 71 264.5 85.5 c 128,-1,68
 279 100 279 100 300 100 c 128,-1,69
 321 100 321 100 335.5 85.5 c 128,-1,70
 350 71 350 71 350 50 c 128,-1,71
 350 29 350 29 335.5 14.5 c 128,-1,64
 321 0 321 0 300 0 c 128,-1,65
EndSplineSet
EndChar

StartChar: i
Encoding: 105 105 76
Width: 400
GlyphClass: 1
Flags: W
LayerCount: 2
Fore
SplineSet
200 600 m 128,-1,1
 179 600 179 600 164.5 614.5 c 128,-1,2
 150 629 150 629 150 650 c 128,-1,3
 150 671 150 671 164.5 685.5 c 128,-1,4
 179 700 179 700 200 700 c 128,-1,5
 221 700 221 700 235.5 685.5 c 128,-1,6
 250 671 250 671 250 650 c 128,-1,7
 250 629 250 629 235.5 614.5 c 128,-1,0
 221 600 221 600 200 600 c 128,-1,1
100 450 m 128,-1,9
 79 450 79 450 64.5 464.5 c 128,-1,10
 50 479 50 479 50 500 c 128,-1,11
 50 521 50 521 64.5 535.5 c 128,-1,12
 79 550 79 550 100 550 c 128,-1,13
 121 550 121 550 135.5 535.5 c 128,-1,14
 150 521 150 521 150 500 c 128,-1,15
 150 479 150 479 135.5 464.5 c 128,-1,8
 121 450 121 450 100 450 c 128,-1,9
200 450 m 128,-1,17
 179 450 179 450 164.5 464.5 c 128,-1,18
 150 479 150 479 150 500 c 128,-1,19
 150 521 150 521 164.5 535.5 c 128,-1,20
 179 550 179 550 200 550 c 128,-1,21
 221 550 221 550 235.5 535.5 c 128,-1,22
 250 521 250 521 250 500 c 128,-1,23
 250 479 250 479 235.5 464.5 c 128,-1,16
 221 450 221 450 200 450 c 128,-1,17
200 300 m 128,-1,25
 179 300 179 300 164.5 314.5 c 128,-1,26
 150 329 150 329 150 350 c 128,-1,27
 150 371 150 371 164.5 385.5 c 128,-1,28
 179 400 179 400 200 400 c 128,-1,29
 221 400 221 400 235.5 385.5 c 128,-1,30
 250 371 250 371 250 350 c 128,-1,31
 250 329 250 329 235.5 314.5 c 128,-1,24
 221 300 221 300 200 300 c 128,-1,25
200 150 m 128,-1,33
 179 150 179 150 164.5 164.5 c 128,-1,34
 150 179 150 179 150 200 c 128,-1,35
 150 221 150 221 164.5 235.5 c 128,-1,36
 179 250 179 250 200 250 c 128,-1,37
 221 250 221 250 235.5 235.5 c 128,-1,38
 250 221 250 221 250 200 c 128,-1,39
 250 179 250 179 235.5 164.5 c 128,-1,32
 221 150 221 150 200 150 c 128,-1,33
100 0 m 128,-1,41
 79 0 79 0 64.5 14.5 c 128,-1,42
 50 29 50 29 50 50 c 128,-1,43
 50 71 50 71 64.5 85.5 c 128,-1,44
 79 100 79 100 100 100 c 128,-1,45
 121 100 121 100 135.5 85.5 c 128,-1,46
 150 71 150 71 150 50 c 128,-1,47
 150 29 150 29 135.5 14.5 c 128,-1,40
 121 0 121 0 100 0 c 128,-1,41
200 0 m 128,-1,49
 179 0 179 0 164.5 14.5 c 128,-1,50
 150 29 150 29 150 50 c 128,-1,51
 150 71 150 71 164.5 85.5 c 128,-1,52
 179 100 179 100 200 100 c 128,-1,53
 221 100 221 100 235.5 85.5 c 128,-1,54
 250 71 250 71 250 50 c 128,-1,55
 250 29 250 29 235.5 14.5 c 128,-1,48
 221 0 221 0 200 0 c 128,-1,49
300 0 m 128,-1,57
 279 0 279 0 264.5 14.5 c 128,-1,58
 250 29 250 29 250 50 c 128,-1,59
 250 71 250 71 264.5 85.5 c 128,-1,60
 279 100 279 100 300 100 c 128,-1,61
 321 100 321 100 335.5 85.5 c 128,-1,62
 350 71 350 71 350 50 c 128,-1,63
 350 29 350 29 335.5 14.5 c 128,-1,56
 321 0 321 0 300 0 c 128,-1,57
EndSplineSet
EndChar

StartChar: j
Encoding: 106 106 77
Width: 400
GlyphClass: 1
Flags: W
LayerCount: 2
Fore
SplineSet
300 600 m 128,-1,1
 279 600 279 600 264.5 614.5 c 128,-1,2
 250 629 250 629 250 650 c 128,-1,3
 250 671 250 671 264.5 685.5 c 128,-1,4
 279 700 279 700 300 700 c 128,-1,5
 321 700 321 700 335.5 685.5 c 128,-1,6
 350 671 350 671 350 650 c 128,-1,7
 350 629 350 629 335.5 614.5 c 128,-1,0
 321 600 321 600 300 600 c 128,-1,1
200 450 m 128,-1,9
 179 450 179 450 164.5 464.5 c 128,-1,10
 150 479 150 479 150 500 c 128,-1,11
 150 521 150 521 164.5 535.5 c 128,-1,12
 179 550 179 550 200 550 c 128,-1,13
 221 550 221 550 235.5 535.5 c 128,-1,14
 250 521 250 521 250 500 c 128,-1,15
 250 479 250 479 235.5 464.5 c 128,-1,8
 221 450 221 450 200 450 c 128,-1,9
300 450 m 128,-1,17
 279 450 279 450 264.5 464.5 c 128,-1,18
 250 479 250 479 250 500 c 128,-1,19
 250 521 250 521 264.5 535.5 c 128,-1,20
 279 550 279 550 300 550 c 128,-1,21
 321 550 321 550 335.5 535.5 c 128,-1,22
 350 521 350 521 350 500 c 128,-1,23
 350 479 350 479 335.5 464.5 c 128,-1,16
 321 450 321 450 300 450 c 128,-1,17
300 300 m 128,-1,25
 279 300 279 300 264.5 314.5 c 128,-1,26
 250 329 250 329 250 350 c 128,-1,27
 250 371 250 371 264.5 385.5 c 128,-1,28
 279 400 279 400 300 400 c 128,-1,29
 321 400 321 400 335.5 385.5 c 128,-1,30
 350 371 350 371 350 350 c 128,-1,31
 350 329 350 329 335.5 314.5 c 128,-1,24
 321 300 321 300 300 300 c 128,-1,25
300 150 m 128,-1,33
 279 150 279 150 264.5 164.5 c 128,-1,34
 250 179 250 179 250 200 c 128,-1,35
 250 221 250 221 264.5 235.5 c 128,-1,36
 279 250 279 250 300 250 c 128,-1,37
 321 250 321 250 335.5 235.5 c 128,-1,38
 350 221 350 221 350 200 c 128,-1,39
 350 179 350 179 335.5 164.5 c 128,-1,32
 321 150 321 150 300 150 c 128,-1,33
300 0 m 128,-1,41
 279 0 279 0 264.5 14.5 c 128,-1,42
 250 29 250 29 250 50 c 128,-1,43
 250 71 250 71 264.5 85.5 c 128,-1,44
 279 100 279 100 300 100 c 128,-1,45
 321 100 321 100 335.5 85.5 c 128,-1,46
 350 71 350 71 350 50 c 128,-1,47
 350 29 350 29 335.5 14.5 c 128,-1,40
 321 0 321 0 300 0 c 128,-1,41
100 -150 m 128,-1,49
 79 -150 79 -150 64.5 -135.5 c 128,-1,50
 50 -121 50 -121 50 -100 c 128,-1,51
 50 -79 50 -79 64.5 -64.5 c 128,-1,52
 79 -50 79 -50 100 -50 c 128,-1,53
 121 -50 121 -50 135.5 -64.5 c 128,-1,54
 150 -79 150 -79 150 -100 c 128,-1,55
 150 -121 150 -121 135.5 -135.5 c 128,-1,48
 121 -150 121 -150 100 -150 c 128,-1,49
200 -150 m 128,-1,57
 179 -150 179 -150 164.5 -135.5 c 128,-1,58
 150 -121 150 -121 150 -100 c 128,-1,59
 150 -79 150 -79 164.5 -64.5 c 128,-1,60
 179 -50 179 -50 200 -50 c 128,-1,61
 221 -50 221 -50 235.5 -64.5 c 128,-1,62
 250 -79 250 -79 250 -100 c 128,-1,63
 250 -121 250 -121 235.5 -135.5 c 128,-1,56
 221 -150 221 -150 200 -150 c 128,-1,57
EndSplineSet
EndChar

StartChar: k
Encoding: 107 107 78
Width: 400
GlyphClass: 1
Flags: W
LayerCount: 2
Fore
SplineSet
100 600 m 128,-1,1
 79 600 79 600 64.5 614.5 c 128,-1,2
 50 629 50 629 50 650 c 128,-1,3
 50 671 50 671 64.5 685.5 c 128,-1,4
 79 700 79 700 100 700 c 128,-1,5
 121 700 121 700 135.5 685.5 c 128,-1,6
 150 671 150 671 150 650 c 128,-1,7
 150 629 150 629 135.5 614.5 c 128,-1,0
 121 600 121 600 100 600 c 128,-1,1
100 450 m 128,-1,9
 79 450 79 450 64.5 464.5 c 128,-1,10
 50 479 50 479 50 500 c 128,-1,11
 50 521 50 521 64.5 535.5 c 128,-1,12
 79 550 79 550 100 550 c 128,-1,13
 121 550 121 550 135.5 535.5 c 128,-1,14
 150 521 150 521 150 500 c 128,-1,15
 150 479 150 479 135.5 464.5 c 128,-1,8
 121 450 121 450 100 450 c 128,-1,9
300 450 m 128,-1,17
 279 450 279 450 264.5 464.5 c 128,-1,18
 250 479 250 479 250 500 c 128,-1,19
 250 521 250 521 264.5 535.5 c 128,-1,20
 279 550 279 550 300 550 c 128,-1,21
 321 550 321 550 335.5 535.5 c 128,-1,22
 350 521 350 521 350 500 c 128,-1,23
 350 479 350 479 335.5 464.5 c 128,-1,16
 321 450 321 450 300 450 c 128,-1,17
100 300 m 128,-1,25
 79 300 79 300 64.5 314.5 c 128,-1,26
 50 329 50 329 50 350 c 128,-1,27
 50 371 50 371 64.5 385.5 c 128,-1,28
 79 400 79 400 100 400 c 128,-1,29
 121 400 121 400 135.5 385.5 c 128,-1,30
 150 371 150 371 150 350 c 128,-1,31
 150 329 150 329 135.5 314.5 c 128,-1,24
 121 300 121 300 100 300 c 128,-1,25
200 300 m 128,-1,33
 179 300 179 300 164.5 314.5 c 128,-1,34
 150 329 150 329 150 350 c 128,-1,35
 150 371 150 371 164.5 385.5 c 128,-1,36
 179 400 179 400 200 400 c 128,-1,37
 221 400 221 400 235.5 385.5 c 128,-1,38
 250 371 250 371 250 350 c 128,-1,39
 250 329 250 329 235.5 314.5 c 128,-1,32
 221 300 221 300 200 300 c 128,-1,33
100 150 m 128,-1,41
 79 150 79 150 64.5 164.5 c 128,-1,42
 50 179 50 179 50 200 c 128,-1,43
 50 221 50 221 64.5 235.5 c 128,-1,44
 79 250 79 250 100 250 c 128,-1,45
 121 250 121 250 135.5 235.5 c 128,-1,46
 150 221 150 221 150 200 c 128,-1,47
 150 179 150 179 135.5 164.5 c 128,-1,40
 121 150 121 150 100 150 c 128,-1,41
300 150 m 128,-1,49
 279 150 279 150 264.5 164.5 c 128,-1,50
 250 179 250 179 250 200 c 128,-1,51
 250 221 250 221 264.5 235.5 c 128,-1,52
 279 250 279 250 300 250 c 128,-1,53
 321 250 321 250 335.5 235.5 c 128,-1,54
 350 221 350 221 350 200 c 128,-1,55
 350 179 350 179 335.5 164.5 c 128,-1,48
 321 150 321 150 300 150 c 128,-1,49
100 0 m 128,-1,57
 79 0 79 0 64.5 14.5 c 128,-1,58
 50 29 50 29 50 50 c 128,-1,59
 50 71 50 71 64.5 85.5 c 128,-1,60
 79 100 79 100 100 100 c 128,-1,61
 121 100 121 100 135.5 85.5 c 128,-1,62
 150 71 150 71 150 50 c 128,-1,63
 150 29 150 29 135.5 14.5 c 128,-1,56
 121 0 121 0 100 0 c 128,-1,57
300 0 m 128,-1,65
 279 0 279 0 264.5 14.5 c 128,-1,66
 250 29 250 29 250 50 c 128,-1,67
 250 71 250 71 264.5 85.5 c 128,-1,68
 279 100 279 100 300 100 c 128,-1,69
 321 100 321 100 335.5 85.5 c 128,-1,70
 350 71 350 71 350 50 c 128,-1,71
 350 29 350 29 335.5 14.5 c 128,-1,64
 321 0 321 0 300 0 c 128,-1,65
EndSplineSet
EndChar

